<?xml version="1.0" encoding="utf-8"?>
<!-- Generator: Adobe Illustrator 23.0.5, SVG Export Plug-In . SVG Version: 6.00 Build 0)  -->
<svg version="1.1" id="Capa_1" xmlns="http://www.w3.org/2000/svg" xmlns:xlink="http://www.w3.org/1999/xlink" x="0px" y="0px"
	 viewBox="0 0 981.7 424.6" style="enable-background:new 0 0 981.7 424.6;" xml:space="preserve">
<style type="text/css">
	.st0{fill:#FFFFFF;}
</style>
<g>
	<g>
		<path class="st0" d="M262.9,211.4c16.1,7,30.1,16.7,40.7,30.9c17.6,23.6,10.3,54-11,70c-13.4,10.1-29,14.5-45.3,16.7
			c-34.9,4.6-69.1,0.1-102.9-9c-36.3-9.8-70.6-24.4-101.5-46.1c-12.4-8.7-23.8-18.5-32.7-31c-5-7-8.9-14.5-10-23.1
			c-1.8-15.7,4.5-27.2,18.8-34c11.1-5.3,23-6.9,35-8.1c3.1-0.3,6.3-0.5,9.4-0.7c-4.9,12.6-1.3,23.4,6.9,33.4
			c9.3,11.3,20.8,19.9,33.5,26.8c34.8,19.2,71.9,28.4,111.8,26.1c11.3-0.7,22.2-3.2,32.2-8.6c11.9-6.4,20.8-18.1,16.3-35.2
			C263.5,216.9,262.6,214.2,262.9,211.4z"/>
		<path class="st0" d="M68.7,164.8c3.4-11.8,7.9-23.2,11.9-34.8c2.3-6.7,4.3-13.5,7.5-19.9c6.5-13,16-16.4,29.1-10.5
			c4.5,2,8.7,4.4,13.6,5.7c5.7,1.5,10.5,0.4,14.9-3.4c0.5-0.4,1.2-0.8,1.6-1.3c6.1-7.8,13.8-8,22.6-5.4c19.8,6,38.9,13.6,57.3,23.2
			c11.2,5.8,17.9,14.3,20.3,27c3.3,17,7.8,33.8,11.7,50.7c0.3,1.2,0.3,2.4,0.4,3.6c0.3,13.2-6.7,21.1-18.4,25.7
			c-7.6,3-15.5,4.3-23.6,4.7c-19.2,0.9-38.2-0.9-56.9-5.7c-29.4-7.6-56.3-19.9-79.1-40.4C76,178.8,70.2,173.2,68.7,164.8z"/>
	</g>
	<g>
		<path class="st0" d="M454.3,275.1c-11,0-21.2-0.1-31.5,0.1c-2.3,0-2.7-1.4-3.4-2.8c-6.7-12.9-13.4-25.7-19.9-38.6
			c-1-2-2.1-2.8-4.4-2.7c-5.5,0.2-11,0.2-16.4,0c-2.5-0.1-3.2,0.6-3.2,3.2c0.1,12.6,0,25.2,0.1,37.8c0,2.5-0.6,3.2-3.1,3.2
			c-7.9-0.2-15.9-0.2-23.8,0c-2.6,0.1-3.2-0.7-3.2-3.2c0.1-38.4,0.1-76.8,0-115.1c0-1.7-0.2-3.2,2.4-3.2c22.2,0.3,44.4-1,66.6,0.6
			c25.5,1.8,41.7,25.8,34.3,49.5c-2.9,9.5-9,16.5-17.7,21.1c-2.6,1.4-3.1,2.3-1.5,5.1c7.8,13.7,15.2,27.5,22.8,41.3
			C452.8,272.3,453.4,273.4,454.3,275.1z M392.5,206.7c4.5-0.3,10,0.5,15.4-0.4c8.1-1.4,12.6-6.8,12.1-14.4c-0.5-7-6.2-12.1-14-12.2
			c-9.3-0.2-18.6,0-27.9-0.1c-1.9,0-2.6,0.3-2.6,2.4c0.1,7.4,0.1,14.8,0,22.2c0,2.4,1,2.6,2.9,2.6
			C382.8,206.6,387.2,206.7,392.5,206.7z"/>
		<path class="st0" d="M696.9,214.1c0-18.9,0.1-37.9-0.1-56.8c0-2.8,0.7-3.8,3.6-3.7c7.7,0.2,15.4,0.2,23,0c3-0.1,3.5,1,3.5,3.7
			c-0.1,13.2,0,26.3-0.1,39.5c0,2.5,0.5,3.5,3.3,3.4c14.4-0.2,28.8-0.1,43.2,0c2.6,0,3.2-0.7,3.1-3.2c-0.1-13.3,0-26.6-0.1-39.9
			c0-2.6,0.5-3.6,3.3-3.5c8,0.2,15.9,0.1,23.9,0c2.2,0,3.1,0.5,3.1,2.9c-0.1,38.5-0.1,77.1,0,115.6c0,2.4-0.7,3-3,2.9
			c-8.1-0.1-16.2-0.2-24.3,0c-2.8,0.1-3-1.1-3-3.4c0.1-13.4-0.1-26.9,0.1-40.3c0.1-3.2-0.9-3.8-3.9-3.8c-14.1,0.1-28.3,0.1-42.4,0
			c-2.7,0-3.4,0.6-3.4,3.4c0.1,13.6,0,27.2,0.1,40.7c0,2.7-0.7,3.4-3.4,3.4c-7.8-0.2-15.6-0.2-23.4,0c-2.8,0.1-3.4-0.9-3.3-3.5
			C696.9,252.5,696.9,233.3,696.9,214.1z"/>
		<path class="st0" d="M655.3,147.6c0,10.8,0,21.1,0,31.4c0,30.6-0.1,61.1,0.1,91.7c0,3.9-1.2,4.7-4.7,4.5
			c-5.7-0.3-11.5-0.1-17.3-0.1c-6,0-6,0-6.2-5.8c-0.8-0.5-1.2,0.2-1.8,0.5c-28.3,17-65.2-1.3-69-34.2c-4.3-37.5,31.7-64.2,66.5-49.4
			c3.7,1.6,4.2,0.8,4.1-2.8c-0.2-8.8,0-17.5-0.1-26.3c0-2.4,0.5-3.5,3.2-4C638.4,151.5,646.7,149.5,655.3,147.6z M626.9,229.2
			C626.9,229.2,626.9,229.2,626.9,229.2c0-2.6,0-5.2,0-7.8c0-9.7-1.3-11.4-10.7-14.1c-1.6-0.5-3.2-0.8-4.8-1.1
			c-17.4-2.6-31.5,12.7-26.7,29.2c2.5,8.6,8.4,14,17.1,16c8.7,2,16.8,0.3,23.9-5.3c1.3-1,1.2-2.3,1.2-3.7
			C626.9,238,626.9,233.6,626.9,229.2z"/>
		<path class="st0" d="M482.2,238.9c6.7,14.5,25.4,19,38,9.5c2.3-1.8,3.5-1.5,5.3,0.3c4.6,4.3,9.4,8.4,14.1,12.6
			c1.2,1.1,1.8,1.7,0.2,3.1c-21.7,18.4-61.3,17.7-78.9-9.1c-10-15.2-10.7-31.6-2.7-47.6c8-15.9,21.5-24.6,39.3-25.6
			c27.7-1.6,48.3,17.9,49.6,46.4c0.5,10.5,0.5,10.5-9.9,10.5c-16.9,0-33.7,0-50.6,0C485.3,238.9,484,238.9,482.2,238.9z
			 M481.9,218.9c12.3,0,24.6,0,37,0c-2.4-8.5-9.7-13.9-18.7-13.9C491,205,484.4,210,481.9,218.9z"/>
		<path class="st0" d="M874.2,270.1c-11.9,6.9-24.2,8.4-37.1,5c-15.4-4.1-23.9-18-20.5-33.4c2.2-9.8,9-15.4,18.1-18.4
			c11.6-3.8,23.5-3.5,35.3-1.1c3.7,0.8,4.7,0.1,4.4-3.7c-0.5-7-3.7-11.1-10.6-12.6c-9.6-2.1-18.4,0.6-27.3,3.7
			c-7.4,2.6-7.3,2.7-10.8-4.3c-1.9-3.8-3.7-7.6-5.6-11.4c-0.6-1.3-1.3-2.2,0.8-3.1c18.5-7.9,37.5-12.2,57.5-7.1
			c15,3.9,23.7,15.6,23.7,31c0,18.9-0.1,37.8,0.1,56.8c0,2.9-0.6,3.7-3.6,3.6c-6.6-0.2-13.2-0.1-19.7-0.1
			C874.5,275.1,874.5,275.1,874.2,270.1z M857.4,238.8c-2.9,0.1-5.7,0-8.5,0.8c-5.4,1.4-8.2,4.3-8.2,8.3c0.1,3.9,3.4,7.2,8.4,8.2
			c7.2,1.5,14.1,0.3,20.8-2.4c1.9-0.8,2.6-1.9,2.6-4c0.1-9.2,0.2-9.2-9-10.5C861.5,238.9,859.5,238.9,857.4,238.8z"/>
		<path class="st0" d="M955.9,225.8c0,4.9-0.1,9.9,0,14.8c0.1,9,3.6,12.4,12.6,12.1c2.9-0.1,5.7-0.5,8.5-1.2c2.8-0.7,4.2-0.7,4,2.9
			c-0.4,5.5-0.1,11-0.1,16.4c0,1.7-0.2,2.9-2.1,3.3c-10.3,2.1-20.6,3.3-30.9,0.7c-12.8-3.2-19.9-12.4-20-26.1
			c-0.1-12.7-0.1-25.5,0-38.2c0-2.8-0.5-3.9-3.5-3.7c-4.1,0.3-8.2,0-12.3,0.1c-2.2,0.1-2.8-0.7-2.8-2.8c0.1-6,0.1-12.1,0-18.1
			c0-2.2,0.7-2.9,2.8-2.8c2.9,0.2,5.8,0,8.6,0c7.1,0,7.1,0,7.1-7.3c0-4.5,0.1-9.1-0.1-13.6c-0.1-2.1,0.7-2.9,2.6-3.3
			c7.5-1.6,15-3.1,22.4-4.9c2.6-0.6,3.3,0.1,3.2,2.7c-0.2,7,0.2,14-0.2,21c-0.2,4.1,0.7,5.8,5.2,5.4c5.9-0.4,11.8,0,17.7-0.1
			c2.3-0.1,3.1,0.7,3,3c-0.2,5.9-0.1,11.8,0,17.7c0.1,2.3-0.6,3.1-3,3c-6.4-0.1-12.9,0.1-19.3-0.1c-3-0.1-3.7,0.9-3.6,3.7
			C956,215.7,955.8,220.7,955.9,225.8z"/>
	</g>
</g>
</svg>
