<?xml version="1.0" encoding="utf-8"?>
<!-- Generator: Adobe Illustrator 23.0.5, SVG Export Plug-In . SVG Version: 6.00 Build 0)  -->
<svg version="1.1" id="Capa_1" xmlns="http://www.w3.org/2000/svg" xmlns:xlink="http://www.w3.org/1999/xlink" x="0px" y="0px"
	 viewBox="0 0 981.7 424.6" style="enable-background:new 0 0 981.7 424.6;" xml:space="preserve">
<style type="text/css">
	.st0{fill:#FFFFFF;}
</style>
<g>
	<path class="st0" d="M326.9,210.2c0.8,91.1-71.2,165-161.5,165.8C74.1,376.8-0.1,304.4,0,212.8c0.1-91.7,69.6-162,159.6-164.1
		C252.8,46.4,325.6,119,326.9,210.2z M166.1,308.3c3.2-0.4,9.7-0.7,16.1-1.9c3-0.6,6.8-0.4,8.1-4.9c4.8-16.8,19.7-25.5,36.8-21.5
		c2.5,0.6,4.2,0.1,5.9-1.7c14.8-15.7,23.3-34.2,26-55.6c0.5-3.7-0.8-5.1-4.4-5.1c-7.9,0.1-15.7,0-23.6-0.1c-2.7,0-4.1,0.8-4.6,3.7
		c-2.5,15.4-9.2,28.6-21.2,38.7c-19.6,16.5-41.6,19.6-65.5,10.9c-2.2-0.8-3.7-0.6-4.9,1.6c-4.1,7.5-8.4,14.9-12.6,22.4
		c-1.1,2-0.8,3.5,1.7,4.7C136.2,305.2,149.3,308,166.1,308.3z M242.5,207.4c0-0.1,0-0.3,0-0.4c4.4,0,8.8-0.1,13.1,0
		c2.5,0,3.4-1,3.2-3.5c-0.5-6.1-1.7-12-3.4-17.8c-4.4-15.2-12.2-28.4-23.1-39.9c-1.5-1.6-3.2-1.8-5.2-1.1
		c-14.4,5-33.5-5.5-36.6-20.3c-0.7-3.3-2.4-4.8-5.4-5.4c-20.7-4.4-40.7-2.6-60.2,5.6c-3.9,1.6-4.1,3.5-2.2,6.8
		c3.7,6.3,7.4,12.7,10.8,19.2c1.7,3.2,3.6,4.1,7.2,2.8c22.1-8.3,42.7-5.1,61.4,9c13.1,9.9,21.2,23.2,23.5,39.7c0.5,4,2,5.8,6.3,5.3
		C235.4,207.1,239,207.4,242.5,207.4z M70.8,237.8c1.8,4.7,3.5,9.5,5.5,14.1c7.1,15.8,17.8,28.6,31.9,38.7c2.2,1.6,3.2,1,4.4-1.1
		c4-6.9,7.8-13.9,12.3-20.4c2.5-3.6,1.5-5.4-1.5-7.8c-9.9-8.1-17.2-18.2-20.5-30.5c-7.1-27.2,0-50.1,21.7-68.3
		c2.2-1.8,2.4-3.3,1-5.5c-3.4-5.5-7-10.9-10-16.6c-4.3-8.3-5.2-8.5-12.3-2.6c-15,12.6-25.8,28-31.7,46.8c-0.9,2.8-0.6,4.4,1.4,6.5
		c11.9,12.5,11.8,30.3-0.1,42.7C72.1,234.9,71,236,70.8,237.8z M52.1,235c12-0.1,22.4-10.4,22.4-22.2c0-12.5-10-22.8-22-22.8
		c-13.1,0-23,9.5-23,21.9C29.5,225,39.4,235,52.1,235z M196.8,308.8c-0.2,12.2,9.5,22.4,21.4,22.7c12.9,0.2,23.4-9.6,23.8-22.1
		c0.3-11.9-10.3-22.8-22.5-23C207.3,286,197,296.2,196.8,308.8z M219.2,138.2c12.4,0.2,22.5-9.8,22.7-22.5
		c0.1-11.6-10.5-22.3-22.3-22.5c-12.3-0.2-22.5,9.9-22.8,22.5C196.5,128.1,206.4,138,219.2,138.2z"/>
	<g>
		<path class="st0" d="M469.9,210.6c0-24.6,0-49.2,0-73.8c0-2.8,0.7-4.1,3.7-4.4c4.3-0.5,8.6-1.5,12.9-2.4c2.8-0.6,3.3,0.9,3.3,3.2
			c0,16.6,0,33.3-0.1,49.9c0,3.3,0.9,3.9,3.9,2.5c25.8-12.1,59.9-3.9,69,29.6c5.4,20,4.9,39.5-6.8,57.4c-9.4,14.2-23.7,20.2-40,21.9
			c-14.9,1.5-29.3-2.1-43.7-5.4c-2.4-0.6-2.2-2.5-2.2-4.3c0-12.4,0-24.7,0-37.1S469.9,222.9,469.9,210.6z M489.8,240.1
			c0,10.4,0.1,20.7,0,31.1c0,2.2,0.7,3.1,2.9,3.6c5.6,1.3,11.2,1.6,16.9,1.7c15.3,0.2,26.8-6.6,32.1-20.1
			c4.5-11.6,4.1-23.6,1.3-35.6c-1.5-6.3-4.2-12-9.4-16.3c-9.4-7.8-25.3-8.6-37.2-2.6c-5.1,2.6-7.1,5.6-6.7,11.3
			C490.1,222.1,489.8,231.1,489.8,240.1z"/>
		<path class="st0" d="M981.7,235.7c0,16.3,0,32.7,0,49c0,1.6,0,3.2-1.9,3.6c-17,3.8-34.1,8.3-51.7,5.3c-25.6-4.3-34.8-19.6-35.9-45
			c-0.9-20.7-0.2-41.5-0.3-62.2c0-2.9,1.1-3.9,3.9-3.8c3.9,0.1,7.8,0.2,11.7,0c3.4-0.2,4.5,1,4.5,4.4c-0.1,19-0.1,38.1,0,57.1
			c0,6.1,1,12,3.1,17.8c3.2,9,10.1,12.9,19,14c8,1,15.9-0.3,23.8-1.4c2.7-0.4,2.1-2.6,2.1-4.2c0-27.6,0.1-55.2-0.1-82.8
			c0-4.1,1.3-5.2,5.1-5c4.2,0.3,8.4,0.2,12.6,0.1c3-0.1,4.1,1.1,4.1,4.2C981.5,203.2,981.6,219.4,981.7,235.7
			C981.6,235.7,981.7,235.7,981.7,235.7z"/>
		<path class="st0" d="M442.6,235.8c0,15.8-0.1,31.7,0.1,47.5c0,3.9-1,5.5-5.1,6.2c-13.6,2.5-27.1,5.7-41.1,4.8
			c-21.3-1.5-35.7-11.7-40.7-34.4c-5.4-24.8-1.3-49.6-2.8-74.3c-0.1-1.9,1-2.7,2.8-2.8c5.4-0.1,10.8-0.1,16.1-0.1
			c2.9,0,2.5,2.3,2.5,4.1c0.1,20.3,0.1,40.6,0.3,61c0.1,6.1,1.5,12.1,4.4,17.5c4.5,8.4,12.5,10.5,21.2,10.9
			c6.7,0.3,13.3-0.7,19.9-1.6c2.7-0.4,2.3-2.2,2.3-4c0-27.6,0.1-55.2-0.1-82.8c0-4.1,0.9-5.8,5.2-5.3c3.5,0.4,7.2,0.2,10.7,0
			c3.1-0.1,4.2,1,4.2,4.1C442.5,203.1,442.5,219.4,442.6,235.8C442.6,235.8,442.6,235.8,442.6,235.8z"/>
		<path class="st0" d="M700.8,238.4c0-16.3,0-32.7-0.1-49c0-2.3,0.8-3.6,3-4.1c19.2-4.1,38.4-7,58-2.7c12.5,2.8,23.2,15.6,25.4,28.8
			c3.1,18.8,1,37.6,1.7,56.4c0.2,6.8-0.1,13.6,0.1,20.3c0.1,2.6-1,3.3-3.3,3.3c-4.3-0.1-8.6-0.1-12.9,0c-2.8,0.1-3.8-1-3.8-3.9
			c0-20.9-0.1-41.9-0.4-62.8c-0.1-6.6-1.6-13-5.5-18.6c-2.9-4.1-7-6.2-11.6-7.1c-9.2-1.8-18.5-0.4-27.7,0.5c-3,0.3-2.9,2.4-2.9,4.6
			c0,27.9,0,55.8,0.1,83.7c0,2.8-0.7,3.7-3.5,3.6c-4.3-0.2-8.6-0.1-12.9,0c-2.6,0.1-3.8-0.9-3.8-3.7
			C700.8,271.3,700.8,254.9,700.8,238.4C700.8,238.4,700.8,238.4,700.8,238.4z"/>
		<path class="st0" d="M673.7,235.8c0,15.8-0.1,31.7,0.1,47.5c0,3.8-0.9,5.5-5.1,6.2c-13.4,2.4-26.7,5.3-40.5,4.8
			c-23.7-0.7-40-15.5-41.6-39.1c-1.6-23.3-0.4-46.6-0.6-69.9c0-1.9,0.8-2.7,2.7-2.7c4.7,0,9.4,0,14.1,0c2.7,0,2.7,1.7,2.7,3.6
			c0,16.4-0.2,32.9,0.1,49.3c0.1,7.8,0.1,15.8,2.5,23.4c3.7,11.7,10.5,16.9,22.7,17.3c6.9,0.3,13.7-0.6,20.5-1.6
			c2.7-0.4,2.6-2.2,2.6-4.2c0-27.7,0-55.4-0.1-83.1c0-3.6,1-5.1,4.8-4.8c3.6,0.3,7.2,0.3,10.8,0c3.5-0.3,4.6,1.2,4.5,4.5
			C673.6,203.3,673.7,219.6,673.7,235.8z"/>
		<path class="st0" d="M813.8,212.8c0-21.2,0.1-38.6-0.1-56c0-3,1-4.3,3.9-4.8c4.3-0.6,8.6-1.5,12.9-2.3c2.5-0.5,3.1,0.7,3.1,3
			c-0.1,8.7,0.1,17.3-0.1,26c-0.1,3.2,1.1,4.1,4.2,4.1c11-0.1,21.9,0,32.9-0.1c3.1,0,4.2,1,4.2,4.1c0,12.6,0.1,12.6-12.4,12.6
			c-8.4,0-16.7,0-25.1,0c-2.2,0-3.8,0.5-3.7,3.1c0.4,19.4-1.2,38.8,0.9,58.2c1,9.3,6.1,14.4,15.2,15.5c6.7,0.8,13.3,0,19.6-2.6
			c3.3-1.4,5.9-2.4,6.6,2.7c0.4,3.1,1.7,6.1,2.5,9.2c0.4,1.5-0.1,2.8-1.6,3.4c-11.5,4.3-23.1,7.5-35.6,4.7
			c-16.4-3.6-25.2-13.6-26.7-30.4C813,245.1,814.1,227,813.8,212.8z"/>
	</g>
</g>
</svg>
