<?xml version="1.0" encoding="utf-8"?>
<!-- Generator: Adobe Illustrator 23.0.5, SVG Export Plug-In . SVG Version: 6.00 Build 0)  -->
<svg version="1.1" id="Capa_1" xmlns="http://www.w3.org/2000/svg" xmlns:xlink="http://www.w3.org/1999/xlink" x="0px" y="0px"
	 viewBox="0 0 981.7 424.6" style="enable-background:new 0 0 981.7 424.6;" xml:space="preserve">
<style type="text/css">
	.st0{fill:#92E3A9;}
</style>
<g>
	<path class="st0" d="M386.9,130c-29.7,0-48.8,22.2-49,42.9v120.2c0,14.8,23,14.8,23,0v-80.2h23.6c5.5,0,10.2-3.9,10.2-10.2
		c0-6.3-5-10.1-10.2-10.1h-23.6v-18.5c0-11.8,9.4-21.7,28.4-21.5c6.6,0.1,8.9,1.7,11.4,3.1c13.2,8.6,25.9-11.3,12.1-18.8
		C404.2,131.8,396.3,130,386.9,130L386.9,130z"/>
	<path class="st0" d="M817.7,183c-10,0-11.6,8.1-11.6,11.3v97.9c-0.3,6.3,5.1,11.6,11.8,11.6c6.7,0,12-5.3,11.8-11.6
		c0,0,0.2-36.4,0-59.7c-0.2-23.3,19.2-28.4,25.9-28.4c5,0,9,2.7,13,2.6c5.9-0.2,10.7-4.1,10.7-10.9c-0.2-11-13.9-12.5-24-12.3
		c-10.1,0.2-18.6,3.2-26,7.6C829.2,191.2,827.6,183,817.7,183L817.7,183z"/>
	<path class="st0" d="M727.1,182.3c-34.6,0-62.7,27.3-62.7,61c0,33.7,28.1,61,62.7,61c34.6,0,62.7-27.3,62.7-61
		C789.8,209.6,761.7,182.3,727.1,182.3z M727.1,281.4c-21.7,0-39.2-17.1-39.2-38.2c0-21.1,17.6-38.1,39.2-38.1
		c21.7,0,39.2,17.1,39.2,38.1C766.3,264.3,748.8,281.4,727.1,281.4z"/>
	<path class="st0" d="M650,289.8c-0.1-49.3,0.1-98.5-0.1-147.7c-0.4-5.5-5.8-10.1-11.4-9.9h0l0,0c-7.2-0.4-12.4,6.6-11.3,13.2v51.2
		c-22.7-18.7-59.7-17.4-80.6,3.3c-21.2,18.5-25.2,52.1-9.8,75.2c11.3,17.5,32,29.9,53.4,28.9c13.4-0.1,26.7-5.8,37-14.2
		c-1.1,6.6,4.2,13.6,11.4,13.2C645.5,303.3,651,296.5,650,289.8z M588.7,280.7c-19.5,0.5-37.3-15.7-38.3-34.6
		c-2.1-19.5,14.3-38.6,34.3-40.2c1.3-0.1,2.6-0.2,4-0.2l0,0c20.5-0.5,38.8,17.6,38.4,37.5C627.6,263.1,609.2,281.2,588.7,280.7z"/>
	<path class="st0" d="M931.9,182.8L931.9,182.8c-15.7,0-27,4.6-35.2,10.4c-12.5,8.8,0.9,27.1,13.4,18.3c5.7-4,9.9-6.1,21.7-6.1
		c14.7,0.3,26.6,5.7,26.6,16.5c-7.9,4.9-42.3,9-60.7,19.3c-18.5,10.3-17.5,23.3-17.5,31.7c0,18.5,19.9,31,37.1,31
		c17.2,0,24.5-3.5,41.4-14.9v3.2c-0.5,15.5,23.5,15.5,23,0v-66.4C981.8,198.2,961.6,183.2,931.9,182.8z M959.2,260.7
		c-0.1,8.8-5.7,12.8-11.5,16.2c-5.9,3.4-17.8,6.3-24.7,6.6c-8,0.3-18.5-1.5-19.1-10.8c0-5.6,2.8-9.1,7.3-13
		c10.8-7.9,25.3-10.6,48.2-15.7l0,0C959.3,251.3,959.4,253.4,959.2,260.7z"/>
	<path class="st0" d="M140.6,74.4l0.1-0.1C63.1,74.2,0.2,136,0,212.2h0V319h0c0,17.3,14.3,31.3,32,31.3h108.8
		c77.7,0,140.6-61.8,140.6-138C281.4,136.1,218.4,74.4,140.6,74.4z M214.9,180.4c-0.7,6.5-6.7,11.2-13.3,10.3
		c-6.6-0.9-11.1-7.1-9.9-13.5c0.1-0.7,0.2-1.9,0.2-3.9c0-13.9-11.6-19.2-22.5-19.2c-10.9,0-20.8,9-20.8,19.2c0.2,11.8,0,23.5,0,35.3
		l20.3-0.1c15.9-0.3,16,23.1,0.2,23l-20.5,0.1c-0.1,9.5,0.1,7.8,0,12.6c0,0,0.2,11.6-0.2,20.4c-2.5,25.9-24.9,46.5-51.9,46.5
		c-28.6,0-52.2-22.9-52.2-51c0.9-28.9,24.4-51.7,54-51.4l16.5-0.1v22.9l-16.5,0.1h-0.1C82,232.1,68,243,67.7,260.1
		c0,15.6,12.8,28,28.7,28c15.9,0,28.6-11.3,28.6-28l0-86.9c0-1.6,0.1-2.9,0.2-4.7c2.7-21.3,22.1-37.5,44-37.5l0,0
		c23.6,0,45.9,17.7,45.9,42.2C215.3,175.6,215.3,177.8,214.9,180.4z"/>
	<path class="st0" d="M493.2,272.1c-5.4,5-13.4,12.4-36,9.9c-9.7-1.1-20.1-8.8-23.6-14.7l74.1-30.9c5.7-2.5,8.3-8.9,5.9-14.5
		c-9.9-19.2-25.6-36.9-48.5-38.6l0,0c-7.6-0.6-16.1,0.6-25.3,4.1c-22.4,8.5-37.7,29.4-37.7,55.2c-0.1,27,19.2,61.9,59.2,62.1
		c26.9,0.2,40.3-9.7,47.6-16.4c4.8-4.2,5.2-11.5,0.8-16.1C505.1,267.7,497.7,267.6,493.2,272.1z M448.1,208.2c3.7-1.3,7.5-2,11.2-2
		c11.1,0,21.7,5.6,27,14.7l-61.7,25.9C420.2,230.7,438.3,211.8,448.1,208.2z"/>
</g>
</svg>
