<?xml version="1.0" encoding="utf-8"?>
<!-- Generator: Adobe Illustrator 23.0.5, SVG Export Plug-In . SVG Version: 6.00 Build 0)  -->
<svg version="1.1" id="Capa_1" xmlns="http://www.w3.org/2000/svg" xmlns:xlink="http://www.w3.org/1999/xlink" x="0px" y="0px"
	 viewBox="0 0 981.7 424.6" style="enable-background:new 0 0 981.7 424.6;" xml:space="preserve">
<style type="text/css">
	.st0{fill:#92E3A9;}
</style>
<g>
	<g>
		<path class="st0" d="M537.9,116.7c14.5-2.3,27-5.9,40.6-11.7c-1.8,29.7-2.6,58.2-1.4,87.1c6.4-11.7,13.1-22.7,26.6-27
			c20.9-6.7,43.3,3.1,50.7,24.7c12.2,35.8,10.2,71.4-8.1,105c-9.4,17.4-25.2,26.9-44.7,29.3c-16.9,2.1-33.8,1-50.4-3.6
			c-3.6-1-7.9-1.1-6.9-7c4.1-22.2,1.8-44.6,2-66.9c0.3-32.4,0-64.7-0.3-97.1C546,138.4,545.3,127.2,537.9,116.7z M576.8,266.8
			c0,10,0.2,20-0.1,30c-0.1,6.2,2.5,8.8,8.7,9.5c20.5,2.4,35.2-7.2,40.9-28.8c5.7-21.5,5.4-43.4,0.5-65.2c-0.9-4-2.7-8.1-4.9-11.6
			c-9.2-15.1-27.4-14.9-36.5,0.4c-4.2,7.1-5.8,15-6.9,23C576.6,238.4,576.3,252.6,576.8,266.8z"/>
		<path class="st0" d="M416.8,322.9c-8.6,0-18.2-0.2-27.7,0.1c-4.4,0.1-5.1-2.2-5.1-5.7c0-4.2,0-8.4,0-13.4
			c-1.9,0.8-3.2,0.9-3.7,1.6c-16,23.6-44.4,25.5-63.4,4.3c-8.8-9.8-13.1-21.8-15.5-34.3c-3.9-20.6-4.2-41.3-0.4-62
			c6.8-36.8,33.6-56.1,70.4-49.2c10.9,2,13.6-0.5,12.6-10.9c-1.1-11.4,0.7-23.2-5-33.9c-2.1-4,0.2-4.8,3.2-5
			c10.8-0.5,20.8-4.8,31.4-7.5C412.6,179.1,407.2,250.6,416.8,322.9z M381.9,233.4c0.2,0,0.5,0,0.7,0c0-12.3-0.3-24.7,0.1-37
			c0.2-6.7-2.6-9.5-8.8-11.1c-18.6-5.1-34.5,2.4-40.4,20.9c-7.8,24.7-6.1,49.6,2.3,73.8c4.8,13.8,15.6,20.3,27.3,18.4
			c11.3-1.8,17.9-10.1,18.6-25.6C382.4,259.6,381.9,246.5,381.9,233.4z"/>
		<path class="st0" d="M843.7,322c-1.6,0.3-2.7,0.7-3.8,0.7c-8.5,0.1-18.3,2.8-25.1-0.6c-8.1-4-0.9-15.7-5-23.4
			c-4.3,1.9-5,6.5-7.5,9.7c-10.6,13.5-24.5,18.1-41,15.2c-16-2.8-24.3-13.4-28.3-28.4c-10.7-39.8,6.8-66,47.5-71.1
			c3.8-0.5,8,0.4,11.4-1c6-2.3,17.5,8.3,17.9-7.1c0.6-20-5.7-29.4-20.2-30.5c-13.9-1.1-26.9,2.2-38.4,9.9c-5.3,3.5-7,3.2-9.1-3.3
			c-5.8-18.1-6.3-18.1,11.6-23.7c16-5,32.4-7.1,49.1-4.5c26,4,36.3,15.4,36.8,41.7c0.4,25.8,0,51.6,0.2,77.5
			C839.9,296.2,838.8,309.3,843.7,322z M810.2,254.1c-1.9-3.5,5.2-11.8-4.3-12.9c-10.6-1.1-21.6-1.4-31.7,3.8
			c-12.5,6.4-17.1,19.7-13,37.2c2.6,11.4,9.3,17.1,20,17.1c12.2-0.1,22.6-9.2,26.5-23.5C809.5,269,810.4,262.2,810.2,254.1z"/>
		<path class="st0" d="M865.3,169.9c7.2-1,12.9-2.1,18.6-2.6c6-0.5,12.8-7.4,16.8-3.3c3.2,3.3,1.1,11.7,1.3,17.8
			c0.1,1.1,0.4,2.3,0.9,5.4c8.9-16.6,21.3-24.9,39.2-24.6c23.8,0.4,35.9,11,36.5,35c0.7,29.3,0.3,58.5,0.4,87.8
			c0,10.4-0.8,20.8,2,31c1.4,5,0.2,7.4-5.4,6.3c-0.4-0.1-0.8-0.1-1.2-0.1c-9.2-0.3-21,2.8-26.7-1.8c-5.3-4.2,0.8-16.3,0.7-25.1
			c-0.3-27.7,0.1-55.5-0.3-83.2c-0.2-18.6-5.2-25.6-17.3-26.5c-14.4-1.1-23.6,7.1-26.8,24.3c-2.7,14.1-1.6,28.4-1.5,42.6
			c0.3,21.5-1.8,43.1,1.5,64.6c0.6,4-0.3,5.9-4.5,5.4c-0.4,0-0.8,0-1.2-0.1c-8.8-0.1-19.8,2.8-25.9-1.3c-6.5-4.4,0.2-15.3,0.1-23.5
			c-0.6-32-0.2-63.9-0.5-95.9C872,191.4,871.5,180.6,865.3,169.9z"/>
		<path class="st0" d="M533.2,296.7c1.9,3.2,0,5.7-0.4,8.2c-2.7,18.5-2.7,18.5-21.4,19.7c-57.7,3.9-84.7-21.1-85.4-79
			c-0.2-17.1,1.4-33.9,8.2-49.7c12.4-28.7,44.4-41.6,73.2-29.4c19.3,8.2,24.9,25.3,26.9,43.8c4.2,37.4,3.9,37.4-33.3,37.4
			c-11.6,0-23.1,0.3-34.6-0.1c-7-0.3-9.2,1.9-8.9,9.2c1.5,37,30.6,56.3,66.2,43.6C527,299.3,530.1,297.9,533.2,296.7z M482.3,227.5
			c6.8-1.7,19.4,4.6,23.1-2.6c4.8-9.4,0.8-21.7-3.8-32.2c-0.3-0.7-0.8-1.3-1.2-2c-2.9-4.9-7.4-7.8-12.9-8.9
			c-8.5-1.6-16.3,0.3-21.6,7.5c-8,10.7-10.6,23.8-7.8,36c1.2,5.3,12.5,1.3,19.1,2.2C478.4,227.6,479.5,227.5,482.3,227.5z"/>
		<path class="st0" d="M674.8,170.6c13.4-1.5,25.5-3.4,36.8-7.8c3.2,3.1,1.2,6.2,1.2,9c-1.1,44.3-2.2,88.6-0.3,133
			c0.2,5.8,5.9,13,0.8,16.9c-3.7,2.8-11.1,0.4-16.9,0.5c-16.8,0.1-16.8,0.2-15.6-15.9c2.7-34.7,2.1-69.4,1.2-104
			C681.7,191.6,682.2,180.5,674.8,170.6z"/>
		<path class="st0" d="M723.5,120.2c-6.1,4.4-10.3,6.6-13.5,9.8c-14.4,14.2-13.7,13.7-28.6,0.2c-9.1-8.2-8.4-13.2,0.3-21
			c14.5-12.9,13.9-13.4,28,0.3C713,112.7,717,115.2,723.5,120.2z"/>
	</g>
	<g>
		<path class="st0" d="M132.4,254c-1.5-4.1-5.4-5.7-8.4-8.1c-11.5-9.6-22-20-25.6-35.2c-4.5-18.9-0.4-35.6,11.4-51.4
			c9-12,19.5-19.4,34.3-20.7c12.6-1.1,23.3,3.1,32.8,11.3c-1.1,1.5-1.9,0.4-2.7,0.1c-32-14.5-66.2,3.7-68.4,38.7
			c-1.9,30.9,23.7,66.3,63.6,60.1c7.8-1.2,15.1-4.7,22.5-8.2c8.4-4,14.4-10.2,21.4-15.4c1-0.8,2.7-1.9,2.7-2.8
			c-0.3-7.2,5.3-11.2,8.6-16.5c3.6-5.9,2.8-12.5,3.3-19.2c2.1-31.1-4.1-59-26.9-81.9c-19.4-19.6-43.2-24.6-69.6-23.7
			c-13.8,0.5-26.1,4.5-37,11.7c-4.2,2.8-8.7,2.5-12.3,4.9c-3.8,2.5-9.8,3-9.6,9.6c0,1.5-1.4,1.3-2.4,1.6c-18,6-28.7,20.5-39.9,34.4
			c0.3,13.7-11.9,23.2-11.9,37.3c0,13.4-3.6,26.8-1.9,40.2c1.5,11.7,4.7,23.2,7.4,34.8c0.9,4,3.4,6.7,7.9,8c6.6,1.8,7.7,8.2,10,13.5
			c-1.9,0.9-2.6-1-3.9-0.9c-0.1,0.3-0.4,0.8-0.3,1c7.1,12.2,8.9,27.1,19.1,37.7c4.2,4.4,7.9,9.1,10.5,14.5c2.3,4.9,7.6,3.9,11,7.2
			c5.5,5.2,8.7,13.5,16.4,15.7c13,3.7,20.7,17.4,35.1,18.3c3.9,0.2,7.7,1.3,11.5,2.4c-9.1,1.2-18.2,0.5-26.9-2.3
			c-49.8-15.5-81.8-50.1-102.2-96.7c-10-22.9-12.6-47.1-12-71.8c0.3-10.3,0.5-20.7,0-31.1c-0.3-6.8,3-13.3,5.6-19.6
			c3.6-8.9,4.9-19.2,14-25.3c1.3-0.9,1.8-3,2.4-4.6c6.3-18.3,19.2-31.9,34.2-42.6c14.9-10.6,31.6-19.1,49.2-25
			c4.6-1.6,10.5-2.9,14.7-1.4c2.9,1.1,6.4,1.4,9.1,3.1c7.7,4.7,15.6-0.1,23.4,0.5c1.1,0.1,2.9-0.4,4.1,0c7.1,2.4,14.5,3.9,21.2,7.4
			c4.8,2.5,9.4,4.6,15,2.6c1.5-0.5,4.2-0.4,5.1,0.6c8,8.9,20.8,10.3,28.9,19.5c8,9.2,16.2,18,21.9,28.9c4.2,8.1,4.3,9.3,2.9,21.5
			c-1.4-2.5-2.4-4.2-3.4-5.9c-1.1-1.7-1.4-4.4-4.7-3.1c-1.4,0.6-3.9-0.6-3.9,2.2c0,2.4,0.3,4.9,2.3,6.6c5.1,4.3,6.1,9,3.3,15.5
			c-0.1,0.2-0.2,0.5-0.2,0.6c4.4,6-0.1,14.4,5.2,19.9c1.7,1.8,0.4,2.9,0,4c-5.3,14-9.6,28.3-15.9,41.9c-0.4,0.9-0.3,2.6-1.9,1.8
			c-3.8-2-4.5,1.7-4.7,3.3c-0.5,5.4-4.5,7.8-7.8,11c-23.5,23.3-51,30-82.6,20.8c-1.7-0.5-3.4-0.7-5.1-1.1L132.4,254z"/>
		<path class="st0" d="M132.2,253.8c7.1,8.8,17.3,9.7,27.4,10.7c2.8,0.3,5.6,0,8.4,0.4c-15.3,4.6-47.2-6.3-50.1-17.1
			c5.5,0.9,8.4,7.3,14.5,6.2C132.4,254,132.2,253.8,132.2,253.8z"/>
	</g>
</g>
</svg>
