<?xml version="1.0" encoding="utf-8"?>
<!-- Generator: Adobe Illustrator 23.0.5, SVG Export Plug-In . SVG Version: 6.00 Build 0)  -->
<svg version="1.1" id="Capa_1" xmlns="http://www.w3.org/2000/svg" xmlns:xlink="http://www.w3.org/1999/xlink" x="0px" y="0px"
	 viewBox="0 0 981.7 424.6" style="enable-background:new 0 0 981.7 424.6;" xml:space="preserve">
<style type="text/css">
	.st0{fill:#92E3A9;}
	.st1{fill:none;}
</style>
<g>
	<path class="st0" d="M325.4,149.9c0,3.1,0,5.6,0,8c0,44.8,0,89.7-0.1,134.5c0,2.3,1.5,5.8-1.5,6.7c-3.9,1.1-8.2,1.1-12.2-0.2
		c-1.6-0.5-1-2.9-1-4.4c0-58.2,0-116.3-0.1-174.5c0-3.4,0.9-4.8,4.6-5c15.5-1,15.4-1.1,20.2,13.9c13.7,43.3,27.5,86.6,41.3,129.9
		c0.5,1.7,1.1,3.3,3.2,4.9c0-2.3,0-4.6,0-7c0-44.8,0.1-89.7-0.1-134.5c0-5.9,1.8-7.4,7.4-7.3c5.2,0.1,7.6,0.7,7.6,7
		c-0.3,57-0.2,114,0,171c0,5.5-1.6,6.9-6.9,6.8c-13.5-0.3-13.5,0-17.5-12.7c-13.9-43.5-27.7-87-41.6-130.5
		C328.1,154.4,328,152.1,325.4,149.9z"/>
	<path class="st0" d="M910.3,207.3c0-28.3,0.2-56.5-0.2-84.8c-0.1-6.3,1.9-7.6,7.8-7.5c18.8,0.4,37.7,0.3,56.5,0
		c4.5,0,5.9,1.2,6,5.8c0.2,15.6,0.3,15.6-15.4,15.6c-11.3,0-22.5,0.2-33.8-0.1c-4.2-0.1-6.1,0.9-6,5.6c0.3,14.5,0.3,28.9,0,43.4
		c-0.1,4.3,1.4,5.4,5.6,5.4c13.8-0.2,27.6,0.1,41.3-0.2c4.3-0.1,6,0.9,6,5.7c0.1,15.7,0.3,15.7-15.2,15.7c-10.6,0-21.1,0.2-31.7-0.1
		c-4.3-0.1-6.1,1-6,5.7c0.2,18.6,0.2,37.2,0,55.8c0,4.2,1.2,5.5,5.4,5.4c15.2-0.2,30.3,0.1,45.5-0.2c4.2-0.1,5.4,1.1,5.5,5.4
		c0.3,15.6,0.4,15.6-15.2,15.6c-16.1,0-32.2-0.3-48.2,0.1c-6,0.1-8.2-1.1-8.1-7.7C910.5,263.8,910.3,235.5,910.3,207.3z"/>
	<path class="st0" d="M422.5,185.3c0-21.4,0.3-42.8-0.2-64.1c-0.1-6.7,3.5-6.1,7.8-6.1c4.3,0,7.7-0.6,7.7,6.1
		c-0.4,35.9-0.2,71.7-0.1,107.6c0,12,0.7,23.9,4.2,35.5c3,9.9,8.8,17.2,19.9,18.5c12.1,1.4,20.8-4,25.3-15.6
		c4.4-11.6,5.2-23.8,5.3-36c0.2-36.3,0.2-72.6,0-109c0-5.8,1.6-7.5,7.3-7.2c5.2,0.2,8.2,0.3,8.1,7.2c-0.4,35.9-0.1,71.7-0.2,107.6
		c-0.1,17-1.2,34-8.2,49.9c-8.2,18.6-23.7,26.7-42.9,22.6c-11.7-2.5-19.4-10-24.5-20.4c-7.3-14.6-8.7-30.4-9.1-46.3
		c-0.4-16.8-0.1-33.6-0.1-50.3C422.6,185.3,422.6,185.3,422.5,185.3z"/>
	<path class="st0" d="M572.7,222c-2.6,6.2-4.7,11.2-6.7,16.2c-7.1,17.7-14.5,35.2-21,53.1c-2.5,6.8-6,9.6-12.9,8.4
		c-2-0.3-4-0.2-6.7-0.4c8.2-20.6,16.2-40.5,24.2-60.5c4.2-10.4,8.2-20.9,12.7-31.2c1.9-4.3,1.9-8,0.1-12.4
		c-9.9-24.2-19.5-48.6-29.4-72.7c-2.2-5.3-2.3-7.3,4.6-7.5c7-0.2,9.9,2.2,12.3,8.6c7.3,19.5,15.4,38.8,23.2,58.2
		c3-0.9,3-3.5,3.8-5.5c7.4-18.3,14.8-36.6,22.2-54.9c2.1-5.3,11.4-8.7,16.4-5.9c3.3,1.8,0.4,4.2-0.2,5.9
		c-10.1,25.6-20.4,51.2-30.8,76.6c-1.7,4.1-1.8,7.5-0.1,11.7c11.9,29.5,23.6,59.2,35.7,90c-5,0-9.2-0.1-13.4,0c-4,0.1-4-3.3-4.9-5.7
		c-8.6-21.5-17.2-43-25.7-64.6C575.1,227.3,574.2,225.4,572.7,222z"/>
	<path class="st0" d="M856.5,218.1c0,24.6-0.2,49.2,0.2,73.8c0.1,6.3-1.7,8-8,8.1c-6.3,0.1-7.5-1.8-7.5-7.7
		c0.2-49.4,0-98.8,0.3-148.2c0-6-1.4-8-7.5-7.6c-8.7,0.6-17.5-0.1-26.2,0.2c-4.4,0.1-6-1-6-5.7c-0.2-15.7-0.4-15.7,15.3-15.7
		c24.1,0,48.3,0.1,72.4-0.1c4.8,0,6.2,1.3,6.2,6.2c-0.1,15.2,0.1,15.2-15,15.2c-6.2,0-12.4,0.3-18.6-0.1c-4.7-0.3-5.7,1.6-5.7,5.9
		C856.6,167.5,856.5,192.8,856.5,218.1z"/>
	<path class="st0" d="M181.4,207.7c0-28.7,0.2-57.4-0.2-86.1c-0.1-6.8,3.3-6.5,8.1-6.6c4.9-0.1,7.2,0.6,7.2,6.5
		c-0.3,49.8,0,99.7-0.3,149.5c0,6.5,1.9,8,8,7.8c13.5-0.5,27.1,0,40.6-0.2c4.1-0.1,5.5,0.9,5.6,5.3c0.2,15.7,0.4,15.7-15.1,15.7
		c-15.8,0-31.7-0.2-47.5,0.1c-5.2,0.1-6.6-1.5-6.5-6.6C181.5,264.7,181.4,236.2,181.4,207.7z"/>
	<path class="st0" d="M688.1,207c0-28.5,0.2-57-0.2-85.4c-0.1-6,2.4-6.6,7.2-6.5c4.7,0.1,8.1-0.3,8.1,6.6
		c-0.3,49.4-0.2,98.7-0.1,148.1c0,10.6-1,8.9,9.3,9c13.1,0.1,26.2,0.2,39.3-0.1c4.2-0.1,5.4,1.2,5.5,5.4
		c0.2,15.6,0.4,15.6-15.3,15.6c-14.9,0-29.9,0-44.8,0c-8.9,0-8.9,0-8.9-9.3C688.1,262.5,688.1,234.8,688.1,207z"/>
	<path class="st0" d="M266.1,207.2c0-28.5,0.2-57-0.1-85.5c-0.1-5.8,2.1-6.9,7.1-6.6c4.5,0.3,8.2-0.6,8.2,6.4
		c-0.3,57.2-0.3,114.5,0,171.7c0,6.8-3.3,6.5-8,6.5c-4.6,0-7.4-0.1-7.3-6.3C266.3,264.6,266.1,235.9,266.1,207.2z"/>
	<path class="st0" d="M787.7,207.6c0,28.5-0.2,57,0.2,85.4c0.1,6.5-2.7,6.8-7.7,6.8c-4.9,0-7.7-0.1-7.7-6.7
		c0.3-57.2,0.3-114.4,0-171.6c0-6.2,2.5-6.7,7.3-6.4c4.4,0.2,8.3-0.9,8.2,6.4C787.4,150.1,787.7,178.8,787.7,207.6z"/>
	<path class="st0" d="M24.7,244.7c0.9,0.7,2.1,1.8,1.3,2.7c-1.3,1.3-2-0.7-3-1.3C23.7,245.6,24.2,245.2,24.7,244.7z"/>
	<path class="st0" d="M89.9,299c0.4,0.1,0.9,0.2,1.3,0.3C90.5,300.5,90.4,298.7,89.9,299C89.9,299,89.9,299,89.9,299z"/>
	<path class="st1" d="M90.3,299.2C90.2,299.1,90.2,299.1,90.3,299.2c-0.1-0.1-0.3-0.1-0.4-0.1c0,0,0,0,0,0
		C90,299.1,90.1,299.1,90.3,299.2z"/>
	<path class="st1" d="M91.1,299.4c-0.3-0.1-0.6-0.2-0.8-0.3C90.5,299.5,90.7,300,91.1,299.4z"/>
	<polygon class="st1" points="89.9,299 89.9,299 89.9,299 	"/>
	<path class="st1" d="M89.9,299C89.9,299,89.9,299,89.9,299C89.9,299,89.9,299,89.9,299C89.9,299,89.9,299,89.9,299z"/>
	<path class="st0" d="M89.9,299c0.1,0,0.2,0.1,0.3,0.1C90.1,299,90,298.9,89.9,299z"/>
	<polygon class="st0" points="89.9,299 89.9,299 89.9,299 89.9,299 	"/>
	<path class="st0" d="M47.6,261.3c2.2-34.9,6.4-69.5,13.2-103.8c4.6-22.9,10.1-45.6,17.6-67.9c-3.8,19.6-7.7,39.1-11.4,58.7
		c-7.2,39.1-12.2,78.5-14.5,118.2c-0.4,7.5,1.2,13.7,6,19.7c9.9,12.4,19.1,25.3,28.6,38c9.5,1.7,19,3.3,28.6,5
		c0.3-0.5,0.5-1,0.8-1.5c-8.5-4.7-17.1-9.3-26.8-14.6c10.8-4.5,20.3-8.4,29.8-12.3c-2.9-1-5.4-0.9-7.9-1.1
		c-6.8-0.5-13.7,1.6-20.5-0.4c-0.4,0.6-0.6,0-0.8-0.3c-0.1,0-0.2-0.1-0.4-0.1c0,0,0,0,0,0c0,0,0,0,0,0c0,0,0,0,0,0c0,0,0,0,0,0
		c5.9-4.7,11.8-9.5,17.8-14c2.7-2,2.7-3.5,0.5-5.9c-6.1-6.9-11.7-14.2-17.9-21c-3.2-3.5-3.8-6.6-2.5-11.1
		c12.9-45.9,25.4-91.9,38.2-137.9c1-3.6,0.9-6.5-1-9.7c-10.6-18.3-21.1-36.5-31.4-55c-2.3-4.2-4-4.1-7.6-1.6
		c-18.9,13-38,25.8-57.1,38.5c-2.9,2-4.5,4.2-5.1,7.6c-7,40-14.1,80-21.4,119.9c-0.7,3.9,0.2,6.5,2.4,9.4
		c6.7,8.7,13.2,17.7,19.7,26.5c0.9,0.7,2.1,1.8,1.3,2.7c-1.3,1.3-2-0.7-3-1.3c-7.4-3.7-14.9-7.4-23.1-11.5c0.4,2,0.6,3.1,0.8,4.2
		c6.5,26.5,13.3,52.9,19.4,79.5c1.5,6.4,3.5,8.1,10,6.8c7.1-1.4,14.4-3.6,22.5-1.5c-6.8,7.4-12.9,14.1-19.1,20.8
		c13.4-3.4,24.9-11.4,38.5-16.8c-1.7,6.9-3.1,12.7-4.5,18.4c-0.3,1.4-2.6,3.1-0.4,4.1c2.4,1.1,2.8-1.6,3.6-3.1
		c3.4-6.5,6.6-13.1,9.9-19.7c-7-13.3-16.4-25-25.6-36.6C48,281.6,46.9,272.3,47.6,261.3z"/>
	<path class="st0" d="M91.1,299.4C91.1,299.4,91.1,299.4,91.1,299.4c-0.2-0.2-0.6-0.2-0.9-0.3c0,0,0,0,0,0
		C90.5,299.2,90.8,299.3,91.1,299.4z"/>
	<path class="st0" d="M87.1,324.3l-6.3,3.2c2.3,0.9,3.3,3.1,4.6,4.9c8.5,11.3,17,22.8,25.6,34.1c4.4,5.8,9.2,11.4,13.8,17.1
		c0.5-0.4,1-0.8,1.5-1.1C114.9,361.9,100,343.7,87.1,324.3z"/>
</g>
</svg>
