<?xml version="1.0" encoding="utf-8"?>
<!-- Generator: Adobe Illustrator 23.0.5, SVG Export Plug-In . SVG Version: 6.00 Build 0)  -->
<svg version="1.1" id="Capa_1" xmlns="http://www.w3.org/2000/svg" xmlns:xlink="http://www.w3.org/1999/xlink" x="0px" y="0px"
	 viewBox="0 0 981.7 424.6" style="enable-background:new 0 0 981.7 424.6;" xml:space="preserve">
<style type="text/css">
	.st0{fill:#92E3A9;}
</style>
<g>
	<path class="st0" d="M709.9,200c3.7,24.4,1.2,48.3,2.1,72.4c-6.4,0-12.2,0-18.1,0c-1.1-1.4-0.5-3.2-0.6-4.8
		c-0.1-16.1-0.1-32.1-0.1-48.2c0-3.7-0.5-7.4-1.3-11c-2-8.8-6-12.4-14.9-13.2c-6-0.5-11.9,0.2-18.1,1.4c0,25.2,0,50.2,0,75.6
		c-6.2,0-12.1,0-18.3,0c0-29.5,0-59.1,0-89c8.4-2.4,17.1-3.9,25.8-4.4c7.4-0.4,14.8-0.9,22.1,1c4.9,1.3,9.1,3.7,13,7
		c4.3-1.8,8.2-4.2,12.6-5.6c7.9-2.6,16-3.3,24.2-2.2c14.3,1.9,23.5,11.6,25.5,26.4c0.9,6.5,1.1,12.9,1.1,19.4c0,15.7,0,31.5,0,47.6
		c-6.2,0-12.1,0-18,0c-0.9-1.7-0.5-3.5-0.5-5.1c-0.1-15.6-0.1-31.2-0.2-46.8c0-5.6-0.3-11.1-2.5-16.4c-2.1-5.2-6-8-11.5-8.6
		C724.3,194.5,716.7,195.8,709.9,200z"/>
	<path class="st0" d="M434.7,272.4c-5.8,0-11.6,0-18,0c0-2,0-3.8,0-5.6c-0.2-16.2,0.5-32.4-0.4-48.6c-0.2-3.7-0.8-7.3-1.7-10.9
		c-1.8-6.8-6.2-10.4-12.9-11.6c-6-1.1-16.2-0.6-23,1.3c0,24.9,0,50,0,75.4c-6.3,0-12.1,0-18.3,0c0-29.6,0-59.3,0-89.2
		c14.8-3.7,29.7-5.8,44.9-4.1c17.1,1.9,27.7,13.4,29.2,32.2c1.6,19.9,0.6,39.8,0.7,59.8C435.2,271.4,434.9,271.8,434.7,272.4z"/>
	<path class="st0" d="M456,180.6c5.9,0,11.7,0,17.4,0c1.3,1.6,0.7,3.4,0.7,5c0.1,16.1,0.1,32.1,0.2,48.2c0,3.9,0.8,7.6,1.8,11.4
		c2,7.5,7.1,11.5,14.5,12.4c7,0.8,14.1,0.5,21.5-1.1c0-25.2,0-50.4,0-75.8c6.2,0,12,0,18.2,0c0,29.6,0,59.1,0,88.9
		c-3.1,1.7-6.9,1.9-10.4,2.6c-11.7,2.2-23.5,3.4-35.4,1.6c-14.4-2.2-23-10.8-26.9-24.6c-1.5-5.2-1.9-10.6-1.9-16
		c-0.1-16.7,0-33.4,0-50C455.7,182.4,455.9,181.6,456,180.6z"/>
	<path class="st0" d="M829.8,183c16.1-3.6,32-6.4,48.3-3.4c13.4,2.5,22.4,11.9,24.9,25.3c1,5.5,1.6,11,1.7,16.6
		c0.1,15.9,0,31.8,0,47.7c0,0.9-0.1,1.8-0.2,3c-6.1,0-12,0-17.9,0c-0.8-1.7-0.4-3.4-0.5-5.1c0-13.4,0-26.9,0-40.3
		c0-6.3-0.3-12.7-1.9-18.8c-2-7.8-6.6-11.7-14.6-12.6c-3.4-0.4-6.8-0.6-10.2-0.2c-3.6,0.5-7.4,0.1-11.4,1.7c0,25,0,50.1,0,75.4
		c-6.3,0-12.1,0-18.2,0C829.8,242.8,829.8,213.2,829.8,183z"/>
	<path class="st0" d="M608,272.5c-6.9-12.4-14.7-24.3-23.5-35.7c-8.9,11.4-16.4,23.4-23.4,35.7c-6.3,0-12.4,0-19.1,0
		c8.6-17.4,20-32.5,31.3-48.3c-10-14.4-19.9-28.7-30.4-43.9c7.2,0,13.3,0,19.4,0c2.1,0,2.8,1.7,3.8,3c5,7.3,9.9,14.5,14.8,21.8
		c1.1,1.7,2.3,3.3,3.4,4.9c1.9-0.4,2.4-2.1,3.2-3.3c5.3-7.6,10.6-15.2,15.7-22.9c1.7-2.5,3.5-3.9,6.7-3.7c4.9,0.3,9.9,0.1,15.9,0.1
		c-10.2,14.7-19.9,28.6-29.8,42.8c11,16,23.1,31.4,32,49.4C621.1,272.5,614.6,272.5,608,272.5z"/>
	<path class="st0" d="M978.1,196.3c-11.7,0-22.6,0-33.2,0c-1.3,1.4-1,2.7-1,3.9c0,12.2-0.1,24.4,0,36.6c0,4.2,0.3,8.3,1.6,12.3
		c1.9,5.7,5.2,8.2,11.2,8.6c6.4,0.4,12.6-0.4,18.5-3.1c0.7-0.3,1.4-0.8,2.5-0.5c2,4.4,2.2,9.6,3.9,14.6c-5.2,3.3-10.9,4.7-16.6,5.3
		c-8.4,0.9-16.9,1.1-24.9-3c-7.7-4-11.4-10.6-13.3-18.5c-1.2-5-1.5-10.1-1.5-15.2c-0.1-26.3,0-52.5,0-78.8c0-0.9,0.1-1.8,0.2-3
		c5.9-1.5,11.8-2.2,18.2-3.3c0,9.2,0,18.2,0,27.8c11.5,0,22.6,0,33.9,0C978.4,185.7,977.9,190.7,978.1,196.3z"/>
	<path class="st0" d="M304.4,259c-0.9,5.2-1.7,10.2-2.6,15.3c-6.7,0.3-13-0.7-18.6-3.6c-7.5-3.9-10-10.9-10.8-18.8
		c-0.2-2.3-0.2-4.6-0.2-6.9c0-33.7,0-67.3,0-101c0-1.5,0-3.1,0-4.9c6-1.6,12-2.1,17.9-3.2c1.2,1.7,0.6,3.4,0.7,5
		c0,33.7,0,67.3,0,101c0,1.4,0,2.8,0,4.2c0.1,8.1,3,11.3,9.8,12C301.7,258.2,302.7,258.6,304.4,259z"/>
	<path class="st0" d="M787.5,180.5c6.5,0,12.2,0,18.2,0c0,30.7,0,61.2,0,91.9c-5.8,0-11.5,0-18.1,0
		C787.3,242,787.6,211.4,787.5,180.5z"/>
	<path class="st0" d="M318.3,272.3c0-30.6,0-60.9,0-91.7c6,0,11.9,0,18.1,0c0,30.6,0,61,0,91.7C330.3,272.3,324.4,272.3,318.3,272.3
		z"/>
	<path class="st0" d="M797,166.3c-6.8,0.1-11.8-4.7-11.9-11.4c-0.1-6.7,5-12.1,11.4-12c6.2,0,11.7,5.3,11.7,11.3
		C808.3,160.9,803.3,166.3,797,166.3z"/>
	<path class="st0" d="M327.4,166.3c-6.8,0-11.6-4.8-11.6-11.6c0-6.8,4.5-11.5,11.5-11.8c6.1-0.2,11.6,5.5,11.6,11.5
		C338.8,161.2,333.9,166.3,327.4,166.3z"/>
	<path class="st0" d="M53.9,152.3c6,0,11.9,0,17.6,0c0.8,1.8,0.4,3.5,0.4,5.2c0,25.2,0,50.4,0,75.6c0,13.7,7.2,21,20.8,21
		c17.5,0,34.9,0,52.4,0c7,0,12.6-2.6,16.6-8.5c1.9-2.8,2.9-5.9,2.9-9.1c0.1-15.6,0.2-31.2,0-46.8c-0.1-5.7-4.1-9.7-9.1-9.7
		c-5.2,0-8.9,3.8-9.3,9.6c-0.1,1.2,0,2.5,0,3.7c0,12.4,0,24.7,0,37.1c0,1.5,0,3,0,4.9c-6.2,0-12.1,0-18.1,0
		c-0.9-1.5-0.5-3.1-0.5-4.5c0-13,0-26,0-38.9c0-7.4-3.3-11.6-8.9-11.8c-5.9-0.2-9.6,4.2-9.6,11.6c0,13,0,26,0,38.9
		c0,1.5,0.3,3.1-0.5,4.8c-5.8,0-11.6,0-17.4,0c-0.9-0.6-0.6-1.6-0.6-2.5c0-14.4-0.2-28.7,0-43.1c0.3-18.7,17.3-32.1,34.6-27.3
		c4.2,1.1,7.9,3.3,11.6,6c3.1-1.6,5.8-4,9.1-5.2c16.8-6,35.6,5,36.9,22.8c1.2,17.8,1.5,35.9-0.2,53.7c-1.8,19.1-16.5,32.3-35.8,32.8
		c-19,0.5-38,0.5-57,0c-20.4-0.5-35.9-16-36.3-36.5c-0.5-27.5-0.1-55-0.1-82.5C53.5,153.1,53.7,152.9,53.9,152.3z"/>
	<path class="st0" d="M236.7,212.3c0,65.4-53,118.4-118.4,118.4S0,277.7,0,212.3S53,93.9,118.4,93.9S236.7,146.9,236.7,212.3z
		 M118.4,112.2c-55.3,0-100.1,44.8-100.1,100.1s44.8,100.1,100.1,100.1s100.1-44.8,100.1-100.1S173.7,112.2,118.4,112.2z"/>
</g>
</svg>
