<?xml version="1.0" encoding="utf-8"?>
<!-- Generator: Adobe Illustrator 23.0.5, SVG Export Plug-In . SVG Version: 6.00 Build 0)  -->
<svg version="1.1" xmlns="http://www.w3.org/2000/svg" xmlns:xlink="http://www.w3.org/1999/xlink" x="0px" y="0px"
	 viewBox="0 0 750 500" style="enable-background:new 0 0 750 500;" xml:space="preserve">
<style type="text/css">
	.st0{fill:#92E3A9;}
	.st1{opacity:0.7;fill:#FFFFFF;}
	.st2{fill:none;stroke:#263238;stroke-linecap:round;stroke-linejoin:round;stroke-miterlimit:10;}
	.st3{fill:#DBDBDB;stroke:#263238;stroke-linecap:round;stroke-linejoin:round;stroke-miterlimit:10;}
	.st4{fill:#FFFFFF;}
	.st5{fill:#263238;stroke:#263238;stroke-linecap:round;stroke-linejoin:round;stroke-miterlimit:10;}
	.st6{fill:#FFFFFF;stroke:#263238;stroke-linecap:round;stroke-linejoin:round;stroke-miterlimit:10;}
	.st7{fill:#92E3A9;stroke:#FFFFFF;stroke-linecap:round;stroke-linejoin:round;stroke-miterlimit:10;}
	.st8{fill:#ABABAB;stroke:#263238;stroke-linecap:round;stroke-linejoin:round;stroke-miterlimit:10;}
	.st9{fill:none;stroke:#FFFFFF;stroke-linecap:round;stroke-linejoin:round;stroke-miterlimit:10;}
	.st10{fill:#263238;}
	.st11{fill:#707070;stroke:#263238;stroke-linecap:round;stroke-linejoin:round;stroke-miterlimit:10;}
	.st12{fill:none;stroke:#B8B8B8;stroke-linecap:round;stroke-linejoin:round;stroke-miterlimit:10;}
	.st13{fill:#A3A3A3;stroke:#263238;stroke-linecap:round;stroke-linejoin:round;stroke-miterlimit:10;}
	.st14{fill:#92E3A9;stroke:#263238;stroke-linecap:round;stroke-linejoin:round;stroke-miterlimit:10;}
</style>
<g id="Background_Simple">
</g>
<g id="Graphics">
</g>
<g id="Table">
</g>
<g id="Device_2">
</g>
<g id="Keyboard">
</g>
<g id="Mouse">
</g>
<g id="Device_1">
</g>
<g id="Plant">
	<g>
		<g>
			<path class="st0" d="M706.4,270.9c-2.8-32.6-12.6-64.7-26.6-94.4C638,87.8,551.9,10.3,448.7,14.2C382.6,16.7,317,25.2,251.2,32
				c-56.2,5.8-112,11.1-156.3,50.1C75.7,99,60.3,120.2,50.8,143.9c-26.4,66-6.7,143.9,35.9,200.8c42.6,56.9,105,95.7,169.2,126.3
				c26.2,12.5,55.5,24,83.4,16.2c17.2-4.8,31.6-16.4,47.9-23.6c54.9-24.3,118.6,4.3,178.3-1.9c35.5-3.7,69.5-20.2,94.3-45.9
				c29.6-30.7,45.3-73.2,47.2-115.8C707.5,290.3,707.3,280.6,706.4,270.9z"/>
			<path class="st1" d="M706.4,270.9c-2.8-32.6-12.6-64.7-26.6-94.4C638,87.8,551.9,10.3,448.7,14.2C382.6,16.7,317,25.2,251.2,32
				c-56.2,5.8-112,11.1-156.3,50.1C75.7,99,60.3,120.2,50.8,143.9c-26.4,66-6.7,143.9,35.9,200.8c42.6,56.9,105,95.7,169.2,126.3
				c26.2,12.5,55.5,24,83.4,16.2c17.2-4.8,31.6-16.4,47.9-23.6c54.9-24.3,118.6,4.3,178.3-1.9c35.5-3.7,69.5-20.2,94.3-45.9
				c29.6-30.7,45.3-73.2,47.2-115.8C707.5,290.3,707.3,280.6,706.4,270.9z"/>
		</g>
		<g>
			<line class="st2" x1="226" y1="61.6" x2="235.5" y2="71.1"/>
			<line class="st2" x1="235.5" y1="61.6" x2="226" y2="71.1"/>
		</g>
		<g>
			<line class="st2" x1="698.8" y1="236.8" x2="708.3" y2="246.3"/>
			<line class="st2" x1="708.3" y1="236.8" x2="698.8" y2="246.3"/>
		</g>
		<g>
			<line class="st2" x1="151" y1="389.4" x2="160.5" y2="398.9"/>
			<line class="st2" x1="160.5" y1="389.4" x2="151" y2="398.9"/>
		</g>
		<g>
			<line class="st2" x1="434.9" y1="26.7" x2="444.4" y2="36.2"/>
			<line class="st2" x1="444.4" y1="26.7" x2="434.9" y2="36.2"/>
		</g>
		<g>
			<line class="st2" x1="441" y1="461.4" x2="450.5" y2="470.9"/>
			<line class="st2" x1="450.5" y1="461.4" x2="441" y2="470.9"/>
		</g>
		<g>
			<line class="st2" x1="542.1" y1="426.6" x2="549.6" y2="434.1"/>
			<line class="st2" x1="549.6" y1="426.6" x2="542.1" y2="434.1"/>
		</g>
		<g>
			<line class="st2" x1="667.3" y1="49.7" x2="674.8" y2="57.2"/>
			<line class="st2" x1="674.8" y1="49.7" x2="667.3" y2="57.2"/>
		</g>
		<path class="st2" d="M349.9,74.3c0-3.3-2.7-6-6-6c-3.3,0-6,2.7-6,6c0,3.3,2.7,6,6,6C347.2,80.3,349.9,77.6,349.9,74.3z"/>
		<path class="st2" d="M62.8,53.8c0-3.3-2.7-6-6-6c-3.3,0-6,2.7-6,6c0,3.3,2.7,6,6,6C60.2,59.8,62.8,57.1,62.8,53.8z"/>
		<path class="st2" d="M653.9,417.3c0-3.3-2.7-6-6-6c-3.3,0-6,2.7-6,6c0,3.3,2.7,6,6,6C651.2,423.3,653.9,420.6,653.9,417.3z"/>
		<path class="st2" d="M161.3,473.7c0-3.3-2.7-6-6-6c-3.3,0-6,2.7-6,6c0,3.3,2.7,6,6,6C158.6,479.6,161.3,477,161.3,473.7z"/>
		<path class="st2" d="M63.2,244.3c0-3.3-2.7-6-6-6c-3.3,0-6,2.7-6,6c0,3.3,2.7,6,6,6C60.5,250.3,63.2,247.6,63.2,244.3z"/>
		<path class="st2" d="M353.8,364.1c0-3.3-2.7-6-6-6c-3.3,0-6,2.7-6,6c0,3.3,2.7,6,6,6C351.2,370.1,353.8,367.4,353.8,364.1z"/>
		<g>
			<line class="st2" x1="724" y1="360.4" x2="735" y2="362.3"/>
			<polyline class="st2" points="167.6,375.5 504.8,323 717,359.2 			"/>
			<line class="st2" x1="20.8" y1="398.3" x2="153" y2="377.8"/>
		</g>
		<g>
			<polygon class="st3" points="591.7,80.6 387.8,105.2 388.2,359.6 593.7,392.4 683.5,373.7 683.9,91.8 			"/>
			<line class="st2" x1="674.2" y1="365.9" x2="608.9" y2="356"/>
			<g>
				<ellipse class="st4" cx="634.9" cy="161.6" rx="29.4" ry="40.4"/>
				<ellipse class="st0" cx="634.9" cy="161.6" rx="26.7" ry="36.6"/>
				<ellipse class="st5" cx="634.9" cy="161.6" rx="9.8" ry="13.4"/>
			</g>
			<polygon class="st5" points="572.3,157.6 447.8,161 447.8,272.2 575.1,286 575.1,160.2 			"/>
			<g>
				<ellipse class="st4" cx="438" cy="207.4" rx="29.4" ry="40.4"/>
				<ellipse class="st0" cx="438" cy="207.4" rx="26.7" ry="36.6"/>
				<ellipse class="st5" cx="438" cy="207.4" rx="9.8" ry="13.4"/>
			</g>
			<g>
				<ellipse class="st4" cx="634.9" cy="243.7" rx="29.4" ry="40.4"/>
				<ellipse class="st0" cx="634.9" cy="243.7" rx="26.7" ry="36.6"/>
				<ellipse class="st5" cx="634.9" cy="243.7" rx="9.8" ry="13.4"/>
			</g>
			<g>
				<ellipse class="st4" cx="634.9" cy="325.9" rx="29.4" ry="40.4"/>
				<ellipse class="st0" cx="634.9" cy="325.9" rx="26.7" ry="36.6"/>
				<ellipse class="st5" cx="634.9" cy="325.9" rx="9.8" ry="13.4"/>
			</g>
			<g>
				<path class="st6" d="M528.4,201.3c-0.5,0-1.1-0.1-1.6-0.4c-4.8-2.4-12-9.8-17-17.5c-4.8-7.4-9.8-18.3-6.2-27.9
					c1.8-4.7,8.9-12.6,49.9-27.2c22-7.8,43.6-13.9,43.8-14c1.9-0.5,3.8,0.6,4.4,2.4c0.5,1.9-0.6,3.8-2.4,4.4
					c-34.9,9.8-85.6,27.7-89,36.9c-2.7,7.2,2.3,16.6,5.5,21.6c5.2,8,11.6,13.7,14.2,15c1.7,0.9,2.5,3,1.6,4.7
					C531,200.6,529.7,201.3,528.4,201.3z"/>
			</g>
			<g>
				<path class="st6" d="M525.9,222.2c-0.7,0-1.4-0.2-2-0.6c-10-6.8-13.8-21-11.1-42.1c1.2-9.7,5.8-18.5,14-26.9
					c11-11.2,28.8-21.8,53-31.4c54-21.4,79.3-14.3,80.4-14c1.9,0.6,2.9,2.5,2.4,4.4c-0.6,1.9-2.5,2.9-4.4,2.4
					c-0.3-0.1-24.6-6.6-75.8,13.8c-39.6,15.7-60.1,32.9-62.6,52.6c-2.3,18.3,0.4,30.2,8.1,35.4c1.6,1.1,2,3.3,1,4.9
					C528.1,221.7,527,222.2,525.9,222.2z"/>
			</g>
			<polygon class="st6" points="521.9,252.2 521.9,258.3 544.1,258.3 547.2,254.5 556.8,254.5 556.8,174.4 547.2,172.5 542.6,168.2 
				525,168.2 521.9,177.4 			"/>
			<rect x="521.9" y="177.4" class="st7" width="15.7" height="74.7"/>
			<g>
				<polygon class="st6" points="584,214.6 547.6,211.9 547.6,246 582.5,251 				"/>
				<line class="st2" x1="548" y1="216.1" x2="583.6" y2="219.1"/>
				<line class="st2" x1="547.6" y1="221.9" x2="583.4" y2="225.9"/>
				<line class="st2" x1="547.8" y1="227.6" x2="583" y2="231.8"/>
				<line class="st2" x1="547.6" y1="233.3" x2="583" y2="237.8"/>
				<line class="st2" x1="547.2" y1="238.2" x2="582.4" y2="243.1"/>
				<line class="st2" x1="547.4" y1="242.8" x2="582.2" y2="248.2"/>
			</g>
			<polygon class="st5" points="547.6,211.9 547.6,191.3 549.9,192.6 549.9,211.9 			"/>
			<polygon class="st5" points="407.6,261.4 407.6,345.4 413.4,346.1 413.4,262.3 			"/>
			<polygon class="st8" points="413.4,262.3 482,258.8 482,268.6 584.6,279.9 584.6,316.1 566.2,321.3 481.1,310.2 481.1,331.7 
				580.9,346.4 580.9,374.2 413.4,346.1 			"/>
			<polygon class="st8" points="482,268.6 413.1,273.4 548.1,283.3 584.6,279.9 			"/>
			<polygon class="st5" points="548.1,283.3 548.1,318.5 566.2,321.3 584.6,316.1 584.6,279.9 			"/>
			<polygon class="st5" points="413.1,273.4 413.1,304 481.1,310.2 548.1,318.5 548.1,283.3 			"/>
			<polyline class="st9" points="441.7,305.5 449.3,291.2 504.3,296.7 508.1,300.7 			"/>
			<g>
				<path class="st6" d="M515.1,287c0,0-7,3.7-5.5,17.8c1.5,14.1,15.3,32.1,25.7,38.6c10.4,6.4,34.9,10.1,38.6,9.8
					c3.7-0.3,5.8-0.6,5.8-0.6v-14.1c0,0-8.9,2.4-18.4,0s-27.9-28.5-30-34c-2.1-5.5,2.8-11.3,2.8-11.3v-4.6L515.1,287z"/>
				<path class="st2" d="M524.3,288.2c0,0-6.1,3.1-3.4,16.5c2.8,13.5,14.4,29.7,27.6,38.3c13.2,8.6,25.1,6.7,25.1,6.7"/>
				<path class="st2" d="M534.1,288.5c0,0-6.3,5.1-5.8,14.1c0.5,8.9,14.4,23.6,20.5,30"/>
				<path class="st2" d="M526.5,290.8c0,0-3,5.5-1.2,15c1.7,9.6,17.5,28.3,27.9,35"/>
				<path class="st2" d="M518.9,287.2c0,0-3.6,1.9-3.2,12.3c0.4,10.4,8.7,27.4,19.6,38.3"/>
				<path class="st2" d="M512.2,301.4c0,0-1.2,10.5,10.5,26.9"/>
				<path class="st2" d="M558,341.8c0,0,10.5,2.4,20.6,3"/>
			</g>
			<polygon class="st6" points="407.6,261.4 455,258.1 482,258.8 413.4,262.3 			"/>
			<polygon class="st5" points="413.9,323 465.9,316.1 465.9,329.4 413.7,340.1 413.4,346.1 481.1,331.7 481.1,310.2 461.5,308.5 
				413.5,311.7 			"/>
			<g>
				<path class="st4" d="M417.3,350.9v12.4c0,3.2,19.8,5.7,44.3,5.7c24.5,0,44.3-2.6,44.3-5.7v-12.4H417.3z"/>
				<ellipse class="st0" cx="461.6" cy="350.9" rx="44.3" ry="5.7"/>
				<path class="st5" d="M469.6,349.8c0,1-5.2,1.8-11.7,1.8s-11.7-0.8-11.7-1.8c0-1,5.2-1.8,11.7-1.8S469.6,348.8,469.6,349.8z"/>
			</g>
			<g>
				<path class="st4" d="M512.1,358.2l-0.4,12.4c-0.1,3.2,19.7,10.1,44.1,10.8c24.5,0.7,44.4-1.3,44.5-4.5l0.4-16.2L512.1,358.2z"/>
				<path class="st0" d="M600.7,360.8c-0.1,3.2-20,5.2-44.5,4.5c-24.5-0.7-44.2-3.8-44.1-7c0.1-3.2,20-5.2,44.5-4.5
					C581,354.5,600.8,357.6,600.7,360.8z"/>
				<path class="st5" d="M564.4,358.7c0,1-5.3,1.6-11.8,1.5c-6.5-0.2-11.7-1.1-11.6-2.1c0-1,5.3-1.6,11.8-1.5
					C559.3,356.7,564.5,357.7,564.4,358.7z"/>
			</g>
			<polygon class="st10" points="412.8,103.4 412.8,117.2 465.5,123.7 629.9,109.5 629.9,88.3 591.7,80.6 			"/>
			<polygon class="st4" points="412.8,117.2 573.7,99.9 629.9,109.5 465.5,123.7 			"/>
			<path class="st6" d="M511.4,233.1h-13.5c-3.9,0-7.1-3.2-7.1-7.1v-21.4c0-3.9,3.2-7.1,7.1-7.1h13.5c3.9,0,7.1,3.2,7.1,7.1V226
				C518.5,230,515.4,233.1,511.4,233.1z"/>
			<path class="st0" d="M508.8,227.2h-8.3c-2.8,0-5-2.3-5-5v-13.6c0-2.8,2.3-5,5-5h8.3c2.8,0,5,2.3,5,5v13.6
				C513.9,224.9,511.6,227.2,508.8,227.2z"/>
			<path class="st5" d="M592.1,73.6l1.2,324.4l93-20.2l0.8-289.6L592.1,73.6z M680.7,369.7l-76.5,15L605,87l75.6,12.5V369.7z"/>
			<path class="st11" d="M592.1,73.6l-209.5,27.5v262.1L593.3,398L592.1,73.6z M393.1,355.9l-1.6-247.6l186.5-20.2l1.2,298.9
				L393.1,355.9z"/>
			<line class="st2" x1="466.9" y1="128" x2="466.9" y2="154.8"/>
		</g>
		<g>
			<path class="st5" d="M259.8,437c0,0,53.2,13.9,58.1,13.6c4.9-0.3,221.8-46.4,223.5-47.3c1.6-1,4.2-6.2,4.2-6.2l-7.8-2.9
				c0,0-71.3-13.9-74.9-13.3c-3.6,0.6-234.5,36.3-236.7,38.6c-2.3,2.3-5.5,4.5-4.5,5.5C222.5,426,259.8,437,259.8,437z"/>
			<g>
				<polyline class="st12" points="235.2,423 311.3,440.9 537,395.1 				"/>
				<polyline class="st12" points="315.5,442.8 318.8,445 542.3,398.4 				"/>
				<polyline class="st12" points="248.9,423.2 251.7,420.7 308.3,434.4 308.6,438.5 				"/>
				<polyline class="st12" points="308.3,434.4 318.5,432.9 321.6,436.8 				"/>
				<polyline class="st12" points="322.6,436.2 323.6,432.8 332.2,430.7 335.1,434 336.3,430.4 356.9,426.2 360,429.9 				"/>
				<polyline class="st12" points="363.1,428.4 364.7,425.2 372.2,423.2 375.4,426.6 				"/>
				<polyline class="st12" points="376.6,426.1 377.5,422.4 383.5,421.2 386.6,423.5 388.5,420.2 395.1,419.1 397.4,421 				"/>
				<polyline class="st12" points="251.7,420.7 260.9,419.3 263.7,420.3 264.7,418 267.2,417.8 271.4,417.8 274.6,417 277.1,415.4 
					283.5,415.4 288.8,415.3 289.8,414 297.5,412.9 302.6,413.8 305.1,410.6 312.8,410.2 315.4,410.4 317.3,409 337,406 341,406.5 
					343.1,404.2 361,402 368.2,403.1 369.7,404.9 				"/>
				<line class="st12" x1="355.6" y1="408.3" x2="367.8" y2="405.7"/>
				<polyline class="st12" points="370.8,405.6 387.4,409.9 375.8,412.7 359.3,409.3 				"/>
				<line class="st12" x1="375.8" y1="412.7" x2="375.8" y2="418.6"/>
				<polyline class="st12" points="395.1,419.1 384.6,416.7 378,417.4 377.2,419.3 				"/>
				<polyline class="st12" points="383.5,421.2 371.7,418.6 367.6,420.3 367,421.3 				"/>
				<line class="st12" x1="377.5" y1="422.4" x2="371" y2="420.9"/>
				<line class="st12" x1="388.5" y1="420.2" x2="380.6" y2="418.7"/>
				<polyline class="st12" points="364.7,425.2 354.6,421.8 362.9,420.5 371.2,422.4 				"/>
				<polygon class="st12" points="353.8,416.7 361.7,419.1 369.8,417.3 362.3,414.8 				"/>
				<polyline class="st12" points="353.8,416.7 351,419.7 354.4,420.9 				"/>
				<line class="st12" x1="369.8" y1="417.3" x2="371.7" y2="418.6"/>
				<line class="st12" x1="356.9" y1="426.2" x2="306.2" y2="414.6"/>
				<line class="st12" x1="266.2" y1="421" x2="316.3" y2="432.6"/>
				<line class="st12" x1="267.8" y1="419.2" x2="322" y2="431.9"/>
				<line class="st12" x1="275.7" y1="418.1" x2="330.2" y2="430"/>
				<polyline class="st12" points="288.5,416.2 332.1,425.9 342,423.9 				"/>
				<polyline class="st12" points="379,417.4 381.1,412.9 406.7,407.8 414.4,409.7 516,391.4 525.6,393.1 529.1,396.3 				"/>
				<polyline class="st12" points="525.6,393.1 425.4,413.4 426.5,416.6 				"/>
				<polyline class="st12" points="430.6,407 440,410 442.5,412.6 				"/>
				<polyline class="st12" points="444.2,404.3 454.8,407.5 456.8,409.8 				"/>
				<polyline class="st12" points="498.2,394.9 507.2,397 509.3,398.8 				"/>
				<polyline class="st12" points="509.9,392.9 517.3,395.1 518.7,397 				"/>
				<polyline class="st12" points="391.6,417.3 393.8,414.8 403.3,417.6 421.5,414.2 412.3,411.2 				"/>
				<line class="st12" x1="421.5" y1="414.2" x2="423" y2="417.3"/>
				<line class="st12" x1="425.4" y1="413.4" x2="417.8" y2="410.8"/>
				<line class="st12" x1="393.8" y1="414.8" x2="409.9" y2="411.7"/>
				<line class="st12" x1="381.9" y1="413.5" x2="387.8" y2="415.3"/>
				<polyline class="st12" points="287.1,420.3 288.5,418.4 293.2,417.3 				"/>
				<polyline class="st12" points="298.6,423.2 299.8,421.3 304,420 				"/>
				<polyline class="st12" points="311.8,425.2 313,424 318.4,423.1 				"/>
				<line class="st12" x1="294.7" y1="430.6" x2="299.5" y2="429.2"/>
				<line class="st12" x1="285.5" y1="428.3" x2="288.7" y2="427.1"/>
				<line class="st12" x1="262.4" y1="422.4" x2="268" y2="421.9"/>
				<line class="st12" x1="271" y1="424.5" x2="276.8" y2="423.8"/>
				<polyline class="st12" points="316.7,417 319.4,414.6 325.7,416.3 325.7,417.7 				"/>
				<polyline class="st12" points="326.7,416.4 333.5,414.9 336,416.6 337.5,413.6 344.7,412 347.5,414.7 349.2,411.7 356.5,410.5 
					359.3,413.1 				"/>
				<polyline class="st12" points="321.8,413.8 348.9,408.6 354,409.7 				"/>
				<line class="st12" x1="333.5" y1="414.9" x2="328.4" y2="412.8"/>
				<line class="st12" x1="337.5" y1="413.6" x2="332.8" y2="412.3"/>
				<line class="st12" x1="349.2" y1="411.7" x2="342.9" y2="410.4"/>
				<line class="st12" x1="315.4" y1="410.4" x2="325.5" y2="413"/>
				<line class="st12" x1="318.1" y1="409.3" x2="329.5" y2="412.4"/>
				<line class="st12" x1="327" y1="408.1" x2="336.8" y2="411.1"/>
				<polyline class="st12" points="330.7,407.3 340.1,410.7 344.7,412 				"/>
				<line class="st12" x1="342.1" y1="407" x2="346.6" y2="408.3"/>
				<polyline class="st12" points="343.1,404.2 353,406.2 353.7,408.7 				"/>
				<line class="st12" x1="363.7" y1="401.1" x2="471.4" y2="383.5"/>
				<line class="st12" x1="373.1" y1="404.3" x2="482.9" y2="385.7"/>
				<line class="st12" x1="381.5" y1="407.3" x2="494.8" y2="387.5"/>
				<line class="st12" x1="409.6" y1="406.9" x2="506.5" y2="389.6"/>
				<line class="st12" x1="455.6" y1="385.9" x2="499.7" y2="394"/>
				<line class="st12" x1="466.4" y1="384.4" x2="506.2" y2="392.5"/>
				<line class="st12" x1="483.3" y1="397.4" x2="449.1" y2="387.7"/>
				<line class="st12" x1="472.2" y1="399.5" x2="441.2" y2="389.8"/>
				<line class="st12" x1="455" y1="402.8" x2="425.2" y2="391.8"/>
				<line class="st12" x1="445.5" y1="404.5" x2="416.5" y2="393.4"/>
				<line class="st12" x1="434.8" y1="406.5" x2="406.6" y2="394.9"/>
				<line class="st12" x1="422.8" y1="408.4" x2="396.1" y2="396.5"/>
				<line class="st12" x1="407.4" y1="408.5" x2="385.2" y2="398.2"/>
				<line class="st12" x1="397" y1="409.8" x2="375.2" y2="399.7"/>
				<line class="st12" x1="292.3" y1="411.5" x2="294.9" y2="408.6"/>
				<line class="st12" x1="303.9" y1="407.1" x2="308.9" y2="409"/>
				<line class="st12" x1="314.6" y1="405.6" x2="320" y2="407.3"/>
				<line class="st12" x1="327.5" y1="403.1" x2="334.2" y2="405.5"/>
				<line class="st12" x1="340.1" y1="401" x2="347.5" y2="402.8"/>
				<line class="st12" x1="350.4" y1="399.3" x2="357.9" y2="401.6"/>
				<line class="st12" x1="361.6" y1="397.4" x2="367.4" y2="399.1"/>
				<line class="st12" x1="387.3" y1="393.4" x2="392.2" y2="394.9"/>
				<line class="st12" x1="397.6" y1="391.7" x2="403.2" y2="393.1"/>
				<line class="st12" x1="406.7" y1="390" x2="412.3" y2="391.1"/>
				<line class="st12" x1="419.4" y1="388.3" x2="425.4" y2="390"/>
				<line class="st12" x1="430.9" y1="386.5" x2="437.7" y2="387.9"/>
				<line class="st12" x1="439.4" y1="384.9" x2="446.2" y2="386.5"/>
				<line class="st12" x1="449" y1="383.5" x2="454.7" y2="385"/>
			</g>
		</g>
		<g>
			<path class="st13" d="M266,442.2c0,0-11.7-15.2-30.8-19.1c-19.1-3.9-29.5,2.9-38.9,8.1c-9.4,5.2-18.5,9.4-17.5,13.3
				c1,3.9,4.2,7.5,7.1,8.8c2.9,1.3,31.1,11.4,44.4,12.6c13.3,1.3,29.2-2.3,34.1-7.1C269.2,453.8,266,442.2,266,442.2z"/>
			<path class="st11" d="M263.1,438.9c-4.6-4.7-14.4-13.1-27.9-15.8c-19.1-3.9-29.5,2.9-38.9,8.1c-1.8,1-3.6,1.9-5.3,2.9
				c2-0.5,15.8-3.5,22.5,0.1c7.1,3.9,20.1,9.4,34.1,9.4C255.4,443.5,260.3,441.2,263.1,438.9z"/>
			<path class="st5" d="M266.9,452.6c-4.7,2.9-11.8,5.7-21,5.4c-18.5-0.6-25.9-12.6-37.6-19.1c-11.7-6.5-29.5,5.5-29.5,5.5
				c1,3.9,4.2,7.5,7.1,8.8c2.9,1.3,31.1,11.4,44.4,12.6c13.3,1.3,29.2-2.3,34.1-7.1C265.9,457.2,266.6,455,266.9,452.6z"/>
		</g>
		<polygon class="st13" points="74.7,87.6 69.8,90.6 96.9,350.8 101.4,348.9 		"/>
		<g>
			<g>
				<path class="st13" d="M229.5,335l-21.2,61.5l49.1-10.5c0,0-8.7-6.1-7.5-15.4c1.2-9.3,13.1-37.7,13.1-37.7L229.5,335z"/>
				<path class="st5" d="M249.8,370.7c1.2-9.3,13.1-37.7,13.1-37.7l-23.5,1.4c-1.9,5.4-12.6,35-13.1,43.3
					c-0.5,7.8,4.1,12.3,6.1,13.7l24.9-5.3C257.3,386.1,248.6,380,249.8,370.7z"/>
			</g>
			<polygon class="st5" points="74.7,87.6 101.4,348.9 404.5,320.7 377.8,122.9 			"/>
			<g>
				<polygon class="st14" points="85.3,98.2 111,337.3 394.9,312.7 372.2,132.4 				"/>
				<g>
					<g>
						
							<ellipse transform="matrix(0.8569 -0.5154 0.5154 0.8569 -60.801 158.0603)" class="st6" cx="254.3" cy="188.6" rx="24" ry="28.5"/>
						
							<ellipse transform="matrix(0.8078 -0.5895 0.5895 0.8078 -55.4817 183.5769)" class="st6" cx="253.7" cy="176.9" rx="7.8" ry="9.9"/>
						<path class="st6" d="M278.9,198.8c-7.4-8.4-17.6-13.4-27-12.2c-9.2,1.1-15.1,8-16.1,17.3c6.8,9,17.7,13.9,27.6,11.4
							C271.4,213.3,277,206.9,278.9,198.8z"/>
					</g>
					<polygon class="st6" points="304.2,243.1 218.7,243.1 216.3,228.2 301.9,228.2 					"/>
				</g>
			</g>
			<polygon class="st6" points="96.9,350.8 403,322.3 404.5,320.7 101.4,348.9 			"/>
			<path class="st5" d="M191.3,421.6c0,0,6.4-6.1,12.7-9c6.3-2.8,32.8-12.9,63-15.3c30.2-2.4,101.7-3.7,106.5-3.9
				c4.8-0.1,10.3-0.6,10.9-2.2c0.6-1.6,0.9-8.9,0.9-8.9l-21.2,7.8l-2.1-2c0,0-23.3-2.2-66.1,1.2c-42.8,3.4-68.8,10-86.3,15.6
				C192.1,410.4,191.3,421.6,191.3,421.6z"/>
			<path class="st11" d="M165.9,409.9l27,9.3c0,0,10.2-14.8,59.5-22.6c49.3-7.8,111.8-6.4,111.8-6.4l21.2-7.8c0,0-81-4.6-133.5,2.3
				C199.3,391.6,172.6,401.7,165.9,409.9z"/>
		</g>
		<path class="st5" d="M165.9,409.9c0,0-8.7,10.7-6.4,11.6c2.3,0.9,28.7,1.2,30.8,0.3c2-0.9,2.6-2.6,2.6-2.6L165.9,409.9z"/>
		<g>
			<path class="st6" d="M65,422l5.3,44.7c0,8.3,13.8,14.9,30.9,14.9s30.9-6.7,30.9-14.9l5.3-44.7H65z"/>
			<ellipse class="st6" cx="101.3" cy="422" rx="36.2" ry="10.3"/>
			<ellipse class="st10" cx="101.3" cy="422" rx="28.2" ry="8"/>
			<g>
				<path class="st10" d="M39,321.7c3.4,0.9,11.1-0.4,11.1-0.4c0.1,0-2.4-4.8-2.6-5.1c-2.2-3.3-8.4-8.4-12.7-7.2
					c-3.1,0.9-4.4,4.3-3.2,7.1C32.7,319.2,36.2,321,39,321.7z"/>
				<path class="st10" d="M117.3,312.1c0.1,0,0.7-5.3,0.7-5.7c0-4-2.4-11.6-6.6-13c-3.1-1-6,1.2-6.6,4.2c-0.6,3.1,1.2,6.5,3.2,8.7
					C110.2,309,117.3,312.1,117.3,312.1z"/>
				<path class="st10" d="M136.3,280.8c-4.4,0.2-8.8,6.9-9.8,10.7c-0.1,0.3-1,5.7-0.9,5.6c0,0,0.1,0,0.1,0c-0.7,1.1-1.4,2.2-2.2,3.5
					c-1.4,2.3-3,5-4.5,8c-1.5,3-3.1,6.3-4.4,10c-1.3,3.6-2.6,7.6-3.3,11.7c0,0,0,0.1,0,0.1c-0.2-1.3-0.7-4.9-0.8-5.2
					c-1.1-3.8-5.4-10.6-9.8-10.7c-3.2-0.1-5.5,2.7-5.3,5.8c0.2,3.1,2.9,5.9,5.4,7.5c2.8,1.8,9.9,3,10.5,3.1c-0.7,4-1,8.1-1.2,12.4
					c-0.1,2.4-0.1,4.8-0.1,7.3c-0.2-1.1-0.3-2.1-0.4-2.2c-1.1-3.8-5.4-10.6-9.8-10.7c-3.2-0.1-5.5,2.7-5.3,5.8
					c0.2,3.1,2.9,5.9,5.4,7.5c2.5,1.7,8.6,2.8,10.2,3c0,0.9,0,1.9,0.1,2.8c0.1,4.5,0.2,9,0.2,13.4c0,1.6-0.1,3.1-0.1,4.6
					c-0.2-1-0.3-1.8-0.3-1.9c-1.1-3.8-5.4-10.6-9.8-10.7c-3.2-0.1-5.5,2.7-5.3,5.8c0.2,3.1,2.9,5.9,5.4,7.5c2.4,1.6,8,2.6,9.9,3
					c-0.1,1.6-0.2,3.1-0.4,4.6c-0.1,1-0.2,2-0.4,3.1c-0.2,1-0.3,2-0.5,3c-0.4,1.9-0.8,3.9-1.2,5.7c-0.3,1.3-0.6,2.5-0.9,3.8
					c0-1.5,0-4.6,0-4.8c-0.3-2.6-1.9-6.7-4.1-9.4c0-0.4-0.1-0.8-0.2-1.1c-0.9-2.9-4.1-4.8-7-3.5c-4.1,1.7-5.7,9.6-5.3,13.5
					c0,0.2,0.5,2.7,0.9,4.3c-0.3-0.9-0.7-1.8-1-2.7c-0.7-1.8-1.5-3.6-2.3-5.5c-0.4-0.9-0.9-1.8-1.3-2.8c-0.4-0.9-1-1.9-1.5-2.8
					c-1.2-2.2-2.5-4.3-3.8-6.5c1.6-0.6,7.2-3,9.3-5.1c2.1-2.1,4.1-5.4,3.6-8.5c-0.5-3-3.3-5.3-6.4-4.5c-4.3,1.1-7.1,8.6-7.3,12.6
					c0,0.2,0.1,3.1,0.2,4.7c-0.8-1.3-1.6-2.6-2.5-3.8c-2.5-3.7-5.2-7.3-7.8-10.9c-0.8-1.1-1.6-2.2-2.4-3.3c0.6-0.2,7.3-2.8,9.6-5.2
					c2.1-2.1,4.1-5.4,3.6-8.5c-0.5-3-3.3-5.3-6.4-4.5c-4.3,1.1-7.1,8.6-7.3,12.6c0,0.3,0.2,4.4,0.3,5.5c-1.8-2.5-3.5-4.9-5.1-7.4
					c-2.2-3.4-4.2-6.9-5.9-10.5c0.3-0.1,7.3-2.8,9.7-5.3c2.1-2.1,4.1-5.4,3.6-8.5c-0.5-3-3.3-5.3-6.4-4.5c-4.3,1.1-7.1,8.6-7.3,12.6
					c0,0.3,0.2,3.4,0.3,4.9c-0.1,0-0.1,0-0.2,0.1c-1.8-3.8-3-7.7-3.9-11.4c-0.6-2.1-1-4.2-1.3-6.3c1.4-0.4,7.6-2.1,10-4.1
					c2.3-1.9,4.7-4.9,4.6-8.1c-0.1-3.1-2.7-5.6-5.9-5.2c-4.4,0.6-8,7.8-8.7,11.7c0,0.2-0.2,2.4-0.2,4c-0.1-0.9-0.3-1.9-0.4-2.8
					c-0.5-3.3-0.7-6.4-0.9-9.1c-0.1-1.6-0.1-3-0.2-4.3c1.1-1.1,5.7-5.4,6.9-8.2c1.2-2.7,1.9-6.5,0.3-9.2c-1.5-2.7-5-3.8-7.6-1.9
					c-3.6,2.6-3.5,10.6-2.3,14.4c0.1,0.3,2.3,5.2,2.4,5.2c0,0,0.1-0.1,0.1-0.1c0,1.3,0,2.6,0.1,4.1c0.1,2.7,0.3,5.8,0.7,9.2
					c0.4,3.3,0.9,7,1.8,10.7c0.9,3.8,2,7.7,3.7,11.6c0,0,0,0.1,0.1,0.1c-0.8-1-3.3-3.7-3.5-3.9c-3-2.6-10.3-5.9-14.1-3.5
					c-2.7,1.7-3.1,5.3-1.2,7.7c1.9,2.5,5.7,3.3,8.6,3.3c3.3,0,9.9-3,10.5-3.2c1.6,3.7,3.6,7.4,5.9,11c1.3,2.1,2.6,4.1,4,6.1
					c-0.8-0.8-1.4-1.6-1.6-1.7c-3-2.6-10.3-5.9-14.1-3.5c-2.7,1.7-3.1,5.3-1.2,7.7c1.9,2.5,5.7,3.3,8.6,3.3c3,0,8.7-2.4,10.2-3.1
					c0.5,0.8,1.1,1.5,1.6,2.3c2.6,3.7,5.2,7.3,7.6,11c0.9,1.3,1.6,2.6,2.4,3.9c-0.7-0.7-1.3-1.4-1.4-1.4c-3-2.6-10.3-5.9-14.1-3.5
					c-2.7,1.7-3.1,5.3-1.2,7.7c1.9,2.5,5.7,3.3,8.6,3.3c2.9,0,8.1-2.2,9.9-3c0.8,1.4,1.6,2.7,2.3,4.1c0.5,0.9,1,1.8,1.4,2.8
					c0.4,0.9,0.8,1.9,1.2,2.8c0.7,1.8,1.5,3.7,2.1,5.5c0.5,1.2,0.9,2.4,1.3,3.6c-0.8-1.3-2.5-3.8-2.7-4c-2.6-3-9.3-7.3-13.4-5.6
					c-3,1.2-3.8,4.7-2.4,7.5c1.5,2.8,5.1,4.1,8,4.6c3.2,0.5,9.9-1.4,10.8-1.6c0.7,2,1.4,3.9,2,5.8c2.1,6.3,3.6,11.6,4.6,15.4l3-0.4
					c0-0.1,0-0.2-0.1-0.2c-1.1-3.8-2.7-9.2-5-15.6c-0.7-2-1.5-4.2-2.3-6.4c0.5-0.3,3.2-1.9,5.6-3.7c2.6,2.1,8.8,4.1,9.6,4.4
					c-0.5,2-1,4-1.5,5.9c-1.7,6.4-3.4,11.7-4.7,15.4l3.3-0.5c1.1-3.6,2.5-8.5,4-14.2c0.5-2.1,1-4.3,1.5-6.6
					c0.9,0.1,7.8,0.4,10.9-0.7c2.8-1.1,6-3.2,6.9-6.2c0.9-3-0.8-6.2-3.9-6.8c-4.4-0.8-10,4.9-11.9,8.4c-0.1,0.2-1.1,2.6-1.6,4.1
					c0.2-0.9,0.4-1.8,0.6-2.8c0.4-1.9,0.7-3.8,1.1-5.9c0.1-1,0.3-2,0.4-3c0.2-1,0.2-2.1,0.3-3.2c0.2-2.5,0.3-5,0.4-7.5
					c1.7,0.3,7.6,1.5,10.5,0.9c2.9-0.6,6.4-2.2,7.7-5.1c1.3-2.8,0.2-6.2-2.8-7.3c-4.2-1.4-10.7,3.3-13.1,6.5c-0.1,0.2-1.6,2.7-2.4,4
					c0-1.5,0-3,0-4.6c-0.1-4.4-0.3-8.9-0.5-13.4c-0.1-1.4-0.1-2.7-0.2-4.1c0.6,0.1,7.6,1.7,10.9,0.9c2.9-0.6,6.4-2.2,7.7-5.1
					c1.3-2.8,0.2-6.2-2.8-7.3c-4.2-1.4-10.7,3.3-13.1,6.5c-0.2,0.2-2.3,3.8-2.8,4.7c-0.1-3-0.2-6-0.2-9c0-4.1,0.3-8.1,0.9-12
					c0.3,0.1,7.6,1.7,11,1c2.9-0.6,6.4-2.2,7.7-5.1c1.3-2.8,0.2-6.2-2.8-7.3c-4.2-1.4-10.7,3.3-13.1,6.5c-0.2,0.2-1.7,2.9-2.5,4.2
					c-0.1,0-0.1,0-0.2-0.1c0.6-4.1,1.8-8.1,3-11.7c0.7-2.1,1.5-4.1,2.3-6c1.3,0.4,7.5,2.4,10.6,2.1c2.9-0.3,6.6-1.5,8.2-4.2
					c1.6-2.6,0.9-6.2-2-7.6c-4-1.9-11,2.1-13.7,5c-0.1,0.2-1.5,1.9-2.4,3.2c0.4-0.9,0.8-1.7,1.2-2.5c1.4-3,2.9-5.7,4.3-8.1
					c0.8-1.3,1.5-2.5,2.2-3.7c1.5-0.3,7.7-1.3,10.3-3c2.5-1.6,5.2-4.4,5.4-7.5C141.8,283.5,139.5,280.7,136.3,280.8z"/>
			</g>
		</g>
	</g>
</g>
</svg>
