<?xml version="1.0" encoding="utf-8"?>
<!-- Generator: Adobe Illustrator 23.0.5, SVG Export Plug-In . SVG Version: 6.00 Build 0)  -->
<svg version="1.1" id="Capa_1" xmlns="http://www.w3.org/2000/svg" xmlns:xlink="http://www.w3.org/1999/xlink" x="0px" y="0px"
	 viewBox="0 0 634 500" style="enable-background:new 0 0 634 500;" xml:space="preserve">
<style type="text/css">
	.st0{fill:#92E3A9;}
	.st1{opacity:0.7;fill:#FFFFFF;enable-background:new    ;}
	.st2{opacity:0.3;}
	.st3{fill:none;stroke:#000000;stroke-linecap:round;stroke-linejoin:round;stroke-miterlimit:10;}
	.st4{fill:#8C8C8C;stroke:#263238;stroke-linecap:round;stroke-linejoin:round;stroke-miterlimit:10;}
	.st5{fill:#949494;stroke:#263238;stroke-linecap:round;stroke-linejoin:round;stroke-miterlimit:10;}
	.st6{fill:#FFFFFF;stroke:#263238;stroke-linecap:round;stroke-linejoin:round;stroke-miterlimit:10;}
	.st7{fill:#263238;stroke:#263238;stroke-linecap:round;stroke-linejoin:round;stroke-miterlimit:10;}
	.st8{fill:#92E3A9;stroke:#263238;stroke-linecap:round;stroke-linejoin:round;stroke-miterlimit:10;}
	.st9{fill:#ABABAB;stroke:#263238;stroke-linecap:round;stroke-linejoin:round;stroke-miterlimit:10;}
	.st10{fill:#757575;stroke:#263238;stroke-linecap:round;stroke-linejoin:round;stroke-miterlimit:10;}
	.st11{fill:none;stroke:#263238;stroke-width:3;stroke-miterlimit:10;}
	.st12{fill:#263238;}
	.st13{fill:#92E3A9;stroke:#263238;stroke-miterlimit:10;}
	.st14{fill:#FFFFFF;stroke:#263238;stroke-miterlimit:10;}
	.st15{fill:#C9C9C9;stroke:#263238;stroke-linecap:round;stroke-linejoin:round;stroke-miterlimit:10;}
	.st16{opacity:0.16;fill:#FFFFFF;enable-background:new    ;}
	.st17{fill:#263238;stroke:#263238;stroke-miterlimit:10;}
	.st18{fill:none;stroke:#263238;stroke-miterlimit:10;}
</style>
<g id="Background_Simple">
</g>
<g id="Blinds">
</g>
<g id="Bookshelves">
</g>
<g id="Lamp">
</g>
<g id="Device">
</g>
<g>
	<g>
		<path class="st0" d="M216.8,19.5C181.9,32.4,155.4,54.1,131,79c-21.7,22.2-39.7,47.1-53.9,73.4c-14.2,26.4-22.3,58.6-1.3,84
			c13.1,15.8,32.3,22.9,50.3,33.4c3.3,1.9,7.9,3.9,7.9,7.8c0,5.9-12.6,12.1-16.9,15.5c-10.6,8.3-20.9,16.9-29.7,26.6
			c-12.9,14.2-22.9,31-24.7,49c-2,19.6,5.7,39.3,18.9,55.5c19,23.5,49.2,41.8,80.8,50.6c16.9,4.7,34.8,6.1,52.5,5.7
			c17.8-0.5,35.8-2.6,53.3-6.2c26.9-5.5,55.1-14.3,83.1-9c30,5.6,59.4,12.2,89.8,16.2c39.1,5.1,95.2,11.5,127.2-13.1
			c23-17.7,33.7-46.3,36.5-71.9c1.7-15.2,1.4-32.3-4.5-46.8c-8-19.7-22.6-37.9-34.1-56.2c-7.1-11.3-13.3-23.3-15.9-36.1
			c-2.8-14.1,2.1-23.2,10.1-35.3c28.7-43.4,52-105.6,21.7-152.4c-9.6-14.7-28-21.5-47.2-22.1c-16.9-0.5-33.6,3.6-49.5,8.6
			c-29.9,9.5-77,33.7-108.5,17.5C358.7,64.4,351.9,45,339,31.4c-13.8-14.6-35-22.1-56.5-23.1C260.5,7.4,237,12.1,216.8,19.5z"/>
		<path class="st1" d="M604.9,396.4c-2.9,25.6-13.6,54.2-36.5,71.9c-32,24.6-88.1,18.2-127.2,13.1c-30.4-4-59.7-10.6-89.8-16.2
			c-28-5.2-56.1,3.5-83.1,9c-17.4,3.5-35.3,5.7-53.3,6.2c-17.7,0.5-35.6-0.9-52.5-5.7c-13.6-3.8-27.1-9.4-39.4-16.4
			c-16.2-9.2-30.7-20.9-41.5-34.2c-13.1-16.1-20.9-35.9-18.9-55.5c1.9-18,11.8-34.8,24.7-49c8.9-9.7,19.1-18.3,29.7-26.6
			c4.3-3.4,16.8-9.6,16.9-15.5c0-3.9-4.7-5.8-7.9-7.8c-18-10.5-37.2-17.7-50.3-33.4C66.6,225.2,63,212.8,63,200.1
			c0-16.3,6.1-33,14.1-47.9c14.2-26.3,32.1-51.2,53.9-73.4c24.4-24.9,50.9-46.6,85.7-59.5c20.2-7.5,43.6-12.1,65.7-11.1
			c21.6,1,42.8,8.4,56.5,23.1c12.8,13.6,19.7,33,37.9,42.3c31.5,16.2,78.7-8,108.5-17.5c15.9-5,32.5-9.1,49.5-8.6
			c19.4,0.7,37.8,7.5,47.4,22.2c30.3,46.8,7,109-21.6,152.3c-8,12.1-12.9,21.3-10.1,35.3c2.4,12.8,8.7,24.8,15.9,36.1
			c11.4,18.3,26,36.5,34.1,56.2C606.3,364.2,606.5,381.3,604.9,396.4z"/>
	</g>
	<g class="st2">
		<polyline class="st3" points="270,26.6 263.8,53 270,53 324.9,53 		"/>
		<line class="st3" x1="592.5" y1="53" x2="329.3" y2="53"/>
		<polyline class="st3" points="594.5,53 592.5,53 329.3,53 		"/>
		<polyline class="st3" points="324.9,53 270,53 263.8,79.5 270,79.5 324.9,79.5 		"/>
		<line class="st3" x1="592.5" y1="79.5" x2="329.3" y2="79.5"/>
		<polyline class="st3" points="594.5,79.5 592.5,79.5 329.3,79.5 		"/>
		<polyline class="st3" points="324.9,79.5 270,79.5 263.8,105.9 270,105.9 324.9,105.9 		"/>
		<line class="st3" x1="592.5" y1="105.9" x2="329.3" y2="105.9"/>
		<polyline class="st3" points="594.5,105.9 592.5,105.9 329.3,105.9 		"/>
		<polyline class="st3" points="324.9,105.9 270,105.9 263.8,132.4 270,132.4 324.9,132.4 		"/>
		<line class="st3" x1="592.5" y1="132.4" x2="329.3" y2="132.4"/>
		<polyline class="st3" points="594.5,132.4 592.5,132.4 329.3,132.4 		"/>
		<polyline class="st3" points="324.9,132.4 270,132.4 263.8,158.9 270,158.9 324.9,158.9 		"/>
		<line class="st3" x1="592.5" y1="158.9" x2="329.3" y2="158.9"/>
		<polyline class="st3" points="594.5,158.9 592.5,158.9 329.3,158.9 		"/>
		<polyline class="st3" points="324.9,158.9 270,158.9 263.8,185.3 270,185.3 324.9,185.3 		"/>
		<line class="st3" x1="592.5" y1="185.3" x2="329.3" y2="185.3"/>
		<polyline class="st3" points="594.5,185.3 592.5,185.3 329.3,185.3 		"/>
		<polyline class="st3" points="324.9,185.3 270,185.3 263.8,211.8 270,211.8 324.9,211.8 		"/>
		<line class="st3" x1="592.5" y1="211.8" x2="329.3" y2="211.8"/>
		<polyline class="st3" points="594.5,211.8 592.5,211.8 329.3,211.8 		"/>
		<polyline class="st3" points="324.9,211.8 270,211.8 263.8,238.2 270,238.2 324.9,238.2 		"/>
		<line class="st3" x1="592.5" y1="238.2" x2="329.3" y2="238.2"/>
		<polyline class="st3" points="594.5,238.2 592.5,238.2 329.3,238.2 		"/>
		<line class="st3" x1="592.5" y1="264.7" x2="329.3" y2="264.7"/>
		<polyline class="st3" points="324.9,264.7 270,264.7 263.8,264.7 270,238.2 324.9,238.2 		"/>
		<polyline class="st3" points="594.5,264.7 592.5,264.7 329.3,264.7 		"/>
		<polyline class="st3" points="324.9,264.7 270,264.7 263.8,291.2 270,291.2 324.9,291.2 		"/>
		<line class="st3" x1="592.5" y1="291.2" x2="329.3" y2="291.2"/>
		<polyline class="st3" points="594.5,291.2 592.5,291.2 329.3,291.2 		"/>
		<polyline class="st3" points="324.9,291.2 270,291.2 263.8,317.6 270,317.6 324.9,317.6 		"/>
		<line class="st3" x1="592.5" y1="317.6" x2="329.3" y2="317.6"/>
		<polyline class="st3" points="594.5,317.6 592.5,317.6 329.3,317.6 		"/>
		<polyline class="st3" points="324.9,317.6 270,317.6 263.8,344.1 592.5,344.1 		"/>
		<polyline class="st3" points="595,353.6 263.8,353.6 263.8,344.1 595,344.1 		"/>
		<polyline class="st3" points="329.3,25.4 329.3,344 324.9,344 324.9,25.4 		"/>
	</g>
	<g>
		<g>
			<path class="st4" d="M162.4,208.3v-8.7c0-2.8-2.4-5.1-5.4-5.1h51c3,0,5.4,2.3,5.4,5.1v8.7c0,2.8-2.4,5.1-5.4,5.1h-51
				C159.9,213.4,162.4,211.1,162.4,208.3z"/>
			<g>
				<path class="st5" d="M111.6,195.3l-0.6-0.4c-0.1-0.1-0.1-0.3,0.1-0.3h45.9c3,0,5.4,2.3,5.4,5.1v8.7c0,2.8-2.4,5.1-5.4,5.1h-45.9
					c-0.2,0-0.2-0.2-0.1-0.3l0.6-0.4C111.6,212.8,111.6,195.3,111.6,195.3z"/>
				<path class="st6" d="M159.7,195.3h-48v17.4h48c1,0,1.7-0.7,1.7-1.6v-14.2C161.4,196,160.7,195.3,159.7,195.3z"/>
			</g>
		</g>
		<g>
			<path class="st4" d="M165.5,189.1v-8.7c0-2.8-2.4-5.1-5.4-5.1h51c3,0,5.4,2.3,5.4,5.1v8.7c0,2.8-2.4,5.1-5.4,5.1h-51
				C163.2,194.2,165.5,191.9,165.5,189.1z"/>
			<g>
				<path class="st5" d="M114.8,176.1l-0.6-0.4c-0.1-0.1-0.1-0.3,0.1-0.3h45.9c3,0,5.4,2.3,5.4,5.1v8.7c0,2.8-2.4,5.1-5.4,5.1h-45.9
					c-0.2,0-0.2-0.2-0.1-0.3l0.6-0.4C114.8,193.6,114.8,176.1,114.8,176.1z"/>
				<path class="st6" d="M162.9,176.1h-48v17.4h48c1,0,1.7-0.7,1.7-1.6v-14.2C164.6,176.8,163.8,176.1,162.9,176.1z"/>
			</g>
		</g>
		<rect x="41.6" y="33.3" class="st7" width="55.5" height="80.7"/>
		<g>
			<rect x="25.5" y="33.4" class="st6" width="18.8" height="81.8"/>
			<rect x="25.5" y="36.8" class="st6" width="18.8" height="9.3"/>
			<rect x="25.5" y="100.8" class="st6" width="18.8" height="9.3"/>
		</g>
		<g>
			<rect x="46.2" y="33.4" class="st4" width="18.8" height="81.8"/>
			<rect x="46.2" y="36.8" class="st6" width="18.8" height="9.3"/>
			<rect x="46.2" y="100.8" class="st6" width="18.8" height="9.3"/>
		</g>
		<g>
			<rect x="66.8" y="33.4" class="st8" width="18.8" height="81.8"/>
			<rect x="66.8" y="36.8" class="st6" width="18.8" height="9.3"/>
			<rect x="66.8" y="100.8" class="st6" width="18.8" height="9.3"/>
		</g>
		<g>
			<rect x="105.2" y="32.7" class="st9" width="29.3" height="81"/>
			<polygon class="st4" points="86.4,33.4 105.2,32.7 108.4,114.4 89.6,115.1 			"/>
			<polygon class="st6" points="86.5,36.7 105.3,36.1 105.7,45.4 86.9,46 			"/>
			<polygon class="st6" points="89,100.8 107.8,100.2 108.2,109.5 89.3,110.1 			"/>
		</g>
		<g>
			<polygon class="st8" points="143.2,34.1 124.6,34 136.7,114 156.9,115.7 			"/>
			<g>
				<polygon class="st0" points="166.3,89.5 157.6,78.6 170.9,85.6 158.8,57.2 171.6,75.5 170.4,42.4 178.3,70 182.9,50.2 
					184.1,73.9 192.8,64.6 188.6,82.1 195.3,77.8 186.6,91.5 				"/>
				<rect x="159.8" y="89.6" class="st6" width="34.8" height="24.9"/>
			</g>
			<polygon class="st8" points="106.9,36.3 125.5,33.8 137.9,114.7 119.3,117.2 			"/>
			<polygon class="st6" points="107.4,39.6 126,37.1 127.4,46.3 108.8,48.8 			"/>
			<polygon class="st6" points="117.1,103 135.7,100.5 137.1,109.7 118.5,112.2 			"/>
		</g>
		<rect x="14.6" y="114.5" class="st7" width="206.6" height="8.9"/>
		<rect x="150.2" y="114.5" class="st10" width="71" height="8.9"/>
		<rect x="14.6" y="213.6" class="st7" width="206.6" height="8.9"/>
		<rect x="150.2" y="213.6" class="st10" width="71" height="8.9"/>
		<g>
			<polygon class="st7" points="96.6,183.2 107.6,213.2 86.2,213.2 			"/>
			<g>
				<polygon class="st7" points="107.7,154.6 57,154.6 37.5,212.5 88.3,212.5 				"/>
				<polygon class="st6" points="102.2,159.1 59.4,159.1 43,208 85.8,208 				"/>
			</g>
		</g>
	</g>
	<g>
		<path class="st11" d="M473.7,451c0,0,37.8-1.1,58.2,4c20.5,5.1,33.2,14.2,51.9,14.2"/>
		<path class="st11" d="M411,86.5C422.4,75,440,66.2,457.1,67c22.2,1,32.8,23.1,28.5,41.4c-2.4,10.5-8.4,20-11.2,30.4
			c-2.6,9.7-3.2,20.5-0.6,30.3c3.4,13,14.6,22,21.2,33.4c7.2,12.3,12.6,27.2,9.4,41.4"/>
		<g>
			<g>
				<polygon class="st12" points="394.1,125.9 398.3,117.5 424.8,129.3 420.6,137.7 				"/>
			</g>
			<g>
				<path class="st12" d="M454.4,444c-2.8,0-5-2.1-5-4.7v-17.2c0-0.4,0.1-0.8,0.2-1.2l62.1-210.5l-92.2-73.3
					c-2.1-1.7-2.3-4.6-0.5-6.6s4.9-2.2,7-0.5l94.6,75.3c1.5,1.2,2.1,3.1,1.6,4.8l-62.8,212.7v16.6C459.4,441.9,457.2,444,454.4,444z
					"/>
			</g>
			<g>
				<path class="st13" d="M433,130.7c-1.6-5.4-7.6-8.5-13.3-6.9c-5.7,1.5-9,7.1-7.3,12.5c1.6,5.4,7.6,8.5,13.3,6.9
					C431.4,141.7,434.7,136.1,433,130.7z"/>
				<path class="st13" d="M428.1,132c-0.9-2.8-4-4.5-7-3.7c-3,0.8-4.8,3.8-3.9,6.6s4,4.5,7,3.7C427.2,137.8,429,134.9,428.1,132z"/>
			</g>
			<g>
				<ellipse class="st13" cx="514.1" cy="208.3" rx="10.7" ry="10.1"/>
				<ellipse class="st13" cx="514.1" cy="208.3" rx="5.6" ry="5.3"/>
			</g>
			<g>
				<path class="st13" d="M354.3,207.9L282.3,141l10.5-10c19.7-18.7,62.4-28.9,82.3-10.5l0,0c19.9,18.5,9.4,58.7-10.3,77.4
					L354.3,207.9z"/>
				<polygon class="st13" points="281.1,138.7 356.8,209.1 346.7,218.7 271,148.3 				"/>
				<polygon class="st13" points="385.3,140.4 353.9,111.1 388.7,83.9 413.9,107.3 				"/>
				<g>
					<polygon class="st12" points="380.1,130.2 394.8,114.7 396.8,116.3 382.1,131.9 					"/>
				</g>
				<g>
					<polygon class="st12" points="362.9,114 379.4,100.1 381.2,101.9 364.7,115.9 					"/>
				</g>
				<polygon class="st14" points="402,87.6 409.9,94.9 405.2,99.3 397.4,92 				"/>
				<polygon class="st13" points="410.7,76.7 421.4,86.6 411.3,96.2 400.6,86.3 				"/>
			</g>
			<path class="st13" d="M428.5,464.2h52.8v-4.9c0-10.4-8.9-18.8-20-18.8h-12.8c-11.1,0-20,8.4-20,18.8L428.5,464.2L428.5,464.2z"/>
			<rect x="385.2" y="455.4" class="st13" width="139.4" height="15.4"/>
		</g>
	</g>
	<g>
		<path class="st15" d="M297.5,459.1H35.9v-149c0-5.8,5-10.5,11.2-10.5h239.2c6.2,0,11.2,4.7,11.2,10.5V459.1z"/>
		<rect id="XMLID_1_" x="46.6" y="312.1" class="st12" width="240.3" height="127.6"/>
		<polygon class="st16" points="268.4,312.1 46.6,312.1 46.6,439.7 247.2,439.7 		"/>
		<rect x="77.4" y="451.4" class="st7" width="179.7" height="8.3"/>
		<rect x="77.4" y="455.4" class="st6" width="179.7" height="4.3"/>
		<path class="st7" d="M14.9,464.7c0,0,3,3.4,11.8,6.2H308c0,0,6.6-1.5,9.5-5.9L14.9,464.7z"/>
		<path class="st15" d="M316.1,465.1H16.3c-1.1,0-2-0.8-2-1.9v-2.7c0-1,0.9-1.9,2-1.9h299.9c1.1,0,2,0.8,2,1.9v2.7
			C318.1,464.2,317.2,465.1,316.1,465.1z"/>
		<path class="st12" d="M169,304.4c0-1.2-1.1-2.2-2.3-2.2c-1.3,0-2.3,1-2.3,2.2s1.1,2.2,2.3,2.2C167.9,306.6,169,305.6,169,304.4z"
			/>
		<path class="st17" d="M38.5,344.5L38.5,344.5c-0.3,0-0.6-0.3-0.6-0.6V326c0-0.3,0.3-0.6,0.6-0.6l0,0c0.3,0,0.6,0.3,0.6,0.6v17.9
			C39.1,344.2,38.8,344.5,38.5,344.5z"/>
		<rect id="XMLID_2_" x="46.6" y="312.1" class="st18" width="240.3" height="127.6"/>
	</g>
	<line class="st18" x1="527.3" y1="470.8" x2="7" y2="470.8"/>
</g>
</svg>
