<?xml version="1.0" encoding="utf-8"?>
<!-- Generator: Adobe Illustrator 23.0.5, SVG Export Plug-In . SVG Version: 6.00 Build 0)  -->
<svg version="1.1" id="Capa_1" xmlns="http://www.w3.org/2000/svg" xmlns:xlink="http://www.w3.org/1999/xlink" x="0px" y="0px"
	 viewBox="0 0 100 100" style="enable-background:new 0 0 100 100;" xml:space="preserve">
<g>
	<path d="M50,21.4c-8.2,0-16.4,0-24.6,0c-2.6,0-4,1.4-4,4c0,16.4,0,32.7,0,49.1c0,2.7,1.4,4,4.1,4c12.7,0,25.4,0,38.1,0
		c2.9,0,4.3,1.4,4.3,4.3c0,4.5,0,8.9,0,13.4c0,1.8-1.1,3.2-2.7,3.6c-1.4,0.4-3-0.3-3.9-1.6c-0.4-0.7-0.6-1.4-0.6-2.2
		c0-3.1,0-6.2,0-9.4c0-0.8-0.2-1-1-1c-1.7,0.1-3.5,0.1-5.2,0c-0.7,0-0.9,0.2-0.9,0.9c0,3.1,0,6.2,0,9.3c0,2.4-1.5,4.1-3.6,4.1
		c-2.1,0-3.6-1.7-3.6-4.1c0-3-0.1-6,0-8.9c0-1.1-0.3-1.3-1.3-1.2c-1.7,0.1-3.3,0.1-5,0c-0.7,0-0.9,0.2-0.9,0.9c0,3.1,0,6.2,0,9.4
		c0,2.4-1.5,4-3.5,4c-2.1,0-3.6-1.6-3.6-4c0-3.1,0-6.2,0-9.3c0-0.8-0.2-1.1-1-1.1c-2.6,0-5.1,0.2-7.7-0.1c-5.2-0.8-9-5-9.1-10.3
		c-0.1-2.2-0.1-4.4,0-6.6c0-0.7-0.2-0.9-0.9-0.9c-3.2,0-6.3,0-9.5,0c-2.3,0-3.9-1.5-3.9-3.5c0-2.1,1.6-3.6,4-3.6c3.1,0,6.2,0,9.4,0
		c0.7,0,1-0.2,1-0.9c-0.1-1.8-0.1-3.6,0-5.4c0-0.8-0.3-0.9-1-0.9c-3.2,0-6.4,0-9.6,0c-1.5,0-2.7-0.7-3.4-2c-0.7-1.3-0.5-2.5,0.3-3.7
		c0.8-1,1.8-1.5,3.1-1.5c3.2,0,6.3,0,9.5,0c0.8,0,1-0.2,1-1c-0.1-1.7-0.1-3.4,0-5.1c0-0.8-0.2-1.1-1-1.1c-3.2,0.1-6.3,0-9.5,0
		c-2.7,0-4.5-2.5-3.5-4.9c0.5-1.4,1.8-2.3,3.5-2.3c3.2,0,6.3,0,9.5,0c0.8,0,1-0.2,1-1.1c0-2.6-0.2-5.1,0.1-7.7c0.8-5.2,5-9,10.3-9.1
		c2.1-0.1,4.2-0.1,6.4,0c0.9,0,1.1-0.3,1.1-1.1c0-3,0-6.1,0-9.2c0-2.4,1.5-4,3.5-4c2.1,0,3.6,1.7,3.6,4.1c0,3.1,0,6.2,0,9.3
		c0,0.7,0.2,1,0.9,0.9c1.7-0.1,3.4-0.1,5.1,0c1,0.1,1.1-0.3,1.1-1.2c-0.1-3,0-6.1,0-9.2c0-2.3,1.5-4,3.6-4c2,0,3.5,1.7,3.5,3.9
		c0,3.1,0,6.2,0,9.4c0,0.8,0.2,1,1,1c1.7-0.1,3.5-0.1,5.2,0c0.7,0,1-0.2,0.9-0.9c0-3.1,0-6.2,0-9.4c0-2.4,1.5-4,3.6-4
		c2.1,0,3.6,1.7,3.6,4c0,3,0.1,6,0,9c0,1.1,0.3,1.2,1.3,1.3c2.5,0,5-0.2,7.5,0.1c5.2,0.8,8.9,5,9.1,10.3c0.1,2.1,0.1,4.2,0,6.4
		c0,0.8,0.2,1.1,1,1.1c3.1-0.1,6.2,0,9.3,0c2.4,0,4,1.5,4,3.6c0,2.1-1.7,3.6-4,3.6c-3.1,0-6.2,0-9.3,0c-0.9,0-1.1,0.2-1,1.1
		c0.1,1.7,0.1,3.5,0,5.2c0,0.7,0.2,0.9,0.9,0.9c3.2,0,6.5,0,9.7,0c1.8,0,3.2,1.1,3.6,2.8c0.4,1.5-0.3,3.1-1.7,3.9
		c-0.7,0.4-1.4,0.5-2.1,0.5c-3.1,0-6.2,0-9.4,0c-0.7,0-1,0.1-1,0.9c0.1,1.8,0.1,3.6,0,5.4c0,0.8,0.3,0.9,1,0.9c3.1,0,6.2,0,9.4,0
		c2.3,0,4,1.5,4,3.6c0,2-1.6,3.5-3.9,3.5c-3.1,0-6.2,0-9.4,0c-0.8,0-1,0.2-1,1c0,2.7,0.3,5.4-0.2,8c-0.5,3.1-2.2,5.6-4.9,7.2
		c-1.7,1.1-3.9,0.6-4.9-1c-1-1.6-0.7-3.7,1-4.8c1.4-1,2-2.2,1.9-3.9c0-16.2,0-32.4,0-48.5c0-3.1-1.3-4.4-4.4-4.4
		C66.1,21.4,58,21.4,50,21.4C50,21.4,50,21.4,50,21.4z"/>
	<path d="M71.4,50.1c0,3.5,0,7.1,0,10.6c-0.1,5-3.2,9.1-8,10.3c-1,0.3-2,0.4-3,0.4c-7,0-14.1,0-21.1,0c-5.1,0-9.4-3.4-10.5-8.2
		c-0.2-1-0.3-2-0.3-3c0-6.8,0-13.5,0-20.3c0-6.9,4.5-11.4,11.4-11.4c6.7,0,13.5,0,20.2,0c6.7,0,11.2,4.6,11.3,11.3
		C71.5,43.3,71.4,46.7,71.4,50.1C71.4,50.1,71.4,50.1,71.4,50.1z M35.7,50C35.7,50,35.7,50,35.7,50c0,3.5,0,6.9,0,10.4
		c0,2.4,1.4,3.9,3.9,3.9c7,0,13.9,0,20.9,0c2.4,0,3.8-1.4,3.8-3.8c0-7,0-13.9,0-20.9c0-2.5-1.4-3.9-3.9-3.9c-7,0-13.9,0-20.9,0
		c-2.4,0-3.8,1.4-3.8,3.8C35.7,43,35.7,46.5,35.7,50z"/>
</g>
</svg>
