<?xml version="1.0" encoding="utf-8"?>
<!-- Generator: Adobe Illustrator 23.0.5, SVG Export Plug-In . SVG Version: 6.00 Build 0)  -->
<svg version="1.1" id="Capa_1" xmlns="http://www.w3.org/2000/svg" xmlns:xlink="http://www.w3.org/1999/xlink" x="0px" y="0px"
	 viewBox="0 0 781.7 712.5" style="enable-background:new 0 0 781.7 712.5;" xml:space="preserve">
<style type="text/css">
	.st0{fill:#92E3A9;}
	.st1{opacity:0.7;fill:#FFFFFF;}
	.st2{fill:#263238;}
	.st3{fill:#FFFFFF;stroke:#263238;stroke-width:0.9663;stroke-linecap:round;stroke-linejoin:round;stroke-miterlimit:10;}
	.st4{fill:#263238;stroke:#263238;stroke-width:0.9663;stroke-linecap:round;stroke-linejoin:round;stroke-miterlimit:10;}
	.st5{fill:none;stroke:#263238;stroke-width:0.9663;stroke-miterlimit:10;}
	.st6{fill:none;stroke:#263238;stroke-width:0.9663;stroke-linecap:round;stroke-linejoin:round;stroke-miterlimit:10;}
	.st7{fill:none;stroke:#B2B2B2;stroke-width:0.9737;stroke-miterlimit:10;}
	.st8{fill:#92E3A9;stroke:#263238;stroke-width:0.9663;stroke-miterlimit:10;}
	.st9{fill:#FFFFFF;}
	.st10{fill:#525252;}
	.st11{fill:#757575;}
	.st12{fill:#CCCCCC;}
	.st13{fill:#FFFFFF;stroke:#263238;stroke-width:0.9663;stroke-miterlimit:10;}
	.st14{fill:#696969;stroke:#263238;stroke-width:0.9663;stroke-miterlimit:10;}
	.st15{fill:#C4C4C4;}
	.st16{fill:#969696;}
	.st17{opacity:0.3;}
	.st18{fill:none;stroke:#FFFFFF;stroke-width:0.9663;stroke-miterlimit:10;}
	.st19{fill:#263238;stroke:#263238;stroke-width:0.9663;stroke-miterlimit:10;}
	.st20{opacity:0.3;fill:#FFFFFF;}
	.st21{fill:#A8A8A8;stroke:#263238;stroke-width:0.9663;stroke-linecap:round;stroke-linejoin:round;stroke-miterlimit:10;}
	.st22{fill:#263238;stroke:#595959;stroke-width:0.4832;stroke-miterlimit:10;}
	.st23{fill:#3C464C;}
	.st24{fill:#FFFFFF;stroke:#263238;stroke-width:1.0585;stroke-linecap:round;stroke-linejoin:round;stroke-miterlimit:10;}
</style>
<g>
	<g>
		<path class="st0" d="M724.6,107.1C686.5,39.8,607.2,5.2,528,0.6c-87.8-5.1-167.9,22.7-226.4,83.7c-23.2,24.2-44.1,50.3-69.9,72.4
			c-44.2,37.9-99.7,69-138.3,111.8c-48.8,54.2-55.5,139.4,0.3,191.4c19.4,18,43.4,31.2,68.1,42.2c60.9,27,127.4,41.6,194.3,49.6
			c75.4,9,154,9.5,225.2-15.4C738.3,481.2,780.1,301,746,161.9C741.3,143,734.3,124.3,724.6,107.1z"/>
		<path class="st1" d="M724.6,107.1C686.5,39.8,607.2,5.2,528,0.6c-87.8-5.1-167.9,22.7-226.4,83.7c-23.2,24.2-44.1,50.3-69.9,72.4
			c-44.2,37.9-99.7,69-138.3,111.8c-48.8,54.2-55.5,139.4,0.3,191.4c19.4,18,43.4,31.2,68.1,42.2c60.9,27,127.4,41.6,194.3,49.6
			c75.4,9,154,9.5,225.2-15.4C738.3,481.2,780.1,301,746,161.9C741.3,143,734.3,124.3,724.6,107.1z"/>
	</g>
	<ellipse class="st2" cx="111.5" cy="597.3" rx="46.7" ry="13"/>
	<g>
		<path class="st3" d="M99.5,598.2h22.9c14.2,0,26.1-10.8,27.4-25l6.9-76.4H65.2l6.9,76.4C73.4,587.4,85.3,598.2,99.5,598.2z"/>
		<g>
			<path class="st3" d="M99.5,598.2h22.9c14.2,0,26.1-10.8,27.4-25l6.9-76.4H65.2l6.9,76.4C73.4,587.4,85.3,598.2,99.5,598.2z"/>
			<path class="st4" d="M72.1,573.2l-0.4-4l42,7.6l-35.4,11.5C74.9,584.2,72.6,579,72.1,573.2z"/>
			<polygon class="st4" points="149.7,573.3 108.1,555.4 153.8,528.5 			"/>
			<polygon class="st4" points="119.5,526.9 69.7,547 65.9,504.4 			"/>
		</g>
		<g>
			<path class="st3" d="M66.3,496.9c0,3.4,19.9,6.1,44.5,6.1c24.6,0,44.5-2.8,44.5-6.1c0-3.4-19.9-6.1-44.5-6.1
				C86.2,490.8,66.3,493.5,66.3,496.9z"/>
			<path class="st4" d="M110.8,503c-17.3,0-32.3-1.4-39.6-3.4c4.3-2.8,22.2-4.8,43.5-4.8c17.3,0,32.3,1.4,39.6,3.4
				C150,501,132.1,503,110.8,503z"/>
		</g>
		<path class="st2" d="M157.6,413.9c-0.4-0.7-1.4-1-2.1-0.6l-31,17.9l16.1-31.8c0.4-0.8,0.1-1.7-0.7-2.1c-0.8-0.4-1.7-0.1-2.1,0.7
			l-14.4,28.5c0.8-25.8-2.3-56.1-3.9-72.1c-0.6-5.5-0.9-9.4-0.9-10.7c0-0.8-0.7-1.5-1.5-1.5c-0.8,0-1.5,0.7-1.5,1.5
			c0,1.5,0.4,5.3,1,11c1.7,17.2,5.1,50.8,3.6,77.3l-28-33.3c-0.5-0.6-1.5-0.7-2.2-0.2c-0.6,0.5-0.7,1.5-0.2,2.2l29.9,35.5
			c0,0,0,0,0.1,0c0,0,0,0.1,0.1,0.1c0,0,0.1,0,0.1,0.1c-0.6,7.7-1.7,14.7-3.5,20.3l-22.2-21.5c-0.6-0.6-1.6-0.6-2.2,0
			c-0.6,0.6-0.6,1.6,0,2.2l23.2,22.5c-1.6,4.4-2.8,8.7-3.7,12.7l-0.1,0l-27.3-14.6c-0.7-0.4-1.7-0.1-2.1,0.6
			c-0.4,0.7-0.1,1.7,0.6,2.1l28,14.9c0.1,0,0.1,0,0.2,0.1c-1.6,8.5-1.7,15.7-1.5,21.1c0,0.8,0.7,1.5,1.5,1.5c0,0,0.1,0,0.1,0
			c0.8,0,1.5-0.8,1.5-1.6c-0.3-5.5-0.1-13.2,1.7-22.1l24-12c0.8-0.4,1.1-1.3,0.7-2.1c-0.4-0.8-1.3-1.1-2.1-0.7l-21.8,10.9
			c0.9-3.5,2-7.1,3.4-10.8c2.4-6.3,3.8-14.8,4.5-24.3l34.1-19.7C157.8,415.6,158.1,414.6,157.6,413.9z"/>
		<path class="st0" d="M120,389.1c0,0,17.1-15,19.3-28.9c2.1-13.9-5.4-23.6-3.2-30c2.1-6.4,8.6-17.1,3.2-25.7
			c-5.4-8.6-32.1-28.9-32.1-28.9s-1.1,10.7-6.4,19.3c-5.4,8.6-2.1,19.3,0,26.8c2.1,7.5-11.8,16.1-4.3,26.8
			c7.5,10.7,7.5,11.8,7.5,20.4C103.9,377.4,108.2,387,120,389.1z"/>
		<path class="st0" d="M101.8,411.6c0,0,3.2-8.6-2.1-16.1c-5.4-7.5-10.7-3.2-12.9-11.8c-2.1-8.6-5.4-13.9-10.7-18.2
			c-5.4-4.3-5.4-3.2-9.6-6.4c-4.3-3.2-5.4-7.5-9.6-10.7c-4.3-3.2-13.9-4.3-13.9-4.3s3.2,8.6,3.2,13.9c0,5.4-4.3,13.9,2.1,20.4
			c6.4,6.4,11.8,4.3,16.1,11.8C68.5,397.7,75,410.6,101.8,411.6z"/>
		<path class="st0" d="M103.9,444.8c0,0,1.1-13.9-11.8-19.3c-12.9-5.4-15-20.4-28.9-23.6c-13.9-3.2-24.6,0-25.7,8.6
			c-1.1,8.6-1.1,19.3-1.1,19.3s6.4-10.7,12.9-9.6s10.7,0,18.2,11.8C75,443.8,93.2,451.3,103.9,444.8z"/>
		<path class="st0" d="M98.5,468.4c-3.2-1.1-9.6-21.4-28.9-23.6c-19.3-2.1-45,6.4-45,6.4s11.8,6.4,28.9,15
			C70.7,474.8,98.5,468.4,98.5,468.4z"/>
		<path class="st0" d="M122.1,467.3c0,0,8.6-20.4,22.5-24.6c13.9-4.3,18.2,2.1,25.7,7.5c7.5,5.4,12.9,8.6,12.9,8.6
			s-8.6-3.2-17.1,5.4c-8.6,8.6-20.4,10.7-31.1,9.6C124.3,472.7,122.1,467.3,122.1,467.3z"/>
		<path class="st0" d="M142.5,422.3c0,0,0-5.4,6.4-17.1s7.5-23.6,20.4-25.7c12.9-2.1,13.9-3.2,21.4-8.6c7.5-5.4,25.7,4.3,30,8.6
			c4.3,4.3,6.4,7.5,6.4,7.5s-13.9-1.1-19.3,5.4c-5.4,6.4-17.1,11.8-22.5,13.9c-5.4,2.1-10.7-2.1-16.1,6.4
			C163.9,421.3,159.6,424.5,142.5,422.3z"/>
		<path class="st0" d="M133.9,407.3c0,0-9.6-16.1-5.4-24.6c4.3-8.6,12.9-11.8,11.8-17.1c-1.1-5.4-5.4-11.8,0-19.3
			c5.4-7.5,9.6-4.3,16.1-8.6c6.4-4.3,16.1-12.9,16.1-12.9s2.1,22.5,0,33.2s-8.6,11.8-8.6,20.4c0,8.6-4.3,13.9-9.6,20.4
			C148.9,405.2,133.9,407.3,133.9,407.3z"/>
		<g>
			<line class="st5" x1="56.1" y1="361.7" x2="51" y2="356.1"/>
			<line class="st5" x1="101.8" y1="411.6" x2="63.4" y2="369.7"/>
			<path class="st6" d="M114.5,296.4c-0.5-2.4-1.1-4.5-1.8-6.3"/>
			<path class="st6" d="M120,389.1c0,0,0.9-50.5-3.5-81.9"/>
			<line class="st5" x1="164.2" y1="345.3" x2="167.6" y2="338.5"/>
			<line class="st5" x1="133.9" y1="407.3" x2="159.4" y2="355.2"/>
			<path class="st5" d="M201.1,381.3c1.3-0.2,2.6-0.3,3.8-0.3c7.5,0,7.5,0,7.5,0"/>
			<path class="st5" d="M142.5,422.3c1.7,0.3,11.3-12.5,27.8-25.3c7.9-6.1,14.4-10,19.9-12.4"/>
			<path class="st5" d="M39.9,416.6c-2.2,3.5-2.2,6.5-2.2,6.5"/>
			<path class="st5" d="M103.9,444.8c0,0-9.3-1.5-25.8-18.5c-15.3-15.8-27.9-17.9-33.9-14.2"/>
			<path class="st5" d="M162.8,452.5c2.6,0.4,4.9,1.1,6.8,1.5"/>
			<path class="st5" d="M122.1,467.3c0,0,3.4,1.6,16.7-8.5c5.6-4.3,10.8-6.1,15.3-6.6"/>
			<path class="st5" d="M40.3,452.2c-4.6,0-7.5,0.3-7.5,0.3"/>
			<path class="st5" d="M98.5,468.4c0,0-1.8-2.2-22.5-10.1c-9.9-3.8-20.2-5.3-28.2-5.9"/>
		</g>
	</g>
	<g>
		<g>
			<path class="st7" d="M754.4,447.8H736v-5c0-0.3-0.2-0.6-0.6-0.6h-20.1c-0.3,0-0.6,0.2-0.6,0.6v5h-5.8c-0.6,0-1.1,0.5-1.1,1.1
				v28.4h47.8v-28.4C755.6,448.3,755,447.8,754.4,447.8z"/>
			<path class="st7" d="M754.4,491.5H736v-5c0-0.3-0.2-0.6-0.6-0.6h-20.1c-0.3,0-0.6,0.2-0.6,0.6v5h-5.8c-0.6,0-1.1,0.5-1.1,1.1V521
				h47.8v-28.4C755.6,492,755,491.5,754.4,491.5z"/>
			<path class="st7" d="M754.4,535.2H736v-5c0-0.3-0.2-0.6-0.6-0.6h-20.1c-0.3,0-0.6,0.2-0.6,0.6v5h-5.8c-0.6,0-1.1,0.5-1.1,1.1
				v28.4h47.8v-28.4C755.6,535.7,755,535.2,754.4,535.2z"/>
		</g>
		<g>
			<g>
				<path class="st7" d="M666.6,73l-6.6-0.5c0-2.3-0.3-4.5-0.6-6.7l6.4-1.7c1-0.3,1.6-1.3,1.3-2.3l-0.8-3c-0.3-1-1.3-1.6-2.3-1.3
					l-6.4,1.7c-0.8-2.1-1.7-4.2-2.8-6.1l5.5-3.7c0.9-0.6,1.1-1.8,0.5-2.6l-1.7-2.6c-0.6-0.9-1.8-1.1-2.6-0.5l-5.5,3.7
					c-1.4-1.7-3-3.4-4.6-4.9l4-5.3c0.6-0.8,0.5-2-0.4-2.7l-2.5-1.9c-0.8-0.6-2-0.5-2.7,0.4l-4,5.3c-1.9-1.2-3.9-2.2-6-3.1l2.1-6.3
					c0.3-1-0.2-2.1-1.2-2.4l-2.9-1c-1-0.3-2.1,0.2-2.4,1.2l-2.1,6.3c-1.9-0.5-3.9-0.8-5.9-0.9v-6.7c0-1-0.8-1.9-1.9-1.9h-3.1
					c-1,0-1.9,0.8-1.9,1.9v6.7c-2.3,0.2-4.5,0.6-6.6,1.1l-2.2-6.3c-0.3-1-1.4-1.5-2.4-1.2l-2.9,1c-1,0.3-1.5,1.4-1.2,2.4l2.2,6.3
					c-2.1,0.9-4,2-5.9,3.2l-4.1-5.2c-0.6-0.8-1.8-1-2.7-0.3l-2.4,1.9c-0.8,0.6-1,1.8-0.3,2.7l4.1,5.2c-1.6,1.5-3.2,3.2-4.5,5
					l-5.6-3.6c-0.9-0.6-2.1-0.3-2.6,0.6l-1.7,2.6c-0.6,0.9-0.3,2.1,0.6,2.6l5.6,3.6c-1.1,2-1.9,4-2.7,6.2l-6.4-1.6
					c-1-0.3-2,0.4-2.3,1.4l-0.7,3c-0.3,1,0.4,2,1.4,2.3l6.4,1.6c-0.3,2.1-0.5,4.3-0.5,6.6c0,0,0,0.1,0,0.1l-6.6,0.6
					c-1,0.1-1.8,1-1.7,2.1l0.3,3.1c0.1,1,1,1.8,2.1,1.7l6.6-0.6c0.4,2.2,0.9,4.4,1.7,6.5l-6.1,2.7c-1,0.4-1.4,1.5-1,2.5l1.3,2.8
					c0.4,1,1.5,1.4,2.5,1l6.1-2.7c1.1,2,2.3,3.8,3.7,5.6l-4.9,4.5c-0.8,0.7-0.8,1.9-0.1,2.7l2.1,2.3c0.7,0.8,1.9,0.8,2.7,0.1
					l4.9-4.5c1.7,1.5,3.4,2.9,5.3,4.1l-3.1,5.9c-0.5,0.9-0.1,2.1,0.8,2.6l2.7,1.5c0.9,0.5,2.1,0.1,2.6-0.8l3.1-5.9
					c2,0.9,4.2,1.6,6.4,2.1l-1,6.6c-0.2,1,0.5,2,1.6,2.2l3.1,0.5c1,0.2,2-0.5,2.2-1.6l1-6.6c1,0.1,2,0.1,3,0.1
					c1.3,0,2.5-0.1,3.7-0.2l1.2,6.6c0.2,1,1.2,1.7,2.2,1.5l3.1-0.5c1-0.2,1.7-1.2,1.5-2.2l-1.2-6.5c2.2-0.6,4.3-1.3,6.3-2.2l3.2,5.8
					c0.5,0.9,1.7,1.2,2.6,0.7l2.7-1.5c0.9-0.5,1.2-1.7,0.7-2.6l-3.2-5.8c1.9-1.3,3.6-2.7,5.2-4.2l4.9,4.5c0.8,0.7,2,0.6,2.7-0.1
					l2.1-2.3c0.7-0.8,0.6-2-0.1-2.7l-4.9-4.4c1.4-1.8,2.6-3.7,3.6-5.7l6.1,2.6c1,0.4,2.1,0,2.5-1l1.2-2.9c0.4-1,0-2.1-1-2.5
					l-6.1-2.6c0.7-2.1,1.2-4.3,1.6-6.5l6.6,0.5c1,0.1,1.9-0.7,2-1.8l0.2-3.1C668.5,73.9,667.7,73,666.6,73z M618.9,96.1
					c-12.7,0-23.1-10.3-23.1-23.1S606.2,50,618.9,50c12.7,0,23.1,10.3,23.1,23.1S631.7,96.1,618.9,96.1z"/>
			</g>
			<g>
				<path class="st7" d="M726.2,106.4l-4.4-0.3c0-1.5-0.2-3-0.4-4.4l4.2-1.1c0.7-0.2,1.1-0.9,0.9-1.5l-0.5-2
					c-0.2-0.7-0.9-1.1-1.5-0.9l-4.2,1.1c-0.5-1.4-1.1-2.7-1.8-4l3.6-2.4c0.6-0.4,0.7-1.2,0.3-1.7l-1.1-1.7c-0.4-0.6-1.2-0.7-1.7-0.3
					l-3.6,2.4c-0.9-1.1-1.9-2.2-3-3.2l2.6-3.5c0.4-0.5,0.3-1.3-0.2-1.7l-1.6-1.2c-0.5-0.4-1.3-0.3-1.7,0.2l-2.6,3.5
					c-1.2-0.8-2.5-1.5-3.9-2l1.3-4.1c0.2-0.7-0.1-1.4-0.8-1.6l-1.9-0.6c-0.7-0.2-1.4,0.1-1.6,0.8l-1.3,4.1c-1.3-0.3-2.6-0.5-3.9-0.6
					v-4.4c0-0.7-0.6-1.2-1.2-1.2h-2c-0.7,0-1.2,0.6-1.2,1.2v4.4c-1.5,0.1-2.9,0.4-4.3,0.7l-1.4-4.1c-0.2-0.6-0.9-1-1.6-0.8l-1.9,0.7
					c-0.6,0.2-1,0.9-0.8,1.6l1.4,4.1c-1.4,0.6-2.6,1.3-3.9,2.1l-2.7-3.4c-0.4-0.5-1.2-0.6-1.7-0.2l-1.6,1.3
					c-0.5,0.4-0.6,1.2-0.2,1.7l2.7,3.4c-1.1,1-2.1,2.1-3,3.2l-3.7-2.4c-0.6-0.4-1.3-0.2-1.7,0.4l-1.1,1.7c-0.4,0.6-0.2,1.3,0.4,1.7
					l3.7,2.4c-0.7,1.3-1.3,2.6-1.8,4l-4.2-1.1c-0.7-0.2-1.3,0.2-1.5,0.9l-0.5,2c-0.2,0.7,0.2,1.3,0.9,1.5l4.2,1.1
					c-0.2,1.4-0.3,2.8-0.3,4.3c0,0,0,0.1,0,0.1l-4.3,0.4c-0.7,0.1-1.2,0.7-1.1,1.3l0.2,2c0.1,0.7,0.7,1.2,1.3,1.1l4.3-0.4
					c0.3,1.5,0.6,2.9,1.1,4.3l-4,1.8c-0.6,0.3-0.9,1-0.6,1.6l0.8,1.9c0.3,0.6,1,0.9,1.6,0.6l4-1.8c0.7,1.3,1.5,2.5,2.4,3.7l-3.2,3
					c-0.5,0.5-0.5,1.3-0.1,1.8l1.4,1.5c0.5,0.5,1.3,0.5,1.8,0.1l3.2-3c1.1,1,2.3,1.9,3.5,2.7l-2,3.8c-0.3,0.6-0.1,1.4,0.5,1.7l1.8,1
					c0.6,0.3,1.4,0.1,1.7-0.5l2-3.8c1.3,0.6,2.7,1,4.2,1.4l-0.7,4.3c-0.1,0.7,0.4,1.3,1,1.4l2,0.3c0.7,0.1,1.3-0.4,1.4-1l0.7-4.3
					c0.7,0,1.3,0.1,2,0.1c0.8,0,1.6,0,2.4-0.1l0.8,4.3c0.1,0.7,0.8,1.1,1.4,1l2-0.4c0.7-0.1,1.1-0.8,1-1.4l-0.8-4.3
					c1.4-0.4,2.8-0.9,4.1-1.5l2.1,3.8c0.3,0.6,1.1,0.8,1.7,0.5l1.8-1c0.6-0.3,0.8-1.1,0.5-1.7l-2.1-3.8c1.2-0.8,2.4-1.7,3.4-2.7
					l3.2,2.9c0.5,0.5,1.3,0.4,1.8-0.1l1.4-1.5c0.5-0.5,0.4-1.3-0.1-1.8l-3.2-2.9c0.9-1.2,1.7-2.4,2.4-3.7l4,1.7
					c0.6,0.3,1.4,0,1.6-0.7l0.8-1.9c0.3-0.6,0-1.4-0.7-1.6l-4-1.7c0.5-1.4,0.8-2.8,1-4.3l4.3,0.3c0.7,0,1.3-0.5,1.3-1.2l0.1-2
					C727.4,107,726.9,106.4,726.2,106.4z M695,121.6c-8.3,0-15.1-6.8-15.1-15.1c0-8.3,6.8-15.1,15.1-15.1c8.3,0,15.1,6.8,15.1,15.1
					C710.1,114.8,703.3,121.6,695,121.6z"/>
			</g>
		</g>
		<g>
			<g>
				<path class="st7" d="M276.6,61.3h-128c-2.6,0-4.7-2.1-4.7-4.7l0,0c0-2.6,2.1-4.7,4.7-4.7h128c2.6,0,4.7,2.1,4.7,4.7l0,0
					C281.3,59.2,279.2,61.3,276.6,61.3z"/>
				<circle class="st7" cx="260.5" cy="56.6" r="4.8"/>
			</g>
			<g>
				<path class="st7" d="M276.6,44.9h-128c-2.6,0-4.7-2.1-4.7-4.7l0,0c0-2.6,2.1-4.7,4.7-4.7h128c2.6,0,4.7,2.1,4.7,4.7l0,0
					C281.3,42.8,279.2,44.9,276.6,44.9z"/>
				<circle class="st7" cx="200.6" cy="40.1" r="4.8"/>
			</g>
		</g>
	</g>
	<ellipse class="st2" cx="420.7" cy="605.2" rx="262.6" ry="20.9"/>
	<rect id="XMLID_24_" x="156.9" y="116.1" class="st8" width="533.7" height="307.8"/>
	<g>
		<rect x="174.6" y="306.4" class="st9" width="172.1" height="72.7"/>
		<g>
			<rect x="174.6" y="302.4" class="st2" width="172.1" height="12.3"/>
			<g>
				<path class="st0" d="M182.2,308.6c0,1.1-0.9,1.9-1.9,1.9s-1.9-0.9-1.9-1.9c0-1.1,0.9-1.9,1.9-1.9S182.2,307.5,182.2,308.6z"/>
				<circle class="st0" cx="188.9" cy="308.6" r="1.9"/>
				<circle class="st0" cx="197.5" cy="308.6" r="1.9"/>
			</g>
		</g>
		<g>
			<rect x="195.1" y="323.7" class="st0" width="36.9" height="15.4"/>
			<rect x="183.9" y="334.4" class="st10" width="59.4" height="30.7"/>
			<rect x="195.1" y="334.4" class="st11" width="36.9" height="10.2"/>
			<rect x="195.1" y="349.8" class="st2" width="36.9" height="15.4"/>
			<rect x="195.1" y="358.5" class="st0" width="36.9" height="15.4"/>
		</g>
		<rect x="254.5" y="348.8" class="st12" width="37.9" height="13.3"/>
		<rect x="298.6" y="348.8" class="st0" width="37.9" height="13.3"/>
		<g>
			<path class="st2" d="M256.5,328.4c1.7,0,2.3,1,2.3,2.6v1.2c0,1.7-0.8,2.6-2.5,2.6H255v4.4h-0.7v-10.8H256.5z M256.3,334.1
				c1.2,0,1.8-0.6,1.8-1.9V331c0-1.2-0.4-1.9-1.6-1.9H255v5H256.3z"/>
			<path class="st2" d="M262.1,328.4c1.6,0,2.3,0.9,2.3,2.4v0.9c0,1.3-0.5,2-1.6,2.2c1.1,0.2,1.6,1,1.6,2.2v1.7c0,0.4,0,0.9,0.3,1.3
				H264c-0.2-0.3-0.2-0.7-0.2-1.3v-1.7c0-1.4-0.8-1.8-2-1.8h-1.1v4.8h-0.7v-10.8H262.1z M261.7,333.7c1.3,0,2-0.4,2-1.8v-1
				c0-1.2-0.4-1.8-1.6-1.8h-1.5v4.7H261.7z"/>
			<path class="st2" d="M266.6,328.4v10.8h-0.7v-10.8H266.6z"/>
			<path class="st2" d="M268.4,339.2h-0.6v-10.8h0.9l3.2,9.1v-9.1h0.6v10.8h-0.8l-3.4-9.6V339.2z"/>
			<path class="st2" d="M275.6,339.2v-10.1h-2.2v-0.6h5.1v0.6h-2.2v10.1H275.6z"/>
			<path class="st2" d="M283,333.4v0.6h-2.9v4.5h3.5v0.6h-4.2v-10.8h4.2v0.6h-3.5v4.3H283z"/>
			<path class="st2" d="M287,328.4c1.6,0,2.3,0.9,2.3,2.4v0.9c0,1.3-0.5,2-1.6,2.2c1.1,0.2,1.6,1,1.6,2.2v1.7c0,0.4,0,0.9,0.3,1.3
				h-0.7c-0.2-0.3-0.2-0.7-0.2-1.3v-1.7c0-1.4-0.8-1.8-2-1.8h-1.1v4.8h-0.7v-10.8H287z M286.6,333.7c1.3,0,2-0.4,2-1.8v-1
				c0-1.2-0.4-1.8-1.6-1.8h-1.5v4.7H286.6z"/>
		</g>
	</g>
	<g>
		<rect id="XMLID_23_" x="386.7" y="133.9" class="st2" width="221.8" height="137.8"/>
		<rect id="XMLID_22_" x="386.7" y="133.9" class="st9" width="221.8" height="127.9"/>
		<rect id="XMLID_21_" x="386.7" y="133.9" class="st12" width="51.8" height="127.9"/>
		<g>
			<rect id="XMLID_20_" x="386.7" y="131" class="st2" width="221.8" height="35.9"/>
			<g>
				<path class="st0" d="M397.8,137.8c0,1.2-1,2.1-2.1,2.1c-1.2,0-2.1-1-2.1-2.1c0-1.2,1-2.1,2.1-2.1
					C396.8,135.7,397.8,136.6,397.8,137.8z"/>
				<circle class="st0" cx="405.2" cy="137.8" r="2.1"/>
				<path class="st0" d="M417,137.8c0,1.2-1,2.1-2.1,2.1c-1.2,0-2.1-1-2.1-2.1c0-1.2,1-2.1,2.1-2.1C416,135.7,417,136.6,417,137.8z"
					/>
			</g>
		</g>
		<path class="st13" d="M595.7,154.8h-46.6c-3.4,0-6.2-2.8-6.2-6.2l0,0c0-3.4,2.8-6.2,6.2-6.2h46.6c3.4,0,6.2,2.8,6.2,6.2l0,0
			C601.9,152,599.1,154.8,595.7,154.8z"/>
		<rect x="517.4" y="143.4" class="st14" width="13.3" height="9.5"/>
		<rect x="490.9" y="143.4" class="st14" width="13.3" height="9.5"/>
		<rect x="391.9" y="143.4" class="st14" width="13.3" height="9.5"/>
		<rect x="406.2" y="143.4" class="st14" width="13.3" height="9.5"/>
		<g>
			<path class="st12" d="M469,194.2h-22.3v-13c0-0.4,0.3-0.8,0.8-0.8h20.8c0.4,0,0.8,0.3,0.8,0.8V194.2z"/>
			<path class="st12" d="M459.5,183h-9.2c-0.2,0-0.4-0.2-0.4-0.4v-4.4c0-0.2,0.2-0.4,0.4-0.4h9.2c0.2,0,0.4,0.2,0.4,0.4v4.4
				C459.8,182.8,459.7,183,459.5,183z"/>
		</g>
		<g>
			<path class="st12" d="M516.7,194.2h-22.3v-13c0-0.4,0.3-0.8,0.8-0.8H516c0.4,0,0.8,0.3,0.8,0.8V194.2z"/>
			<path class="st12" d="M507.2,183H498c-0.2,0-0.4-0.2-0.4-0.4v-4.4c0-0.2,0.2-0.4,0.4-0.4h9.2c0.2,0,0.4,0.2,0.4,0.4v4.4
				C507.6,182.8,507.4,183,507.2,183z"/>
		</g>
		<g>
			<path class="st12" d="M564.5,194.2h-22.3v-13c0-0.4,0.3-0.8,0.8-0.8h20.8c0.4,0,0.8,0.3,0.8,0.8V194.2z"/>
			<path class="st12" d="M555,183h-9.2c-0.2,0-0.4-0.2-0.4-0.4v-4.4c0-0.2,0.2-0.4,0.4-0.4h9.2c0.2,0,0.4,0.2,0.4,0.4v4.4
				C555.3,182.8,555.2,183,555,183z"/>
		</g>
		<g>
			<path class="st12" d="M469,225.5h-22.3v-13c0-0.4,0.3-0.8,0.8-0.8h20.8c0.4,0,0.8,0.3,0.8,0.8V225.5z"/>
			<path class="st12" d="M459.5,214.3h-9.2c-0.2,0-0.4-0.2-0.4-0.4v-4.4c0-0.2,0.2-0.4,0.4-0.4h9.2c0.2,0,0.4,0.2,0.4,0.4v4.4
				C459.8,214.2,459.7,214.3,459.5,214.3z"/>
		</g>
		<g>
			<path class="st12" d="M516.7,225.5h-22.3v-13c0-0.4,0.3-0.8,0.8-0.8H516c0.4,0,0.8,0.3,0.8,0.8V225.5z"/>
			<path class="st12" d="M507.2,214.3H498c-0.2,0-0.4-0.2-0.4-0.4v-4.4c0-0.2,0.2-0.4,0.4-0.4h9.2c0.2,0,0.4,0.2,0.4,0.4v4.4
				C507.6,214.2,507.4,214.3,507.2,214.3z"/>
		</g>
		<g>
			<path class="st15" d="M594.7,267.1h-39.2c-0.6,0-1.1-0.5-1.1-1.1l0,0c0-0.6,0.5-1.1,1.1-1.1h39.2c0.6,0,1.1,0.5,1.1,1.1l0,0
				C595.7,266.7,595.3,267.1,594.7,267.1z"/>
			<path class="st2" d="M564.1,266c0,0.8-0.6,1.4-1.4,1.4s-1.4-0.6-1.4-1.4c0-0.8,0.6-1.4,1.4-1.4S564.1,265.3,564.1,266z"/>
		</g>
	</g>
	<g>
		<rect id="XMLID_19_" x="445.3" y="305.7" class="st2" width="218.6" height="105.4"/>
		<rect id="XMLID_18_" x="445.3" y="305.7" class="st9" width="218.6" height="95.7"/>
		<g>
			<rect id="XMLID_17_" x="445.3" y="302.9" class="st2" width="218.6" height="35.4"/>
			<g>
				<path class="st0" d="M456.2,309.6c0,1.2-0.9,2.1-2.1,2.1c-1.2,0-2.1-0.9-2.1-2.1c0-1.2,0.9-2.1,2.1-2.1
					C455.3,307.4,456.2,308.4,456.2,309.6z"/>
				<path class="st0" d="M465.7,309.6c0,1.2-0.9,2.1-2.1,2.1c-1.2,0-2.1-0.9-2.1-2.1c0-1.2,0.9-2.1,2.1-2.1
					C464.7,307.4,465.7,308.4,465.7,309.6z"/>
				<path class="st0" d="M475.1,309.6c0,1.2-0.9,2.1-2.1,2.1s-2.1-0.9-2.1-2.1c0-1.2,0.9-2.1,2.1-2.1S475.1,308.4,475.1,309.6z"/>
			</g>
		</g>
		<path class="st13" d="M653.9,326.3H603c-2,0-3.6-1.6-3.6-3.6v-5c0-2,1.6-3.6,3.6-3.6h50.9c2,0,3.6,1.6,3.6,3.6v5
			C657.5,324.7,655.9,326.3,653.9,326.3z"/>
		<rect x="450.5" y="315" class="st14" width="13.1" height="9.4"/>
		<rect x="464.5" y="315" class="st14" width="13.1" height="9.4"/>
		<rect x="480" y="315" class="st14" width="24.6" height="9.4"/>
		<polygon class="st16" points="503,392.7 484,392.7 487.9,387 487.9,381.8 499.1,381.8 499.1,387.2 		"/>
		<rect x="466" y="341.5" class="st12" width="55.1" height="44.3"/>
		<rect x="466" y="341.5" class="st2" width="55.1" height="36.4"/>
		<rect x="469.2" y="345.5" class="st0" width="48.6" height="28.5"/>
		<path class="st16" d="M647.9,362.1H543.6c-0.7,0-1.2-0.6-1.2-1.2v-1.7c0-0.7,0.6-1.2,1.2-1.2h104.3c0.7,0,1.2,0.6,1.2,1.2v1.7
			C649.2,361.6,648.6,362.1,647.9,362.1z"/>
		<path class="st12" d="M636.5,360c0-3.1-2.5-5.6-5.6-5.6c-3.1,0-5.6,2.5-5.6,5.6c0,3.1,2.5,5.6,5.6,5.6
			C634,365.6,636.5,363.1,636.5,360z"/>
	</g>
	<g>
		<rect x="174.6" y="129.9" class="st2" width="153.9" height="159.6"/>
		<rect x="174.6" y="129.9" class="st9" width="153.9" height="12.8"/>
		<g>
			<g>
				<path class="st0" d="M188.8,153.5h-4.5c-0.6,0-1.1-0.5-1.1-1.1c0-0.6,0.5-1.1,1.1-1.1h4.5c0.6,0,1.1,0.5,1.1,1.1
					C189.9,153,189.4,153.5,188.8,153.5z M189.9,157.5c0-0.6-0.5-1.1-1.1-1.1h-4.5c-0.6,0-1.1,0.5-1.1,1.1c0,0.6,0.5,1.1,1.1,1.1
					h4.5C189.4,158.6,189.9,158.1,189.9,157.5z M189.9,162.6c0-0.6-0.5-1.1-1.1-1.1h-4.5c-0.6,0-1.1,0.5-1.1,1.1
					c0,0.6,0.5,1.1,1.1,1.1h4.5C189.4,163.7,189.9,163.2,189.9,162.6z M189.9,167.8c0-0.6-0.5-1.1-1.1-1.1h-4.5
					c-0.6,0-1.1,0.5-1.1,1.1c0,0.6,0.5,1.1,1.1,1.1h4.5C189.4,168.9,189.9,168.4,189.9,167.8z M189.9,172.9c0-0.6-0.5-1.1-1.1-1.1
					h-4.5c-0.6,0-1.1,0.5-1.1,1.1c0,0.6,0.5,1.1,1.1,1.1h4.5C189.4,174,189.9,173.5,189.9,172.9z M189.9,178c0-0.6-0.5-1.1-1.1-1.1
					h-4.5c-0.6,0-1.1,0.5-1.1,1.1s0.5,1.1,1.1,1.1h4.5C189.4,179.1,189.9,178.7,189.9,178z M189.9,183.2c0-0.6-0.5-1.1-1.1-1.1h-4.5
					c-0.6,0-1.1,0.5-1.1,1.1s0.5,1.1,1.1,1.1h4.5C189.4,184.3,189.9,183.8,189.9,183.2z M189.9,188.3c0-0.6-0.5-1.1-1.1-1.1h-4.5
					c-0.6,0-1.1,0.5-1.1,1.1s0.5,1.1,1.1,1.1h4.5C189.4,189.4,189.9,188.9,189.9,188.3z M206.7,152.4c0-0.6-0.5-1.1-1.1-1.1h-11.8
					c-0.6,0-1.1,0.5-1.1,1.1c0,0.6,0.5,1.1,1.1,1.1h11.8C206.2,153.5,206.7,153,206.7,152.4z M206.7,157.5c0-0.6-0.5-1.1-1.1-1.1
					h-11.8c-0.6,0-1.1,0.5-1.1,1.1c0,0.6,0.5,1.1,1.1,1.1h11.8C206.2,158.6,206.7,158.1,206.7,157.5z M206.7,162.6
					c0-0.6-0.5-1.1-1.1-1.1h-11.8c-0.6,0-1.1,0.5-1.1,1.1c0,0.6,0.5,1.1,1.1,1.1h11.8C206.2,163.7,206.7,163.2,206.7,162.6z
					 M206.7,167.8c0-0.6-0.5-1.1-1.1-1.1h-11.8c-0.6,0-1.1,0.5-1.1,1.1c0,0.6,0.5,1.1,1.1,1.1h11.8
					C206.2,168.9,206.7,168.4,206.7,167.8z M206.7,172.9c0-0.6-0.5-1.1-1.1-1.1h-11.8c-0.6,0-1.1,0.5-1.1,1.1c0,0.6,0.5,1.1,1.1,1.1
					h11.8C206.2,174,206.7,173.5,206.7,172.9z M220.9,178c0-0.6-0.5-1.1-1.1-1.1h-11.8c-0.6,0-1.1,0.5-1.1,1.1s0.5,1.1,1.1,1.1h11.8
					C220.4,179.1,220.9,178.7,220.9,178z M220.9,183.2c0-0.6-0.5-1.1-1.1-1.1h-11.8c-0.6,0-1.1,0.5-1.1,1.1s0.5,1.1,1.1,1.1h11.8
					C220.4,184.3,220.9,183.8,220.9,183.2z M220.9,188.3c0-0.6-0.5-1.1-1.1-1.1h-11.8c-0.6,0-1.1,0.5-1.1,1.1s0.5,1.1,1.1,1.1h11.8
					C220.4,189.4,220.9,188.9,220.9,188.3z M211.9,152.4c0-0.7-0.6-1.3-1.3-1.3c-0.7,0-1.3,0.6-1.3,1.3c0,0.7,0.6,1.3,1.3,1.3
					C211.3,153.6,211.9,153.1,211.9,152.4z M215.8,152.4c0-0.7-0.6-1.3-1.3-1.3c-0.7,0-1.3,0.6-1.3,1.3c0,0.7,0.6,1.3,1.3,1.3
					C215.2,153.6,215.8,153.1,215.8,152.4z M219.6,152.4c0-0.7-0.6-1.3-1.3-1.3c-0.7,0-1.3,0.6-1.3,1.3c0,0.7,0.6,1.3,1.3,1.3
					C219,153.6,219.6,153.1,219.6,152.4z M223.5,152.4c0-0.7-0.6-1.3-1.3-1.3c-0.7,0-1.3,0.6-1.3,1.3c0,0.7,0.6,1.3,1.3,1.3
					C222.9,153.6,223.5,153.1,223.5,152.4z M227.3,152.4c0-0.7-0.6-1.3-1.3-1.3c-0.7,0-1.3,0.6-1.3,1.3c0,0.7,0.6,1.3,1.3,1.3
					C226.8,153.6,227.3,153.1,227.3,152.4z M231.2,152.4c0-0.7-0.6-1.3-1.3-1.3s-1.3,0.6-1.3,1.3c0,0.7,0.6,1.3,1.3,1.3
					S231.2,153.1,231.2,152.4z M211.9,162.6c0-0.7-0.6-1.3-1.3-1.3c-0.7,0-1.3,0.6-1.3,1.3c0,0.7,0.6,1.3,1.3,1.3
					C211.3,163.9,211.9,163.3,211.9,162.6z M215.8,162.6c0-0.7-0.6-1.3-1.3-1.3c-0.7,0-1.3,0.6-1.3,1.3c0,0.7,0.6,1.3,1.3,1.3
					C215.2,163.9,215.8,163.3,215.8,162.6z M219.6,162.6c0-0.7-0.6-1.3-1.3-1.3c-0.7,0-1.3,0.6-1.3,1.3c0,0.7,0.6,1.3,1.3,1.3
					C219,163.9,219.6,163.3,219.6,162.6z M223.5,162.6c0-0.7-0.6-1.3-1.3-1.3c-0.7,0-1.3,0.6-1.3,1.3c0,0.7,0.6,1.3,1.3,1.3
					C222.9,163.9,223.5,163.3,223.5,162.6z M227.3,162.6c0-0.7-0.6-1.3-1.3-1.3c-0.7,0-1.3,0.6-1.3,1.3c0,0.7,0.6,1.3,1.3,1.3
					C226.8,163.9,227.3,163.3,227.3,162.6z M231.2,162.6c0-0.7-0.6-1.3-1.3-1.3s-1.3,0.6-1.3,1.3c0,0.7,0.6,1.3,1.3,1.3
					S231.2,163.3,231.2,162.6z M225.1,177.4c0-0.7-0.6-1.3-1.3-1.3c-0.7,0-1.3,0.6-1.3,1.3c0,0.7,0.6,1.3,1.3,1.3
					C224.5,178.7,225.1,178.1,225.1,177.4z M228.9,177.4c0-0.7-0.6-1.3-1.3-1.3c-0.7,0-1.3,0.6-1.3,1.3c0,0.7,0.6,1.3,1.3,1.3
					C228.4,178.7,228.9,178.1,228.9,177.4z M232.8,177.4c0-0.7-0.6-1.3-1.3-1.3c-0.7,0-1.3,0.6-1.3,1.3c0,0.7,0.6,1.3,1.3,1.3
					C232.2,178.7,232.8,178.1,232.8,177.4z M236.6,177.4c0-0.7-0.6-1.3-1.3-1.3c-0.7,0-1.3,0.6-1.3,1.3c0,0.7,0.6,1.3,1.3,1.3
					C236.1,178.7,236.6,178.1,236.6,177.4z M240.5,177.4c0-0.7-0.6-1.3-1.3-1.3s-1.3,0.6-1.3,1.3c0,0.7,0.6,1.3,1.3,1.3
					S240.5,178.1,240.5,177.4z M244.3,177.4c0-0.7-0.6-1.3-1.3-1.3c-0.7,0-1.3,0.6-1.3,1.3c0,0.7,0.6,1.3,1.3,1.3
					C243.8,178.7,244.3,178.1,244.3,177.4z M225.1,188c0-0.7-0.6-1.3-1.3-1.3c-0.7,0-1.3,0.6-1.3,1.3c0,0.7,0.6,1.3,1.3,1.3
					C224.5,189.3,225.1,188.7,225.1,188z M228.9,188c0-0.7-0.6-1.3-1.3-1.3c-0.7,0-1.3,0.6-1.3,1.3c0,0.7,0.6,1.3,1.3,1.3
					C228.4,189.3,228.9,188.7,228.9,188z M232.8,188c0-0.7-0.6-1.3-1.3-1.3c-0.7,0-1.3,0.6-1.3,1.3c0,0.7,0.6,1.3,1.3,1.3
					C232.2,189.3,232.8,188.7,232.8,188z M236.6,188c0-0.7-0.6-1.3-1.3-1.3c-0.7,0-1.3,0.6-1.3,1.3c0,0.7,0.6,1.3,1.3,1.3
					C236.1,189.3,236.6,188.7,236.6,188z M240.5,188c0-0.7-0.6-1.3-1.3-1.3s-1.3,0.6-1.3,1.3c0,0.7,0.6,1.3,1.3,1.3
					S240.5,188.7,240.5,188z M244.3,188c0-0.7-0.6-1.3-1.3-1.3c-0.7,0-1.3,0.6-1.3,1.3c0,0.7,0.6,1.3,1.3,1.3
					C243.8,189.3,244.3,188.7,244.3,188z"/>
				<path class="st0" d="M188.8,194.6h-4.5c-0.6,0-1.1-0.5-1.1-1.1c0-0.6,0.5-1.1,1.1-1.1h4.5c0.6,0,1.1,0.5,1.1,1.1
					C189.9,194.1,189.4,194.6,188.8,194.6z M189.9,198.6c0-0.6-0.5-1.1-1.1-1.1h-4.5c-0.6,0-1.1,0.5-1.1,1.1s0.5,1.1,1.1,1.1h4.5
					C189.4,199.7,189.9,199.2,189.9,198.6z M189.9,203.7c0-0.6-0.5-1.1-1.1-1.1h-4.5c-0.6,0-1.1,0.5-1.1,1.1c0,0.6,0.5,1.1,1.1,1.1
					h4.5C189.4,204.8,189.9,204.3,189.9,203.7z M189.9,208.9c0-0.6-0.5-1.1-1.1-1.1h-4.5c-0.6,0-1.1,0.5-1.1,1.1
					c0,0.6,0.5,1.1,1.1,1.1h4.5C189.4,210,189.9,209.5,189.9,208.9z M189.9,214c0-0.6-0.5-1.1-1.1-1.1h-4.5c-0.6,0-1.1,0.5-1.1,1.1
					c0,0.6,0.5,1.1,1.1,1.1h4.5C189.4,215.1,189.9,214.6,189.9,214z M189.9,219.1c0-0.6-0.5-1.1-1.1-1.1h-4.5
					c-0.6,0-1.1,0.5-1.1,1.1s0.5,1.1,1.1,1.1h4.5C189.4,220.3,189.9,219.8,189.9,219.1z M189.9,224.3c0-0.6-0.5-1.1-1.1-1.1h-4.5
					c-0.6,0-1.1,0.5-1.1,1.1s0.5,1.1,1.1,1.1h4.5C189.4,225.4,189.9,224.9,189.9,224.3z M189.9,229.4c0-0.6-0.5-1.1-1.1-1.1h-4.5
					c-0.6,0-1.1,0.5-1.1,1.1c0,0.6,0.5,1.1,1.1,1.1h4.5C189.4,230.5,189.9,230,189.9,229.4z M206.7,193.5c0-0.6-0.5-1.1-1.1-1.1
					h-11.8c-0.6,0-1.1,0.5-1.1,1.1c0,0.6,0.5,1.1,1.1,1.1h11.8C206.2,194.6,206.7,194.1,206.7,193.5z M206.7,198.6
					c0-0.6-0.5-1.1-1.1-1.1h-11.8c-0.6,0-1.1,0.5-1.1,1.1s0.5,1.1,1.1,1.1h11.8C206.2,199.7,206.7,199.2,206.7,198.6z M206.7,203.7
					c0-0.6-0.5-1.1-1.1-1.1h-11.8c-0.6,0-1.1,0.5-1.1,1.1c0,0.6,0.5,1.1,1.1,1.1h11.8C206.2,204.8,206.7,204.3,206.7,203.7z
					 M206.7,208.9c0-0.6-0.5-1.1-1.1-1.1h-11.8c-0.6,0-1.1,0.5-1.1,1.1c0,0.6,0.5,1.1,1.1,1.1h11.8
					C206.2,210,206.7,209.5,206.7,208.9z M206.7,214c0-0.6-0.5-1.1-1.1-1.1h-11.8c-0.6,0-1.1,0.5-1.1,1.1c0,0.6,0.5,1.1,1.1,1.1
					h11.8C206.2,215.1,206.7,214.6,206.7,214z M220.9,219.1c0-0.6-0.5-1.1-1.1-1.1h-11.8c-0.6,0-1.1,0.5-1.1,1.1s0.5,1.1,1.1,1.1
					h11.8C220.4,220.3,220.9,219.8,220.9,219.1z M220.9,224.3c0-0.6-0.5-1.1-1.1-1.1h-11.8c-0.6,0-1.1,0.5-1.1,1.1s0.5,1.1,1.1,1.1
					h11.8C220.4,225.4,220.9,224.9,220.9,224.3z M220.9,229.4c0-0.6-0.5-1.1-1.1-1.1h-11.8c-0.6,0-1.1,0.5-1.1,1.1
					c0,0.6,0.5,1.1,1.1,1.1h11.8C220.4,230.5,220.9,230,220.9,229.4z M211.9,193.5c0-0.7-0.6-1.3-1.3-1.3c-0.7,0-1.3,0.6-1.3,1.3
					c0,0.7,0.6,1.3,1.3,1.3C211.3,194.7,211.9,194.2,211.9,193.5z M215.8,193.5c0-0.7-0.6-1.3-1.3-1.3c-0.7,0-1.3,0.6-1.3,1.3
					c0,0.7,0.6,1.3,1.3,1.3C215.2,194.7,215.8,194.2,215.8,193.5z M219.6,193.5c0-0.7-0.6-1.3-1.3-1.3c-0.7,0-1.3,0.6-1.3,1.3
					c0,0.7,0.6,1.3,1.3,1.3C219,194.7,219.6,194.2,219.6,193.5z M223.5,193.5c0-0.7-0.6-1.3-1.3-1.3c-0.7,0-1.3,0.6-1.3,1.3
					c0,0.7,0.6,1.3,1.3,1.3C222.9,194.7,223.5,194.2,223.5,193.5z M227.3,193.5c0-0.7-0.6-1.3-1.3-1.3c-0.7,0-1.3,0.6-1.3,1.3
					c0,0.7,0.6,1.3,1.3,1.3C226.8,194.7,227.3,194.2,227.3,193.5z M231.2,193.5c0-0.7-0.6-1.3-1.3-1.3s-1.3,0.6-1.3,1.3
					c0,0.7,0.6,1.3,1.3,1.3S231.2,194.2,231.2,193.5z M211.9,203.7c0-0.7-0.6-1.3-1.3-1.3c-0.7,0-1.3,0.6-1.3,1.3
					c0,0.7,0.6,1.3,1.3,1.3C211.3,205,211.9,204.4,211.9,203.7z M215.8,203.7c0-0.7-0.6-1.3-1.3-1.3c-0.7,0-1.3,0.6-1.3,1.3
					c0,0.7,0.6,1.3,1.3,1.3C215.2,205,215.8,204.4,215.8,203.7z M219.6,203.7c0-0.7-0.6-1.3-1.3-1.3c-0.7,0-1.3,0.6-1.3,1.3
					c0,0.7,0.6,1.3,1.3,1.3C219,205,219.6,204.4,219.6,203.7z M223.5,203.7c0-0.7-0.6-1.3-1.3-1.3c-0.7,0-1.3,0.6-1.3,1.3
					c0,0.7,0.6,1.3,1.3,1.3C222.9,205,223.5,204.4,223.5,203.7z M227.3,203.7c0-0.7-0.6-1.3-1.3-1.3c-0.7,0-1.3,0.6-1.3,1.3
					c0,0.7,0.6,1.3,1.3,1.3C226.8,205,227.3,204.4,227.3,203.7z M231.2,203.7c0-0.7-0.6-1.3-1.3-1.3s-1.3,0.6-1.3,1.3
					c0,0.7,0.6,1.3,1.3,1.3S231.2,204.4,231.2,203.7z M225.1,218.5c0-0.7-0.6-1.3-1.3-1.3c-0.7,0-1.3,0.6-1.3,1.3
					c0,0.7,0.6,1.3,1.3,1.3C224.5,219.8,225.1,219.2,225.1,218.5z M228.9,218.5c0-0.7-0.6-1.3-1.3-1.3c-0.7,0-1.3,0.6-1.3,1.3
					c0,0.7,0.6,1.3,1.3,1.3C228.4,219.8,228.9,219.2,228.9,218.5z M232.8,218.5c0-0.7-0.6-1.3-1.3-1.3c-0.7,0-1.3,0.6-1.3,1.3
					c0,0.7,0.6,1.3,1.3,1.3C232.2,219.8,232.8,219.2,232.8,218.5z M236.6,218.5c0-0.7-0.6-1.3-1.3-1.3c-0.7,0-1.3,0.6-1.3,1.3
					c0,0.7,0.6,1.3,1.3,1.3C236.1,219.8,236.6,219.2,236.6,218.5z M240.5,218.5c0-0.7-0.6-1.3-1.3-1.3s-1.3,0.6-1.3,1.3
					c0,0.7,0.6,1.3,1.3,1.3S240.5,219.2,240.5,218.5z M244.3,218.5c0-0.7-0.6-1.3-1.3-1.3c-0.7,0-1.3,0.6-1.3,1.3
					c0,0.7,0.6,1.3,1.3,1.3C243.8,219.8,244.3,219.2,244.3,218.5z M225.1,229.1c0-0.7-0.6-1.3-1.3-1.3c-0.7,0-1.3,0.6-1.3,1.3
					s0.6,1.3,1.3,1.3C224.5,230.4,225.1,229.8,225.1,229.1z M228.9,229.1c0-0.7-0.6-1.3-1.3-1.3c-0.7,0-1.3,0.6-1.3,1.3
					s0.6,1.3,1.3,1.3C228.4,230.4,228.9,229.8,228.9,229.1z M232.8,229.1c0-0.7-0.6-1.3-1.3-1.3c-0.7,0-1.3,0.6-1.3,1.3
					s0.6,1.3,1.3,1.3C232.2,230.4,232.8,229.8,232.8,229.1z M236.6,229.1c0-0.7-0.6-1.3-1.3-1.3c-0.7,0-1.3,0.6-1.3,1.3
					s0.6,1.3,1.3,1.3C236.1,230.4,236.6,229.8,236.6,229.1z M240.5,229.1c0-0.7-0.6-1.3-1.3-1.3s-1.3,0.6-1.3,1.3s0.6,1.3,1.3,1.3
					S240.5,229.8,240.5,229.1z M244.3,229.1c0-0.7-0.6-1.3-1.3-1.3c-0.7,0-1.3,0.6-1.3,1.3s0.6,1.3,1.3,1.3
					C243.8,230.4,244.3,229.8,244.3,229.1z"/>
				<path class="st0" d="M188.8,236.7h-4.5c-0.6,0-1.1-0.5-1.1-1.1s0.5-1.1,1.1-1.1h4.5c0.6,0,1.1,0.5,1.1,1.1
					S189.4,236.7,188.8,236.7z M189.9,240.7c0-0.6-0.5-1.1-1.1-1.1h-4.5c-0.6,0-1.1,0.5-1.1,1.1c0,0.6,0.5,1.1,1.1,1.1h4.5
					C189.4,241.8,189.9,241.3,189.9,240.7z M189.9,245.8c0-0.6-0.5-1.1-1.1-1.1h-4.5c-0.6,0-1.1,0.5-1.1,1.1c0,0.6,0.5,1.1,1.1,1.1
					h4.5C189.4,246.9,189.9,246.4,189.9,245.8z M189.9,251c0-0.6-0.5-1.1-1.1-1.1h-4.5c-0.6,0-1.1,0.5-1.1,1.1
					c0,0.6,0.5,1.1,1.1,1.1h4.5C189.4,252.1,189.9,251.6,189.9,251z M189.9,256.1c0-0.6-0.5-1.1-1.1-1.1h-4.5
					c-0.6,0-1.1,0.5-1.1,1.1c0,0.6,0.5,1.1,1.1,1.1h4.5C189.4,257.2,189.9,256.7,189.9,256.1z M189.9,261.2c0-0.6-0.5-1.1-1.1-1.1
					h-4.5c-0.6,0-1.1,0.5-1.1,1.1c0,0.6,0.5,1.1,1.1,1.1h4.5C189.4,262.3,189.9,261.9,189.9,261.2z M189.9,266.4
					c0-0.6-0.5-1.1-1.1-1.1h-4.5c-0.6,0-1.1,0.5-1.1,1.1s0.5,1.1,1.1,1.1h4.5C189.4,267.5,189.9,267,189.9,266.4z M189.9,271.5
					c0-0.6-0.5-1.1-1.1-1.1h-4.5c-0.6,0-1.1,0.5-1.1,1.1c0,0.6,0.5,1.1,1.1,1.1h4.5C189.4,272.6,189.9,272.1,189.9,271.5z
					 M206.7,235.6c0-0.6-0.5-1.1-1.1-1.1h-11.8c-0.6,0-1.1,0.5-1.1,1.1s0.5,1.1,1.1,1.1h11.8C206.2,236.7,206.7,236.2,206.7,235.6z
					 M206.7,240.7c0-0.6-0.5-1.1-1.1-1.1h-11.8c-0.6,0-1.1,0.5-1.1,1.1c0,0.6,0.5,1.1,1.1,1.1h11.8
					C206.2,241.8,206.7,241.3,206.7,240.7z M206.7,245.8c0-0.6-0.5-1.1-1.1-1.1h-11.8c-0.6,0-1.1,0.5-1.1,1.1c0,0.6,0.5,1.1,1.1,1.1
					h11.8C206.2,246.9,206.7,246.4,206.7,245.8z M206.7,251c0-0.6-0.5-1.1-1.1-1.1h-11.8c-0.6,0-1.1,0.5-1.1,1.1
					c0,0.6,0.5,1.1,1.1,1.1h11.8C206.2,252.1,206.7,251.6,206.7,251z M206.7,256.1c0-0.6-0.5-1.1-1.1-1.1h-11.8
					c-0.6,0-1.1,0.5-1.1,1.1c0,0.6,0.5,1.1,1.1,1.1h11.8C206.2,257.2,206.7,256.7,206.7,256.1z M220.9,261.2c0-0.6-0.5-1.1-1.1-1.1
					h-11.8c-0.6,0-1.1,0.5-1.1,1.1c0,0.6,0.5,1.1,1.1,1.1h11.8C220.4,262.3,220.9,261.9,220.9,261.2z M220.9,266.4
					c0-0.6-0.5-1.1-1.1-1.1h-11.8c-0.6,0-1.1,0.5-1.1,1.1s0.5,1.1,1.1,1.1h11.8C220.4,267.5,220.9,267,220.9,266.4z M220.9,271.5
					c0-0.6-0.5-1.1-1.1-1.1h-11.8c-0.6,0-1.1,0.5-1.1,1.1c0,0.6,0.5,1.1,1.1,1.1h11.8C220.4,272.6,220.9,272.1,220.9,271.5z
					 M211.9,235.6c0-0.7-0.6-1.3-1.3-1.3c-0.7,0-1.3,0.6-1.3,1.3c0,0.7,0.6,1.3,1.3,1.3C211.3,236.8,211.9,236.3,211.9,235.6z
					 M215.8,235.6c0-0.7-0.6-1.3-1.3-1.3c-0.7,0-1.3,0.6-1.3,1.3c0,0.7,0.6,1.3,1.3,1.3C215.2,236.8,215.8,236.3,215.8,235.6z
					 M219.6,235.6c0-0.7-0.6-1.3-1.3-1.3c-0.7,0-1.3,0.6-1.3,1.3c0,0.7,0.6,1.3,1.3,1.3C219,236.8,219.6,236.3,219.6,235.6z
					 M223.5,235.6c0-0.7-0.6-1.3-1.3-1.3c-0.7,0-1.3,0.6-1.3,1.3c0,0.7,0.6,1.3,1.3,1.3C222.9,236.8,223.5,236.3,223.5,235.6z
					 M227.3,235.6c0-0.7-0.6-1.3-1.3-1.3c-0.7,0-1.3,0.6-1.3,1.3c0,0.7,0.6,1.3,1.3,1.3C226.8,236.8,227.3,236.3,227.3,235.6z
					 M231.2,235.6c0-0.7-0.6-1.3-1.3-1.3s-1.3,0.6-1.3,1.3c0,0.7,0.6,1.3,1.3,1.3S231.2,236.3,231.2,235.6z M211.9,245.8
					c0-0.7-0.6-1.3-1.3-1.3c-0.7,0-1.3,0.6-1.3,1.3c0,0.7,0.6,1.3,1.3,1.3C211.3,247.1,211.9,246.5,211.9,245.8z M215.8,245.8
					c0-0.7-0.6-1.3-1.3-1.3c-0.7,0-1.3,0.6-1.3,1.3c0,0.7,0.6,1.3,1.3,1.3C215.2,247.1,215.8,246.5,215.8,245.8z M219.6,245.8
					c0-0.7-0.6-1.3-1.3-1.3c-0.7,0-1.3,0.6-1.3,1.3c0,0.7,0.6,1.3,1.3,1.3C219,247.1,219.6,246.5,219.6,245.8z M223.5,245.8
					c0-0.7-0.6-1.3-1.3-1.3c-0.7,0-1.3,0.6-1.3,1.3c0,0.7,0.6,1.3,1.3,1.3C222.9,247.1,223.5,246.5,223.5,245.8z M227.3,245.8
					c0-0.7-0.6-1.3-1.3-1.3c-0.7,0-1.3,0.6-1.3,1.3c0,0.7,0.6,1.3,1.3,1.3C226.8,247.1,227.3,246.5,227.3,245.8z M231.2,245.8
					c0-0.7-0.6-1.3-1.3-1.3s-1.3,0.6-1.3,1.3c0,0.7,0.6,1.3,1.3,1.3S231.2,246.5,231.2,245.8z M225.1,260.6c0-0.7-0.6-1.3-1.3-1.3
					c-0.7,0-1.3,0.6-1.3,1.3c0,0.7,0.6,1.3,1.3,1.3C224.5,261.9,225.1,261.3,225.1,260.6z M228.9,260.6c0-0.7-0.6-1.3-1.3-1.3
					c-0.7,0-1.3,0.6-1.3,1.3c0,0.7,0.6,1.3,1.3,1.3C228.4,261.9,228.9,261.3,228.9,260.6z M232.8,260.6c0-0.7-0.6-1.3-1.3-1.3
					c-0.7,0-1.3,0.6-1.3,1.3c0,0.7,0.6,1.3,1.3,1.3C232.2,261.9,232.8,261.3,232.8,260.6z M236.6,260.6c0-0.7-0.6-1.3-1.3-1.3
					c-0.7,0-1.3,0.6-1.3,1.3c0,0.7,0.6,1.3,1.3,1.3C236.1,261.9,236.6,261.3,236.6,260.6z M240.5,260.6c0-0.7-0.6-1.3-1.3-1.3
					s-1.3,0.6-1.3,1.3c0,0.7,0.6,1.3,1.3,1.3S240.5,261.3,240.5,260.6z M244.3,260.6c0-0.7-0.6-1.3-1.3-1.3c-0.7,0-1.3,0.6-1.3,1.3
					c0,0.7,0.6,1.3,1.3,1.3C243.8,261.9,244.3,261.3,244.3,260.6z M225.1,271.2c0-0.7-0.6-1.3-1.3-1.3c-0.7,0-1.3,0.6-1.3,1.3
					c0,0.7,0.6,1.3,1.3,1.3C224.5,272.5,225.1,271.9,225.1,271.2z M228.9,271.2c0-0.7-0.6-1.3-1.3-1.3c-0.7,0-1.3,0.6-1.3,1.3
					c0,0.7,0.6,1.3,1.3,1.3C228.4,272.5,228.9,271.9,228.9,271.2z M232.8,271.2c0-0.7-0.6-1.3-1.3-1.3c-0.7,0-1.3,0.6-1.3,1.3
					c0,0.7,0.6,1.3,1.3,1.3C232.2,272.5,232.8,271.9,232.8,271.2z M236.6,271.2c0-0.7-0.6-1.3-1.3-1.3c-0.7,0-1.3,0.6-1.3,1.3
					c0,0.7,0.6,1.3,1.3,1.3C236.1,272.5,236.6,271.9,236.6,271.2z M240.5,271.2c0-0.7-0.6-1.3-1.3-1.3s-1.3,0.6-1.3,1.3
					c0,0.7,0.6,1.3,1.3,1.3S240.5,271.9,240.5,271.2z M244.3,271.2c0-0.7-0.6-1.3-1.3-1.3c-0.7,0-1.3,0.6-1.3,1.3
					c0,0.7,0.6,1.3,1.3,1.3C243.8,272.5,244.3,271.9,244.3,271.2z"/>
				<path class="st0" d="M257.8,153.5h-4.5c-0.6,0-1.1-0.5-1.1-1.1c0-0.6,0.5-1.1,1.1-1.1h4.5c0.6,0,1.1,0.5,1.1,1.1
					C258.9,153,258.4,153.5,257.8,153.5z M258.9,157.5c0-0.6-0.5-1.1-1.1-1.1h-4.5c-0.6,0-1.1,0.5-1.1,1.1c0,0.6,0.5,1.1,1.1,1.1
					h4.5C258.4,158.6,258.9,158.1,258.9,157.5z M258.9,162.6c0-0.6-0.5-1.1-1.1-1.1h-4.5c-0.6,0-1.1,0.5-1.1,1.1
					c0,0.6,0.5,1.1,1.1,1.1h4.5C258.4,163.7,258.9,163.2,258.9,162.6z M258.9,167.8c0-0.6-0.5-1.1-1.1-1.1h-4.5
					c-0.6,0-1.1,0.5-1.1,1.1c0,0.6,0.5,1.1,1.1,1.1h4.5C258.4,168.9,258.9,168.4,258.9,167.8z M258.9,172.9c0-0.6-0.5-1.1-1.1-1.1
					h-4.5c-0.6,0-1.1,0.5-1.1,1.1c0,0.6,0.5,1.1,1.1,1.1h4.5C258.4,174,258.9,173.5,258.9,172.9z M258.9,178c0-0.6-0.5-1.1-1.1-1.1
					h-4.5c-0.6,0-1.1,0.5-1.1,1.1s0.5,1.1,1.1,1.1h4.5C258.4,179.1,258.9,178.7,258.9,178z M258.9,183.2c0-0.6-0.5-1.1-1.1-1.1h-4.5
					c-0.6,0-1.1,0.5-1.1,1.1s0.5,1.1,1.1,1.1h4.5C258.4,184.3,258.9,183.8,258.9,183.2z M258.9,188.3c0-0.6-0.5-1.1-1.1-1.1h-4.5
					c-0.6,0-1.1,0.5-1.1,1.1s0.5,1.1,1.1,1.1h4.5C258.4,189.4,258.9,188.9,258.9,188.3z M275.7,152.4c0-0.6-0.5-1.1-1.1-1.1h-11.8
					c-0.6,0-1.1,0.5-1.1,1.1c0,0.6,0.5,1.1,1.1,1.1h11.8C275.2,153.5,275.7,153,275.7,152.4z M275.7,157.5c0-0.6-0.5-1.1-1.1-1.1
					h-11.8c-0.6,0-1.1,0.5-1.1,1.1c0,0.6,0.5,1.1,1.1,1.1h11.8C275.2,158.6,275.7,158.1,275.7,157.5z M275.7,162.6
					c0-0.6-0.5-1.1-1.1-1.1h-11.8c-0.6,0-1.1,0.5-1.1,1.1c0,0.6,0.5,1.1,1.1,1.1h11.8C275.2,163.7,275.7,163.2,275.7,162.6z
					 M275.7,167.8c0-0.6-0.5-1.1-1.1-1.1h-11.8c-0.6,0-1.1,0.5-1.1,1.1c0,0.6,0.5,1.1,1.1,1.1h11.8
					C275.2,168.9,275.7,168.4,275.7,167.8z M275.7,172.9c0-0.6-0.5-1.1-1.1-1.1h-11.8c-0.6,0-1.1,0.5-1.1,1.1c0,0.6,0.5,1.1,1.1,1.1
					h11.8C275.2,174,275.7,173.5,275.7,172.9z M289.9,178c0-0.6-0.5-1.1-1.1-1.1H277c-0.6,0-1.1,0.5-1.1,1.1s0.5,1.1,1.1,1.1h11.8
					C289.4,179.1,289.9,178.7,289.9,178z M289.9,183.2c0-0.6-0.5-1.1-1.1-1.1H277c-0.6,0-1.1,0.5-1.1,1.1s0.5,1.1,1.1,1.1h11.8
					C289.4,184.3,289.9,183.8,289.9,183.2z M289.9,188.3c0-0.6-0.5-1.1-1.1-1.1H277c-0.6,0-1.1,0.5-1.1,1.1s0.5,1.1,1.1,1.1h11.8
					C289.4,189.4,289.9,188.9,289.9,188.3z M280.9,152.4c0-0.7-0.6-1.3-1.3-1.3c-0.7,0-1.3,0.6-1.3,1.3c0,0.7,0.6,1.3,1.3,1.3
					C280.4,153.6,280.9,153.1,280.9,152.4z M284.8,152.4c0-0.7-0.6-1.3-1.3-1.3c-0.7,0-1.3,0.6-1.3,1.3c0,0.7,0.6,1.3,1.3,1.3
					C284.2,153.6,284.8,153.1,284.8,152.4z M288.6,152.4c0-0.7-0.6-1.3-1.3-1.3c-0.7,0-1.3,0.6-1.3,1.3c0,0.7,0.6,1.3,1.3,1.3
					C288.1,153.6,288.6,153.1,288.6,152.4z M292.5,152.4c0-0.7-0.6-1.3-1.3-1.3c-0.7,0-1.3,0.6-1.3,1.3c0,0.7,0.6,1.3,1.3,1.3
					C291.9,153.6,292.5,153.1,292.5,152.4z M296.3,152.4c0-0.7-0.6-1.3-1.3-1.3c-0.7,0-1.3,0.6-1.3,1.3c0,0.7,0.6,1.3,1.3,1.3
					C295.8,153.6,296.3,153.1,296.3,152.4z M300.2,152.4c0-0.7-0.6-1.3-1.3-1.3c-0.7,0-1.3,0.6-1.3,1.3c0,0.7,0.6,1.3,1.3,1.3
					C299.6,153.6,300.2,153.1,300.2,152.4z M280.9,162.6c0-0.7-0.6-1.3-1.3-1.3c-0.7,0-1.3,0.6-1.3,1.3c0,0.7,0.6,1.3,1.3,1.3
					C280.4,163.9,280.9,163.3,280.9,162.6z M284.8,162.6c0-0.7-0.6-1.3-1.3-1.3c-0.7,0-1.3,0.6-1.3,1.3c0,0.7,0.6,1.3,1.3,1.3
					C284.2,163.9,284.8,163.3,284.8,162.6z M288.6,162.6c0-0.7-0.6-1.3-1.3-1.3c-0.7,0-1.3,0.6-1.3,1.3c0,0.7,0.6,1.3,1.3,1.3
					C288.1,163.9,288.6,163.3,288.6,162.6z M292.5,162.6c0-0.7-0.6-1.3-1.3-1.3c-0.7,0-1.3,0.6-1.3,1.3c0,0.7,0.6,1.3,1.3,1.3
					C291.9,163.9,292.5,163.3,292.5,162.6z M296.3,162.6c0-0.7-0.6-1.3-1.3-1.3c-0.7,0-1.3,0.6-1.3,1.3c0,0.7,0.6,1.3,1.3,1.3
					C295.8,163.9,296.3,163.3,296.3,162.6z M300.2,162.6c0-0.7-0.6-1.3-1.3-1.3c-0.7,0-1.3,0.6-1.3,1.3c0,0.7,0.6,1.3,1.3,1.3
					C299.6,163.9,300.2,163.3,300.2,162.6z M294.1,177.4c0-0.7-0.6-1.3-1.3-1.3c-0.7,0-1.3,0.6-1.3,1.3c0,0.7,0.6,1.3,1.3,1.3
					C293.5,178.7,294.1,178.1,294.1,177.4z M297.9,177.4c0-0.7-0.6-1.3-1.3-1.3c-0.7,0-1.3,0.6-1.3,1.3c0,0.7,0.6,1.3,1.3,1.3
					C297.4,178.7,297.9,178.1,297.9,177.4z M301.8,177.4c0-0.7-0.6-1.3-1.3-1.3c-0.7,0-1.3,0.6-1.3,1.3c0,0.7,0.6,1.3,1.3,1.3
					C301.2,178.7,301.8,178.1,301.8,177.4z M305.6,177.4c0-0.7-0.6-1.3-1.3-1.3c-0.7,0-1.3,0.6-1.3,1.3c0,0.7,0.6,1.3,1.3,1.3
					C305.1,178.7,305.6,178.1,305.6,177.4z M309.5,177.4c0-0.7-0.6-1.3-1.3-1.3c-0.7,0-1.3,0.6-1.3,1.3c0,0.7,0.6,1.3,1.3,1.3
					C308.9,178.7,309.5,178.1,309.5,177.4z M313.4,177.4c0-0.7-0.6-1.3-1.3-1.3c-0.7,0-1.3,0.6-1.3,1.3c0,0.7,0.6,1.3,1.3,1.3
					C312.8,178.7,313.4,178.1,313.4,177.4z M294.1,188c0-0.7-0.6-1.3-1.3-1.3c-0.7,0-1.3,0.6-1.3,1.3c0,0.7,0.6,1.3,1.3,1.3
					C293.5,189.3,294.1,188.7,294.1,188z M297.9,188c0-0.7-0.6-1.3-1.3-1.3c-0.7,0-1.3,0.6-1.3,1.3c0,0.7,0.6,1.3,1.3,1.3
					C297.4,189.3,297.9,188.7,297.9,188z M301.8,188c0-0.7-0.6-1.3-1.3-1.3c-0.7,0-1.3,0.6-1.3,1.3c0,0.7,0.6,1.3,1.3,1.3
					C301.2,189.3,301.8,188.7,301.8,188z M305.6,188c0-0.7-0.6-1.3-1.3-1.3c-0.7,0-1.3,0.6-1.3,1.3c0,0.7,0.6,1.3,1.3,1.3
					C305.1,189.3,305.6,188.7,305.6,188z M309.5,188c0-0.7-0.6-1.3-1.3-1.3c-0.7,0-1.3,0.6-1.3,1.3c0,0.7,0.6,1.3,1.3,1.3
					C308.9,189.3,309.5,188.7,309.5,188z M313.4,188c0-0.7-0.6-1.3-1.3-1.3c-0.7,0-1.3,0.6-1.3,1.3c0,0.7,0.6,1.3,1.3,1.3
					C312.8,189.3,313.4,188.7,313.4,188z"/>
				<path class="st0" d="M257.8,195.6h-4.5c-0.6,0-1.1-0.5-1.1-1.1c0-0.6,0.5-1.1,1.1-1.1h4.5c0.6,0,1.1,0.5,1.1,1.1
					C258.9,195.1,258.4,195.6,257.8,195.6z M258.9,199.6c0-0.6-0.5-1.1-1.1-1.1h-4.5c-0.6,0-1.1,0.5-1.1,1.1c0,0.6,0.5,1.1,1.1,1.1
					h4.5C258.4,200.7,258.9,200.2,258.9,199.6z M258.9,204.7c0-0.6-0.5-1.1-1.1-1.1h-4.5c-0.6,0-1.1,0.5-1.1,1.1
					c0,0.6,0.5,1.1,1.1,1.1h4.5C258.4,205.8,258.9,205.3,258.9,204.7z M258.9,209.9c0-0.6-0.5-1.1-1.1-1.1h-4.5
					c-0.6,0-1.1,0.5-1.1,1.1c0,0.6,0.5,1.1,1.1,1.1h4.5C258.4,211,258.9,210.5,258.9,209.9z M258.9,215c0-0.6-0.5-1.1-1.1-1.1h-4.5
					c-0.6,0-1.1,0.5-1.1,1.1c0,0.6,0.5,1.1,1.1,1.1h4.5C258.4,216.1,258.9,215.6,258.9,215z M258.9,220.1c0-0.6-0.5-1.1-1.1-1.1
					h-4.5c-0.6,0-1.1,0.5-1.1,1.1s0.5,1.1,1.1,1.1h4.5C258.4,221.2,258.9,220.7,258.9,220.1z M258.9,225.3c0-0.6-0.5-1.1-1.1-1.1
					h-4.5c-0.6,0-1.1,0.5-1.1,1.1c0,0.6,0.5,1.1,1.1,1.1h4.5C258.4,226.4,258.9,225.9,258.9,225.3z M258.9,230.4
					c0-0.6-0.5-1.1-1.1-1.1h-4.5c-0.6,0-1.1,0.5-1.1,1.1c0,0.6,0.5,1.1,1.1,1.1h4.5C258.4,231.5,258.9,231,258.9,230.4z
					 M275.7,194.5c0-0.6-0.5-1.1-1.1-1.1h-11.8c-0.6,0-1.1,0.5-1.1,1.1c0,0.6,0.5,1.1,1.1,1.1h11.8
					C275.2,195.6,275.7,195.1,275.7,194.5z M275.7,199.6c0-0.6-0.5-1.1-1.1-1.1h-11.8c-0.6,0-1.1,0.5-1.1,1.1c0,0.6,0.5,1.1,1.1,1.1
					h11.8C275.2,200.7,275.7,200.2,275.7,199.6z M275.7,204.7c0-0.6-0.5-1.1-1.1-1.1h-11.8c-0.6,0-1.1,0.5-1.1,1.1
					c0,0.6,0.5,1.1,1.1,1.1h11.8C275.2,205.8,275.7,205.3,275.7,204.7z M275.7,209.9c0-0.6-0.5-1.1-1.1-1.1h-11.8
					c-0.6,0-1.1,0.5-1.1,1.1c0,0.6,0.5,1.1,1.1,1.1h11.8C275.2,211,275.7,210.5,275.7,209.9z M275.7,215c0-0.6-0.5-1.1-1.1-1.1
					h-11.8c-0.6,0-1.1,0.5-1.1,1.1c0,0.6,0.5,1.1,1.1,1.1h11.8C275.2,216.1,275.7,215.6,275.7,215z M289.9,220.1
					c0-0.6-0.5-1.1-1.1-1.1H277c-0.6,0-1.1,0.5-1.1,1.1s0.5,1.1,1.1,1.1h11.8C289.4,221.2,289.9,220.7,289.9,220.1z M289.9,225.3
					c0-0.6-0.5-1.1-1.1-1.1H277c-0.6,0-1.1,0.5-1.1,1.1c0,0.6,0.5,1.1,1.1,1.1h11.8C289.4,226.4,289.9,225.9,289.9,225.3z
					 M289.9,230.4c0-0.6-0.5-1.1-1.1-1.1H277c-0.6,0-1.1,0.5-1.1,1.1c0,0.6,0.5,1.1,1.1,1.1h11.8C289.4,231.5,289.9,231,289.9,230.4
					z M280.9,194.5c0-0.7-0.6-1.3-1.3-1.3c-0.7,0-1.3,0.6-1.3,1.3c0,0.7,0.6,1.3,1.3,1.3C280.4,195.7,280.9,195.2,280.9,194.5z
					 M284.8,194.5c0-0.7-0.6-1.3-1.3-1.3c-0.7,0-1.3,0.6-1.3,1.3c0,0.7,0.6,1.3,1.3,1.3C284.2,195.7,284.8,195.2,284.8,194.5z
					 M288.6,194.5c0-0.7-0.6-1.3-1.3-1.3c-0.7,0-1.3,0.6-1.3,1.3c0,0.7,0.6,1.3,1.3,1.3C288.1,195.7,288.6,195.2,288.6,194.5z
					 M292.5,194.5c0-0.7-0.6-1.3-1.3-1.3c-0.7,0-1.3,0.6-1.3,1.3c0,0.7,0.6,1.3,1.3,1.3C291.9,195.7,292.5,195.2,292.5,194.5z
					 M296.3,194.5c0-0.7-0.6-1.3-1.3-1.3c-0.7,0-1.3,0.6-1.3,1.3c0,0.7,0.6,1.3,1.3,1.3C295.8,195.7,296.3,195.2,296.3,194.5z
					 M300.2,194.5c0-0.7-0.6-1.3-1.3-1.3c-0.7,0-1.3,0.6-1.3,1.3c0,0.7,0.6,1.3,1.3,1.3C299.6,195.7,300.2,195.2,300.2,194.5z
					 M280.9,204.7c0-0.7-0.6-1.3-1.3-1.3c-0.7,0-1.3,0.6-1.3,1.3c0,0.7,0.6,1.3,1.3,1.3C280.4,206,280.9,205.4,280.9,204.7z
					 M284.8,204.7c0-0.7-0.6-1.3-1.3-1.3c-0.7,0-1.3,0.6-1.3,1.3c0,0.7,0.6,1.3,1.3,1.3C284.2,206,284.8,205.4,284.8,204.7z
					 M288.6,204.7c0-0.7-0.6-1.3-1.3-1.3c-0.7,0-1.3,0.6-1.3,1.3c0,0.7,0.6,1.3,1.3,1.3C288.1,206,288.6,205.4,288.6,204.7z
					 M292.5,204.7c0-0.7-0.6-1.3-1.3-1.3c-0.7,0-1.3,0.6-1.3,1.3c0,0.7,0.6,1.3,1.3,1.3C291.9,206,292.5,205.4,292.5,204.7z
					 M296.3,204.7c0-0.7-0.6-1.3-1.3-1.3c-0.7,0-1.3,0.6-1.3,1.3c0,0.7,0.6,1.3,1.3,1.3C295.8,206,296.3,205.4,296.3,204.7z
					 M300.2,204.7c0-0.7-0.6-1.3-1.3-1.3c-0.7,0-1.3,0.6-1.3,1.3c0,0.7,0.6,1.3,1.3,1.3C299.6,206,300.2,205.4,300.2,204.7z
					 M294.1,219.5c0-0.7-0.6-1.3-1.3-1.3c-0.7,0-1.3,0.6-1.3,1.3c0,0.7,0.6,1.3,1.3,1.3C293.5,220.8,294.1,220.2,294.1,219.5z
					 M297.9,219.5c0-0.7-0.6-1.3-1.3-1.3c-0.7,0-1.3,0.6-1.3,1.3c0,0.7,0.6,1.3,1.3,1.3C297.4,220.8,297.9,220.2,297.9,219.5z
					 M301.8,219.5c0-0.7-0.6-1.3-1.3-1.3c-0.7,0-1.3,0.6-1.3,1.3c0,0.7,0.6,1.3,1.3,1.3C301.2,220.8,301.8,220.2,301.8,219.5z
					 M305.6,219.5c0-0.7-0.6-1.3-1.3-1.3c-0.7,0-1.3,0.6-1.3,1.3c0,0.7,0.6,1.3,1.3,1.3C305.1,220.8,305.6,220.2,305.6,219.5z
					 M309.5,219.5c0-0.7-0.6-1.3-1.3-1.3c-0.7,0-1.3,0.6-1.3,1.3c0,0.7,0.6,1.3,1.3,1.3C308.9,220.8,309.5,220.2,309.5,219.5z
					 M313.4,219.5c0-0.7-0.6-1.3-1.3-1.3c-0.7,0-1.3,0.6-1.3,1.3c0,0.7,0.6,1.3,1.3,1.3C312.8,220.8,313.4,220.2,313.4,219.5z
					 M294.1,230.1c0-0.7-0.6-1.3-1.3-1.3c-0.7,0-1.3,0.6-1.3,1.3c0,0.7,0.6,1.3,1.3,1.3C293.5,231.4,294.1,230.8,294.1,230.1z
					 M297.9,230.1c0-0.7-0.6-1.3-1.3-1.3c-0.7,0-1.3,0.6-1.3,1.3c0,0.7,0.6,1.3,1.3,1.3C297.4,231.4,297.9,230.8,297.9,230.1z
					 M301.8,230.1c0-0.7-0.6-1.3-1.3-1.3c-0.7,0-1.3,0.6-1.3,1.3c0,0.7,0.6,1.3,1.3,1.3C301.2,231.4,301.8,230.8,301.8,230.1z
					 M305.6,230.1c0-0.7-0.6-1.3-1.3-1.3c-0.7,0-1.3,0.6-1.3,1.3c0,0.7,0.6,1.3,1.3,1.3C305.1,231.4,305.6,230.8,305.6,230.1z
					 M309.5,230.1c0-0.7-0.6-1.3-1.3-1.3c-0.7,0-1.3,0.6-1.3,1.3c0,0.7,0.6,1.3,1.3,1.3C308.9,231.4,309.5,230.8,309.5,230.1z
					 M313.4,230.1c0-0.7-0.6-1.3-1.3-1.3c-0.7,0-1.3,0.6-1.3,1.3c0,0.7,0.6,1.3,1.3,1.3C312.8,231.4,313.4,230.8,313.4,230.1z"/>
			</g>
		</g>
		<g>
			<path class="st2" d="M187.4,136.9c0,1.2-1,2.1-2.1,2.1c-1.2,0-2.1-1-2.1-2.1c0-1.2,1-2.1,2.1-2.1
				C186.4,134.8,187.4,135.8,187.4,136.9z"/>
			<path class="st2" d="M197,136.9c0,1.2-1,2.1-2.1,2.1s-2.1-1-2.1-2.1c0-1.2,1-2.1,2.1-2.1S197,135.8,197,136.9z"/>
			<path class="st2" d="M206.6,136.9c0,1.2-1,2.1-2.1,2.1c-1.2,0-2.1-1-2.1-2.1c0-1.2,1-2.1,2.1-2.1
				C205.6,134.8,206.6,135.8,206.6,136.9z"/>
		</g>
	</g>
	<g>
		<rect id="XMLID_16_" x="316.2" y="209.5" class="st17" width="221.8" height="127.9"/>
		<rect id="XMLID_15_" x="312.8" y="206.1" class="st13" width="221.8" height="127.9"/>
		<g>
			<path class="st2" d="M426.4,278.6l-2.3-0.2c0-0.8-0.1-1.6-0.2-2.3l2.3-0.6c0.4-0.1,0.6-0.5,0.5-0.8l-0.3-1
				c-0.1-0.4-0.5-0.6-0.8-0.5l-2.2,0.6c-0.3-0.7-0.6-1.5-1-2.1l1.9-1.3c0.3-0.2,0.4-0.6,0.2-0.9l-0.6-0.9c-0.2-0.3-0.6-0.4-0.9-0.2
				l-1.9,1.3c-0.5-0.6-1-1.2-1.6-1.7l1.4-1.9c0.2-0.3,0.2-0.7-0.1-0.9l-0.9-0.7c-0.3-0.2-0.7-0.2-0.9,0.1l-1.4,1.9
				c-0.7-0.4-1.4-0.8-2.1-1.1l0.7-2.2c0.1-0.3-0.1-0.7-0.4-0.8l-1-0.3c-0.3-0.1-0.7,0.1-0.8,0.4l-0.7,2.2c-0.7-0.2-1.4-0.3-2.1-0.3
				v-2.3c0-0.4-0.3-0.7-0.7-0.7h-1.1c-0.4,0-0.7,0.3-0.7,0.7v2.3c-0.8,0.1-1.6,0.2-2.3,0.4l-0.8-2.2c-0.1-0.3-0.5-0.5-0.8-0.4
				l-1,0.4c-0.3,0.1-0.5,0.5-0.4,0.8l0.8,2.2c-0.7,0.3-1.4,0.7-2.1,1.1l-1.4-1.8c-0.2-0.3-0.6-0.3-0.9-0.1l-0.9,0.7
				c-0.3,0.2-0.3,0.6-0.1,0.9l1.4,1.8c-0.6,0.5-1.1,1.1-1.6,1.7l-2-1.3c-0.3-0.2-0.7-0.1-0.9,0.2l-0.6,0.9c-0.2,0.3-0.1,0.7,0.2,0.9
				l2,1.3c-0.4,0.7-0.7,1.4-0.9,2.2l-2.3-0.6c-0.4-0.1-0.7,0.1-0.8,0.5l-0.3,1.1c-0.1,0.4,0.1,0.7,0.5,0.8l2.3,0.6
				c-0.1,0.7-0.2,1.5-0.2,2.3c0,0,0,0,0,0l-2.3,0.2c-0.4,0-0.6,0.4-0.6,0.7l0.1,1.1c0,0.4,0.4,0.6,0.7,0.6l2.3-0.2
				c0.1,0.8,0.3,1.5,0.6,2.3l-2.1,0.9c-0.3,0.1-0.5,0.5-0.3,0.9l0.4,1c0.1,0.3,0.5,0.5,0.9,0.3l2.1-0.9c0.4,0.7,0.8,1.3,1.3,2
				l-1.7,1.6c-0.3,0.3-0.3,0.7,0,0.9l0.7,0.8c0.3,0.3,0.7,0.3,0.9,0l1.7-1.6c0.6,0.5,1.2,1,1.9,1.4l-1.1,2.1c-0.2,0.3,0,0.7,0.3,0.9
				l1,0.5c0.3,0.2,0.7,0,0.9-0.3l1.1-2.1c0.7,0.3,1.5,0.6,2.2,0.7l-0.4,2.3c-0.1,0.4,0.2,0.7,0.6,0.8l1.1,0.2
				c0.4,0.1,0.7-0.2,0.8-0.6l0.4-2.3c0.3,0,0.7,0,1.1,0c0.4,0,0.9,0,1.3-0.1l0.4,2.3c0.1,0.4,0.4,0.6,0.8,0.5l1.1-0.2
				c0.4-0.1,0.6-0.4,0.5-0.8l-0.4-2.3c0.8-0.2,1.5-0.5,2.2-0.8l1.1,2c0.2,0.3,0.6,0.4,0.9,0.3l0.9-0.5c0.3-0.2,0.4-0.6,0.3-0.9
				l-1.1-2c0.7-0.4,1.3-0.9,1.8-1.5l1.7,1.6c0.3,0.2,0.7,0.2,0.9,0l0.7-0.8c0.2-0.3,0.2-0.7,0-0.9l-1.7-1.6c0.5-0.6,0.9-1.3,1.3-2
				l2.1,0.9c0.3,0.1,0.7,0,0.9-0.4l0.4-1c0.1-0.3,0-0.7-0.4-0.9l-2.1-0.9c0.2-0.7,0.4-1.5,0.6-2.3l2.3,0.2c0.4,0,0.7-0.3,0.7-0.6
				l0.1-1.1C427,278.9,426.7,278.6,426.4,278.6z M409.7,286.7c-4.5,0-8.1-3.6-8.1-8.1c0-4.5,3.6-8.1,8.1-8.1c4.5,0,8.1,3.6,8.1,8.1
				C417.7,283.1,414.1,286.7,409.7,286.7z"/>
			<path class="st18" d="M420.9,278.6c0,6.2-5.1,11.3-11.3,11.3c-6.2,0-11.3-5.1-11.3-11.3c0-6.2,5.1-11.3,11.3-11.3
				C415.9,267.3,420.9,272.4,420.9,278.6z"/>
		</g>
		<g>
			<path class="st2" d="M447.2,290.3l-1.5-0.1c0-0.5-0.1-1-0.1-1.5l1.5-0.4c0.2-0.1,0.4-0.3,0.3-0.5l-0.2-0.7
				c-0.1-0.2-0.3-0.4-0.5-0.3l-1.5,0.4c-0.2-0.5-0.4-1-0.6-1.4l1.3-0.9c0.2-0.1,0.3-0.4,0.1-0.6l-0.4-0.6c-0.1-0.2-0.4-0.3-0.6-0.1
				l-1.3,0.9c-0.3-0.4-0.7-0.8-1.1-1.1l0.9-1.2c0.1-0.2,0.1-0.5-0.1-0.6l-0.6-0.4c-0.2-0.1-0.5-0.1-0.6,0.1l-0.9,1.2
				c-0.4-0.3-0.9-0.5-1.4-0.7l0.5-1.4c0.1-0.2-0.1-0.5-0.3-0.5l-0.7-0.2c-0.2-0.1-0.5,0.1-0.5,0.3l-0.5,1.5
				c-0.4-0.1-0.9-0.2-1.4-0.2v-1.5c0-0.2-0.2-0.4-0.4-0.4h-0.7c-0.2,0-0.4,0.2-0.4,0.4v1.5c-0.5,0-1,0.1-1.5,0.3l-0.5-1.4
				c-0.1-0.2-0.3-0.3-0.6-0.3l-0.7,0.2c-0.2,0.1-0.3,0.3-0.3,0.6l0.5,1.4c-0.5,0.2-0.9,0.5-1.4,0.7l-0.9-1.2
				c-0.1-0.2-0.4-0.2-0.6-0.1l-0.6,0.4c-0.2,0.1-0.2,0.4-0.1,0.6l0.9,1.2c-0.4,0.3-0.7,0.7-1,1.1l-1.3-0.8c-0.2-0.1-0.5-0.1-0.6,0.1
				l-0.4,0.6c-0.1,0.2-0.1,0.5,0.1,0.6l1.3,0.8c-0.2,0.5-0.4,0.9-0.6,1.4l-1.5-0.4c-0.2-0.1-0.5,0.1-0.5,0.3l-0.2,0.7
				c-0.1,0.2,0.1,0.5,0.3,0.5l1.5,0.4c-0.1,0.5-0.1,1-0.1,1.5c0,0,0,0,0,0l-1.5,0.1c-0.2,0-0.4,0.2-0.4,0.5l0.1,0.7
				c0,0.2,0.2,0.4,0.5,0.4l1.5-0.1c0.1,0.5,0.2,1,0.4,1.5L426,294c-0.2,0.1-0.3,0.4-0.2,0.6l0.3,0.7c0.1,0.2,0.4,0.3,0.6,0.2
				l1.4-0.6c0.2,0.5,0.5,0.9,0.9,1.3l-1.1,1c-0.2,0.2-0.2,0.4,0,0.6l0.5,0.5c0.2,0.2,0.4,0.2,0.6,0l1.1-1c0.4,0.3,0.8,0.7,1.2,0.9
				l-0.7,1.3c-0.1,0.2,0,0.5,0.2,0.6l0.6,0.3c0.2,0.1,0.5,0,0.6-0.2l0.7-1.3c0.5,0.2,1,0.4,1.5,0.5l-0.2,1.5c0,0.2,0.1,0.5,0.4,0.5
				l0.7,0.1c0.2,0,0.5-0.1,0.5-0.4l0.2-1.5c0.2,0,0.5,0,0.7,0c0.3,0,0.6,0,0.9,0l0.3,1.5c0,0.2,0.3,0.4,0.5,0.4l0.7-0.1
				c0.2,0,0.4-0.3,0.4-0.5l-0.3-1.5c0.5-0.1,1-0.3,1.5-0.5l0.7,1.3c0.1,0.2,0.4,0.3,0.6,0.2l0.6-0.3c0.2-0.1,0.3-0.4,0.2-0.6
				l-0.7-1.3c0.4-0.3,0.8-0.6,1.2-1l1.1,1c0.2,0.2,0.5,0.1,0.6,0l0.5-0.5c0.2-0.2,0.1-0.5,0-0.6l-1.1-1c0.3-0.4,0.6-0.8,0.8-1.3
				l1.4,0.6c0.2,0.1,0.5,0,0.6-0.2l0.3-0.7c0.1-0.2,0-0.5-0.2-0.6l-1.4-0.6c0.2-0.5,0.3-1,0.4-1.5l1.5,0.1c0.2,0,0.4-0.2,0.5-0.4
				l0-0.7C447.7,290.5,447.5,290.3,447.2,290.3z M436.3,295.6c-2.9,0-5.3-2.4-5.3-5.3c0-2.9,2.4-5.3,5.3-5.3c2.9,0,5.3,2.4,5.3,5.3
				C441.6,293.2,439.2,295.6,436.3,295.6z"/>
			<path class="st18" d="M443.7,290.3c0,4.1-3.3,7.4-7.4,7.4c-4.1,0-7.4-3.3-7.4-7.4c0-4.1,3.3-7.4,7.4-7.4
				C440.4,282.9,443.7,286.2,443.7,290.3z"/>
		</g>
		<g>
			<path class="st2" d="M326.7,238.1c0-3.7,2-5.9,5.6-5.9c3.6,0,5.6,2.1,5.6,5.9v12.2c0,3.7-2,5.9-5.6,5.9c-3.6,0-5.6-2.1-5.6-5.9
				V238.1z M330.3,250.4c0,1.7,0.7,2.3,1.9,2.3c1.2,0,1.9-0.6,1.9-2.3v-12.6c0-1.7-0.7-2.3-1.9-2.3c-1.2,0-1.9,0.6-1.9,2.3V250.4z"
				/>
			<path class="st2" d="M351.1,238.2v3c0,3.7-1.8,5.8-5.5,5.8h-1.7v8.8h-3.7v-23.4h5.4C349.3,232.4,351.1,234.5,351.1,238.2z
				 M343.9,235.8v7.9h1.7c1.2,0,1.8-0.5,1.8-2.2V238c0-1.7-0.6-2.2-1.8-2.2H343.9z"/>
			<path class="st2" d="M356.6,242.3h5v3.3h-5v6.8h6.3v3.3h-10v-23.4h10v3.3h-6.3V242.3z"/>
			<path class="st2" d="M372.9,255.8c-0.2-0.6-0.3-1-0.3-2.9v-3.7c0-2.2-0.7-3-2.4-3h-1.3v9.5h-3.7v-23.4h5.5c3.8,0,5.4,1.8,5.4,5.4
				v1.8c0,2.4-0.8,4-2.4,4.7c1.8,0.8,2.4,2.5,2.4,5v3.6c0,1.1,0,2,0.4,2.8H372.9z M368.9,235.8v7.2h1.4c1.4,0,2.2-0.6,2.2-2.5v-2.3
				c0-1.7-0.6-2.4-1.9-2.4H368.9z"/>
			<path class="st2" d="M390.6,255.8h-3.7l-0.6-4.2h-4.5l-0.6,4.2h-3.4l3.7-23.4h5.4L390.6,255.8z M382.2,248.4h3.5l-1.8-11.8
				L382.2,248.4z"/>
			<path class="st2" d="M391.2,232.4h11.4v3.3h-3.8v20H395v-20h-3.8V232.4z"/>
			<path class="st2" d="M404.2,232.4h3.7v23.4h-3.7V232.4z"/>
			<path class="st2" d="M413.8,238.9v16.9h-3.3v-23.4h4.6l3.8,14v-14h3.3v23.4h-3.8L413.8,238.9z"/>
			<path class="st2" d="M430.3,242.8h5.1v7.4c0,3.7-1.9,5.9-5.5,5.9c-3.6,0-5.5-2.1-5.5-5.9v-12.2c0-3.7,1.9-5.9,5.5-5.9
				c3.6,0,5.5,2.1,5.5,5.9v2.3H432v-2.5c0-1.7-0.7-2.3-1.9-2.3c-1.2,0-1.9,0.6-1.9,2.3v12.6c0,1.7,0.7,2.3,1.9,2.3
				c1.2,0,1.9-0.6,1.9-2.3v-4.3h-1.7V242.8z"/>
			<path class="st2" d="M447.9,232.2c3.6,0,5.4,2.1,5.4,5.9v0.7h-3.5v-1c0-1.7-0.7-2.3-1.8-2.3c-1.2,0-1.8,0.6-1.8,2.3
				c0,4.8,7.2,5.7,7.2,12.4c0,3.7-1.9,5.9-5.5,5.9c-3.6,0-5.5-2.1-5.5-5.9v-1.4h3.5v1.7c0,1.7,0.7,2.3,1.9,2.3
				c1.2,0,1.9-0.6,1.9-2.3c0-4.8-7.2-5.7-7.2-12.4C442.5,234.3,444.3,232.2,447.9,232.2z"/>
			<path class="st2" d="M458.7,248.1l-4.6-15.6h3.8l2.8,10.7l2.8-10.7h3.5l-4.6,15.6v7.7h-3.7V248.1z"/>
			<path class="st2" d="M473.2,232.2c3.6,0,5.4,2.1,5.4,5.9v0.7h-3.5v-1c0-1.7-0.7-2.3-1.8-2.3c-1.2,0-1.8,0.6-1.8,2.3
				c0,4.8,7.2,5.7,7.2,12.4c0,3.7-1.9,5.9-5.5,5.9c-3.6,0-5.5-2.1-5.5-5.9v-1.4h3.5v1.7c0,1.7,0.7,2.3,1.9,2.3
				c1.2,0,1.9-0.6,1.9-2.3c0-4.8-7.2-5.7-7.2-12.4C467.8,234.3,469.6,232.2,473.2,232.2z"/>
			<path class="st2" d="M479.7,232.4H491v3.3h-3.8v20h-3.7v-20h-3.8V232.4z"/>
			<path class="st2" d="M496.3,242.3h5v3.3h-5v6.8h6.3v3.3h-10v-23.4h10v3.3h-6.3V242.3z"/>
			<path class="st2" d="M512.7,249l2.5-16.6h5.1v23.4h-3.5v-16.8l-2.5,16.8h-3.5l-2.7-16.5v16.5h-3.2v-23.4h5.1L512.7,249z"/>
		</g>
		<g>
			<rect id="XMLID_14_" x="312.8" y="206.1" class="st19" width="221.8" height="9.3"/>
			<g>
				<circle class="st0" cx="321.1" cy="210" r="2.1"/>
				<circle class="st0" cx="330.7" cy="210" r="2.1"/>
				<circle class="st0" cx="340.3" cy="210" r="2.1"/>
			</g>
		</g>
		<path class="st13" d="M516.3,311.9H332.7c-1.3,0-2.4-1.1-2.4-2.4l0,0c0-1.3,1.1-2.4,2.4-2.4h183.5c1.3,0,2.4,1.1,2.4,2.4l0,0
			C518.6,310.9,517.6,311.9,516.3,311.9z"/>
		<path class="st8" d="M461.9,307.2H332.7c-1.3,0-2.4,1.1-2.4,2.4c0,1.3,1.1,2.4,2.4,2.4h129.2V307.2z"/>
	</g>
	<g>
		<polygon class="st20" points="211.7,439.8 146.1,439.8 312.4,112 378,112 		"/>
		<polygon class="st20" points="258.7,439.8 233.1,439.8 399.4,112 425,112 		"/>
	</g>
	<path class="st4" d="M696.3,96.4H151.1c-6.7,0-12.1,5.4-12.1,12.1v393.9c0,6.7,5.4,12.1,12.1,12.1h545.2c6.7,0,12.1-5.4,12.1-12.1
		V108.4C708.4,101.8,703,96.4,696.3,96.4z M679.7,417.7H167.7V122.4h512.1V417.7z"/>
	<g>
		<path id="XMLID_13_" class="st21" d="M494.5,546.7v-47.1H352.9v47.1c0,15.4-5.3,30.3-15,42.3l-6.2,7.7h184.2l-6.2-7.7
			C499.8,576.9,494.5,562,494.5,546.7z"/>
		<rect x="352.9" y="499.6" class="st2" width="141.7" height="30.4"/>
		<rect id="XMLID_11_" x="331.6" y="596.7" class="st21" width="184.2" height="8.4"/>
	</g>
	<path id="XMLID_9_" class="st3" d="M700.2,514.4h-553c-4.5,0-8.2-3.7-8.2-8.2v-56.8h569.4v56.8
		C708.4,510.7,704.7,514.4,700.2,514.4z"/>
	<g>
		<polygon class="st2" points="636.2,155.8 659.8,155.8 657.4,132.6 638.6,132.6 		"/>
		<path class="st9" d="M636.5,160.1h22.9c0.2,0,0.3-0.1,0.3-0.3v-4.8c0-0.2-0.1-0.3-0.3-0.3h-22.9c-0.2,0-0.3,0.1-0.3,0.3v4.8
			C636.2,159.9,636.4,160.1,636.5,160.1z"/>
	</g>
	<g>
		<g>
			<polygon class="st2" points="636.2,188.9 659.8,188.9 657.4,165.8 638.6,165.8 			"/>
			<path class="st9" d="M636.7,193.2h22.6c0.2,0,0.5-0.2,0.5-0.5v-4.5c0-0.2-0.2-0.5-0.5-0.5h-22.6c-0.2,0-0.5,0.2-0.5,0.5v4.5
				C636.2,193,636.5,193.2,636.7,193.2z"/>
		</g>
		<rect x="637.8" y="189.4" class="st2" width="10.6" height="2.2"/>
		<path class="st22" d="M656.4,176.5c0,3.6-3.6,6.5-8.1,6.5c-4.5,0-8.1-2.9-8.1-6.5c0-3.6,3.6-6.5,8.1-6.5
			C652.8,170,656.4,172.9,656.4,176.5z"/>
	</g>
	<g>
		<path class="st9" d="M660,223.4h-22.3v-13c0-0.4,0.3-0.8,0.8-0.8h20.8c0.4,0,0.8,0.3,0.8,0.8V223.4z"/>
		<path class="st9" d="M650.4,212.2h-9.2c-0.2,0-0.4-0.2-0.4-0.4v-4.4c0-0.2,0.2-0.4,0.4-0.4h9.2c0.2,0,0.4,0.2,0.4,0.4v4.4
			C650.8,212,650.7,212.2,650.4,212.2z"/>
	</g>
	<g>
		<path class="st9" d="M660,256.2h-22.3v-13c0-0.4,0.3-0.8,0.8-0.8h20.8c0.4,0,0.8,0.3,0.8,0.8V256.2z"/>
		<path class="st9" d="M650.4,245h-9.2c-0.2,0-0.4-0.2-0.4-0.4v-4.4c0-0.2,0.2-0.4,0.4-0.4h9.2c0.2,0,0.4,0.2,0.4,0.4v4.4
			C650.8,244.8,650.7,245,650.4,245z"/>
	</g>
	<g>
		<path class="st9" d="M660,288.9h-22.3v-13c0-0.4,0.3-0.8,0.8-0.8h20.8c0.4,0,0.8,0.3,0.8,0.8V288.9z"/>
		<path class="st9" d="M650.4,277.7h-9.2c-0.2,0-0.4-0.2-0.4-0.4V273c0-0.2,0.2-0.4,0.4-0.4h9.2c0.2,0,0.4,0.2,0.4,0.4v4.4
			C650.8,277.6,650.7,277.7,650.4,277.7z"/>
	</g>
	<g>
		<g>
			<g>
				<path class="st23" d="M586.8,675.6H126.3c-2.3,0-4.2,1.9-4.2,4.2v3.8c0,2.3,1.9,4.2,4.2,4.2h460.6c2.3,0,4.2-1.9,4.2-4.2v-3.8
					C591,677.5,589.2,675.6,586.8,675.6z"/>
			</g>
			<path class="st2" d="M590.2,677.2l-48.3-56.3c-1.3-1.6-5.7-2.4-9.1-2.4H180.3c-3.4,0-7.8,0.8-9.1,2.4l-48.3,56.3
				c-0.9,1.1-0.7,2-0.5,2.5c0.7,1.5,3.2,2.3,6.8,2.3h454.7c3.7,0,6.1-0.9,6.8-2.3C590.9,679.2,591.1,678.3,590.2,677.2z"/>
		</g>
		<g>
			<polygon class="st24" points="360.3,620.5 339.4,620.5 338.8,627.9 360.4,627.9 			"/>
			<polygon class="st24" points="309.9,620.5 289,620.5 286.7,627.9 308.3,627.9 			"/>
			<polygon class="st24" points="385.5,620.5 364.6,620.5 364.9,627.9 386.4,627.9 			"/>
			<polygon class="st24" points="259.6,620.5 238.7,620.5 234.6,627.9 256.2,627.9 			"/>
			<polygon class="st24" points="284.7,620.5 263.9,620.5 260.7,627.9 282.3,627.9 			"/>
			<polygon class="st24" points="208.6,627.9 230.2,627.9 234.4,620.5 213.5,620.5 			"/>
			<polygon class="st24" points="335.1,620.5 314.2,620.5 312.8,627.9 334.4,627.9 			"/>
			<polygon class="st24" points="410.6,620.5 389.8,620.5 390.9,627.9 412.5,627.9 			"/>
			<polygon class="st24" points="209.2,620.5 177.4,620.5 171.3,627.9 204.1,627.9 			"/>
			<polygon class="st24" points="515.7,620.5 521.1,627.9 543.4,627.9 537.2,620.5 			"/>
			<polygon class="st24" points="511.3,620.5 490.5,620.5 495.1,627.9 516.7,627.9 			"/>
			<polygon class="st24" points="486.2,620.5 465.3,620.5 469,627.9 490.6,627.9 			"/>
			<polygon class="st24" points="435.8,620.5 414.9,620.5 416.9,627.9 438.5,627.9 			"/>
			<polygon class="st24" points="461,620.5 440.1,620.5 443,627.9 464.6,627.9 			"/>
		</g>
		<g>
			<polygon class="st24" points="294.9,628.6 273.2,628.6 270.3,636.6 292.7,636.6 			"/>
			<polygon class="st24" points="321.1,628.6 299.4,628.6 297.4,636.6 319.8,636.6 			"/>
			<polygon class="st24" points="347.3,628.6 325.6,628.6 324.5,636.6 347,636.6 			"/>
			<polygon class="st24" points="242.6,628.6 220.9,628.6 216,636.6 238.5,636.6 			"/>
			<polygon class="st24" points="188.9,636.6 211.4,636.6 216.4,628.6 194.7,628.6 			"/>
			<polygon class="st24" points="373.5,628.6 351.8,628.6 351.6,636.6 374.1,636.6 			"/>
			<polygon class="st24" points="268.8,628.6 247,628.6 243.1,636.6 265.6,636.6 			"/>
			<polygon class="st24" points="504.3,628.6 482.6,628.6 487.1,636.6 509.6,636.6 			"/>
			<polygon class="st24" points="190.2,628.6 170.7,628.6 164,636.6 184.3,636.6 			"/>
			<polygon class="st24" points="508.8,628.6 514.2,636.6 550.7,636.6 544,628.6 			"/>
			<polygon class="st24" points="478.2,628.6 456.5,628.6 460,636.6 482.5,636.6 			"/>
			<polygon class="st24" points="399.6,628.6 377.9,628.6 378.7,636.6 401.2,636.6 			"/>
			<polygon class="st24" points="425.8,628.6 404.1,628.6 405.8,636.6 428.3,636.6 			"/>
			<polygon class="st24" points="452,628.6 430.3,628.6 432.9,636.6 455.4,636.6 			"/>
		</g>
		<g>
			<polygon class="st24" points="416,668.1 267.1,668.1 263.3,679.2 418.5,679.2 			"/>
			<polygon class="st24" points="261.8,668.1 228.6,668.1 223.2,679.2 257.8,679.2 			"/>
			<polygon class="st24" points="448.6,668.1 421.3,668.1 424,679.2 452.5,679.2 			"/>
			<polygon class="st24" points="160,679.2 187,679.2 193.9,668.1 168,668.1 			"/>
			<polygon class="st24" points="223.3,668.1 199.1,668.1 192.5,679.2 217.7,679.2 			"/>
			<polygon class="st24" points="162.7,668.1 137.6,668.1 128.4,679.2 154.6,679.2 			"/>
			<polygon class="st24" points="481.1,668.1 453.8,668.1 457.9,679.2 486.4,679.2 			"/>
			<polygon class="st24" points="551.5,668.1 559.7,679.2 586.7,679.2 577.3,668.1 			"/>
			<polygon class="st24" points="513.7,668.1 486.4,668.1 491.9,679.2 520.3,679.2 			"/>
			<polygon class="st24" points="546.2,668.1 518.9,668.1 525.8,679.2 554.2,679.2 			"/>
		</g>
		<g>
			<polygon class="st24" points="324.9,657 300.5,657 298.3,667.1 323.6,667.1 			"/>
			<polygon class="st24" points="383.7,657 359.3,657 359.5,667.1 384.8,667.1 			"/>
			<polygon class="st24" points="295.5,657 271.1,657 267.7,667.1 293,667.1 			"/>
			<polygon class="st24" points="236.7,657 212.3,657 206.5,667.1 231.8,667.1 			"/>
			<polygon class="st24" points="175.9,667.1 201.3,667.1 207.3,657 182.9,657 			"/>
			<polygon class="st24" points="266.1,657 241.7,657 237.1,667.1 262.4,667.1 			"/>
			<polygon class="st24" points="354.3,657 329.9,657 328.9,667.1 354.2,667.1 			"/>
			<polygon class="st24" points="177.9,657 147,657 138.5,667.1 170.7,667.1 			"/>
			<polygon class="st24" points="501.3,657 477,657 481.8,667.1 507.2,667.1 			"/>
			<polygon class="st24" points="506.4,657 512.4,667.1 576.5,667.1 567.9,657 			"/>
			<polygon class="st24" points="413.1,657 388.8,657 390.1,667.1 415.4,667.1 			"/>
			<polygon class="st24" points="442.5,657 418.2,657 420.6,667.1 446,667.1 			"/>
			<polygon class="st24" points="471.9,657 447.6,657 451.2,667.1 476.6,667.1 			"/>
		</g>
		<g>
			<polygon class="st24" points="340.3,646.8 316.9,646.8 315.4,656.1 339.7,656.1 			"/>
			<polygon class="st24" points="368.6,646.8 345.2,646.8 344.7,656.1 369.1,656.1 			"/>
			<polygon class="st24" points="312.1,646.8 288.6,646.8 286,656.1 310.3,656.1 			"/>
			<polygon class="st24" points="283.8,646.8 260.3,646.8 256.6,656.1 281,656.1 			"/>
			<polygon class="st24" points="255.5,646.8 232.1,646.8 227.3,656.1 251.6,656.1 			"/>
			<polygon class="st24" points="197.9,656.1 222.2,656.1 227.2,646.8 203.8,646.8 			"/>
			<polygon class="st24" points="396.9,646.8 373.5,646.8 374.1,656.1 398.5,656.1 			"/>
			<polygon class="st24" points="199,646.8 155.5,646.8 147.7,656.1 192.9,656.1 			"/>
			<polygon class="st24" points="538.3,646.8 514.8,646.8 521,656.1 545.3,656.1 			"/>
			<polygon class="st24" points="425.2,646.8 401.7,646.8 403.5,656.1 427.8,656.1 			"/>
			<polygon class="st24" points="510,646.8 486.6,646.8 491.6,656.1 515.9,656.1 			"/>
			<polygon class="st24" points="453.5,646.8 430,646.8 432.9,656.1 457.2,656.1 			"/>
			<polygon class="st24" points="481.7,646.8 458.3,646.8 462.2,656.1 486.6,656.1 			"/>
		</g>
		<g>
			<polygon class="st24" points="308,645.9 330.9,645.9 331.8,637.3 309.7,637.3 			"/>
			<polygon class="st24" points="280.3,645.9 303.2,645.9 305.1,637.3 283,637.3 			"/>
			<polygon class="st24" points="335.7,645.9 358.6,645.9 358.5,637.3 336.5,637.3 			"/>
			<polygon class="st24" points="197.2,645.9 220.1,645.9 224.9,637.3 202.9,637.3 			"/>
			<polygon class="st24" points="224.9,645.9 247.8,645.9 251.7,637.3 229.6,637.3 			"/>
			<polygon class="st24" points="363.4,645.9 386.3,645.9 385.3,637.3 363.2,637.3 			"/>
			<polygon class="st24" points="252.6,645.9 275.5,645.9 278.4,637.3 256.3,637.3 			"/>
			<path class="st24" d="M551.4,637.3h-23.2l6.4,8.6h5.7c0.9,0,1.9,0.3,2.1,0.6l7.5,9.7h17.1L551.4,637.3z"/>
			<polygon class="st24" points="474.3,645.9 497.2,645.9 492.1,637.3 470.1,637.3 			"/>
			<polygon class="st24" points="502,645.9 529.7,645.9 523.5,637.3 496.8,637.3 			"/>
			<polygon class="st24" points="156.2,645.9 192.4,645.9 198.2,637.3 163.4,637.3 			"/>
			<polygon class="st24" points="391.1,645.9 414,645.9 412,637.3 389.9,637.3 			"/>
			<polygon class="st24" points="446.6,645.9 469.4,645.9 465.4,637.3 443.3,637.3 			"/>
			<polygon class="st24" points="418.8,645.9 441.7,645.9 438.7,637.3 416.6,637.3 			"/>
		</g>
	</g>
	<g>
		<g>
			<path class="st3" d="M662.1,623.6c-43.5-0.9-79,12.4-79.4,29.8c-0.4,17.3,34.6,32.1,78.1,33c43.5,0.9,79-12.4,79.4-29.8
				C740.6,639.2,705.6,624.5,662.1,623.6z M661.2,666.9c-16.6-0.3-30-6-29.8-12.6c0.1-6.6,13.7-11.7,30.3-11.4s30,6,29.8,12.6
				C691.4,662.2,677.8,667.3,661.2,666.9z"/>
			<path class="st4" d="M661.8,639.7c-21.1-0.4-38.3,6-38.5,14.4c-0.2,8.4,16.8,15.6,37.9,16c21.1,0.4,38.3-6,38.5-14.4
				C699.9,647.3,682.9,640.2,661.8,639.7z M661.3,662c-9.8-0.2-17.7-3.5-17.6-7.4c0.1-3.9,8.1-6.9,17.9-6.7
				c9.8,0.2,17.7,3.5,17.6,7.4C679.2,659.2,671.1,662.2,661.3,662z"/>
			<line class="st6" x1="693" y1="659.4" x2="738.5" y2="661.5"/>
			<line class="st6" x1="690.6" y1="660.5" x2="731.4" y2="670.6"/>
			<polyline class="st6" points="601.5,673.1 637.5,661.7 613.5,678.6 			"/>
			<line class="st6" x1="634.8" y1="625.3" x2="650.6" y2="643"/>
			<line class="st6" x1="644.6" y1="624.4" x2="654" y2="643"/>
		</g>
		<g>
			<path class="st3" d="M472.5,619.2c-43.5-0.9-79.1,17.3-79.6,40.6c-0.5,23.3,34.4,42.9,77.9,43.8c43.5,0.9,79.1-17.3,79.6-40.6
				C550.9,639.7,516,620.1,472.5,619.2z M471.3,677.5c-16.6-0.3-29.9-7.8-29.7-16.7s13.8-15.8,30.4-15.5
				c16.6,0.3,29.9,7.8,29.7,16.7C501.5,670.9,487.9,677.8,471.3,677.5z"/>
			<path class="st4" d="M472.1,640.9c-21.1-0.4-38.4,8.4-38.6,19.7c-0.2,11.3,16.7,20.8,37.8,21.2c21.1,0.4,38.4-8.4,38.6-19.7
				C510.1,650.8,493.2,641.3,472.1,640.9z M471.4,670.9c-9.8-0.2-17.7-4.6-17.6-9.9c0.1-5.3,8.2-9.4,18-9.2
				c9.8,0.2,17.7,4.6,17.6,9.9C489.3,667,481.3,671.1,471.4,670.9z"/>
			<line class="st6" x1="503.1" y1="667.1" x2="548.6" y2="669.6"/>
			<line class="st6" x1="500.8" y1="668.6" x2="541.5" y2="681.9"/>
			<polyline class="st6" points="411.5,686.2 447.6,670.6 423.5,693.4 			"/>
			<line class="st6" x1="445.2" y1="621.7" x2="460.8" y2="645.3"/>
			<line class="st6" x1="455" y1="620.4" x2="464.3" y2="645.4"/>
		</g>
		<polygon class="st13" points="486,612.1 360.7,617.6 380.8,712.5 525.6,704.4 		"/>
		<g>
			<g>
				<path class="st2" d="M450.7,651.4l-4.3-0.1c-0.3-1-0.7-2-1.2-3l3.8-0.9c0.6-0.1,0.8-0.6,0.5-1.1l-0.9-1.3
					c-0.3-0.4-1-0.7-1.6-0.5l-3.8,0.9c-0.7-0.9-1.6-1.8-2.5-2.7l3-1.7c0.5-0.3,0.5-0.8,0-1.2l-1.4-1.1c-0.5-0.4-1.2-0.4-1.7-0.2
					l-3,1.7c-1.1-0.7-2.2-1.4-3.4-2l1.9-2.4c0.3-0.4,0.1-0.9-0.5-1.1l-1.7-0.8c-0.6-0.3-1.3-0.2-1.6,0.2l-1.9,2.4
					c-1.3-0.5-2.7-0.9-4.1-1.2l0.6-2.8c0.1-0.4-0.4-0.9-1-1l-1.9-0.4c-0.7-0.1-1.3,0.1-1.4,0.6l-0.6,2.8c-1.3-0.2-2.5-0.3-3.8-0.3
					l-0.7-2.9c-0.1-0.4-0.7-0.8-1.4-0.8l-1.9,0.1c-0.7,0-1.1,0.4-1,0.8l0.6,2.9c-1.4,0.1-2.8,0.3-4.1,0.6l-1.9-2.7
					c-0.3-0.4-1-0.6-1.6-0.5l-1.8,0.5c-0.6,0.2-0.8,0.6-0.5,1.1l1.9,2.7c-1.2,0.4-2.4,0.9-3.5,1.5l-3.1-2.2
					c-0.5-0.3-1.2-0.4-1.7-0.1l-1.4,0.9c-0.5,0.3-0.5,0.8,0,1.2l3.1,2.2c-0.9,0.7-1.8,1.5-2.5,2.3l-3.9-1.5
					c-0.6-0.2-1.3-0.1-1.6,0.3l-0.9,1.2c-0.3,0.4,0,0.9,0.6,1.2l3.9,1.5c-0.5,0.9-0.9,1.9-1.2,2.9l-4.3-0.6
					c-0.7-0.1-1.3,0.2-1.4,0.7l-0.3,1.4c-0.1,0.5,0.4,0.9,1.1,1l4.4,0.6c0,1,0,2,0.2,3.1c0,0,0,0,0,0.1l-4.3,0.4
					c-0.7,0.1-1.1,0.5-1,1l0.4,1.4c0.1,0.5,0.8,0.8,1.5,0.8l4.3-0.4c0.4,1,1,2.1,1.7,3l-3.8,1.4c-0.6,0.2-0.8,0.8-0.4,1.2l1.1,1.3
					c0.4,0.5,1.2,0.6,1.8,0.4l3.8-1.5c0.9,0.9,1.9,1.8,3,2.6l-2.9,2.3c-0.5,0.4-0.4,1,0.2,1.3l1.6,1.1c0.6,0.4,1.4,0.3,1.8,0
					l2.8-2.4c1.3,0.7,2.6,1.3,4,1.9l-1.5,3c-0.2,0.5,0.1,1,0.8,1.3l2,0.6c0.7,0.2,1.4,0,1.7-0.5l1.5-3c1.5,0.4,3,0.7,4.5,0.9l0,3.3
					c0,0.5,0.6,1,1.3,1l2.1,0.2c0.7,0.1,1.3-0.3,1.3-0.8l0-3.3c0.7,0,1.3,0,2,0c0.8,0,1.7-0.1,2.5-0.2l1.5,3.2
					c0.2,0.5,1,0.8,1.6,0.7l2-0.4c0.7-0.1,1-0.6,0.8-1.1l-1.5-3.2c1.4-0.3,2.7-0.8,3.9-1.3l2.8,2.8c0.4,0.4,1.3,0.6,1.8,0.3l1.6-0.8
					c0.5-0.3,0.6-0.8,0.2-1.3l-2.8-2.7c1.1-0.7,2-1.4,2.9-2.2l3.8,2c0.6,0.3,1.4,0.3,1.7-0.1l1.1-1.2c0.4-0.4,0.2-1-0.4-1.3l-3.8-2
					c0.7-0.9,1.2-1.8,1.6-2.8l4.3,1.1c0.7,0.2,1.3-0.1,1.5-0.5l0.4-1.4c0.1-0.5-0.3-1-1-1.1l-4.3-1.1c0.2-1,0.2-2,0.2-3.1l4.3,0.1
					c0.7,0,1.1-0.4,1.1-0.9l-0.3-1.4C452,651.8,451.4,651.4,450.7,651.4z M422.6,663.3c-8.4,0.3-16.3-4.4-17.5-10.3
					c-1.2-5.8,4.5-10.7,12.6-11c8.1-0.2,15.7,4.2,17.2,9.9C436.5,657.9,431,663,422.6,663.3z"/>
				<path class="st18" d="M440.9,651.8c2.2,8.3-5.5,15.5-17.2,16c-11.9,0.5-22.9-6.1-24.5-14.5c-1.6-8.2,6.4-14.9,17.7-15.2
					C428.1,637.7,438.7,643.8,440.9,651.8z"/>
			</g>
			<g>
				<path class="st2" d="M493.3,665.5l-2.8,0c-0.3-0.7-0.6-1.4-1-2.1l2.5-0.6c0.4-0.1,0.5-0.4,0.3-0.7l-0.6-0.9
					c-0.2-0.3-0.7-0.5-1.1-0.4l-2.5,0.6c-0.5-0.6-1.1-1.2-1.8-1.8l1.9-1.2c0.3-0.2,0.3-0.5-0.1-0.8l-1-0.7c-0.3-0.3-0.8-0.3-1.1-0.1
					l-1.9,1.2c-0.8-0.5-1.6-1-2.4-1.4l1.1-1.7c0.2-0.3,0-0.6-0.4-0.8l-1.2-0.5c-0.4-0.2-0.9-0.1-1,0.1l-1.1,1.6
					c-0.9-0.3-1.8-0.6-2.7-0.8l0.2-1.9c0-0.3-0.3-0.6-0.7-0.7l-1.3-0.2c-0.4-0.1-0.8,0.1-0.9,0.4l-0.2,1.9c-0.8-0.1-1.7-0.2-2.5-0.2
					l-0.6-2c-0.1-0.3-0.5-0.6-1-0.5l-1.3,0c-0.4,0-0.7,0.3-0.6,0.6l0.6,2c-0.9,0.1-1.8,0.2-2.6,0.4l-1.5-1.8
					c-0.2-0.3-0.7-0.4-1.1-0.3l-1.1,0.3c-0.4,0.1-0.5,0.4-0.3,0.7l1.5,1.9c-0.8,0.3-1.5,0.7-2.2,1.1l-2.2-1.5
					c-0.3-0.2-0.8-0.3-1.1-0.1l-0.8,0.6c-0.3,0.2-0.2,0.6,0.1,0.8l2.2,1.5c-0.6,0.5-1,1-1.5,1.6l-2.7-1c-0.4-0.2-0.9-0.1-1.1,0.2
					l-0.5,0.8c-0.2,0.3,0,0.6,0.5,0.8l2.7,1c-0.3,0.6-0.5,1.3-0.6,1.9l-2.9-0.4c-0.5-0.1-0.8,0.1-0.9,0.5l-0.1,0.9
					c0,0.3,0.3,0.6,0.8,0.7l2.9,0.4c0,0.7,0.2,1.4,0.4,2.1c0,0,0,0,0,0l-2.8,0.3c-0.4,0-0.7,0.3-0.6,0.7l0.4,1
					c0.1,0.3,0.6,0.6,1,0.5l2.8-0.3c0.4,0.7,0.8,1.4,1.3,2l-2.4,1c-0.4,0.2-0.5,0.5-0.2,0.8l0.8,0.9c0.3,0.3,0.8,0.4,1.2,0.3l2.4-1
					c0.6,0.6,1.4,1.2,2.1,1.7l-1.7,1.6c-0.3,0.2-0.2,0.6,0.2,0.9l1.1,0.7c0.4,0.2,0.9,0.2,1.2,0l1.7-1.6c0.9,0.5,1.8,0.9,2.7,1.2
					l-0.8,2c-0.1,0.3,0.1,0.7,0.6,0.8l1.3,0.4c0.4,0.1,0.9,0,1-0.3l0.8-2c1,0.2,2,0.4,3,0.6l0.2,2.2c0,0.3,0.4,0.7,0.9,0.7l1.4,0.1
					c0.5,0,0.8-0.2,0.8-0.6l-0.2-2.2c0.4,0,0.9,0,1.3,0c0.5,0,1.1-0.1,1.6-0.1l1.2,2.1c0.2,0.3,0.7,0.5,1.1,0.5l1.3-0.2
					c0.4-0.1,0.6-0.4,0.4-0.8l-1.2-2.1c0.9-0.2,1.7-0.5,2.5-0.9l2,1.8c0.3,0.3,0.8,0.4,1.2,0.2l1-0.5c0.3-0.2,0.4-0.6,0-0.9l-2-1.8
					c0.7-0.4,1.3-0.9,1.8-1.4l2.6,1.3c0.4,0.2,0.9,0.2,1.1-0.1l0.6-0.8c0.2-0.3,0.1-0.6-0.4-0.9l-2.6-1.3c0.4-0.6,0.7-1.2,0.9-1.9
					l2.8,0.7c0.4,0.1,0.9,0,0.9-0.4l0.2-0.9c0.1-0.3-0.2-0.7-0.7-0.8l-2.8-0.7c0.1-0.7,0.1-1.4,0-2.1l2.8,0c0.4,0,0.7-0.3,0.6-0.6
					l-0.2-1C494.2,665.8,493.7,665.6,493.3,665.5z M475.7,673.7c-5.4,0.2-10.8-2.9-12-6.9c-1.2-4,2.2-7.3,7.5-7.5
					c5.3-0.2,10.6,2.8,11.9,6.7C484.4,670,481.1,673.4,475.7,673.7z"/>
				<path class="st18" d="M486.9,665.8c1.9,5.6-2.7,10.5-10.3,10.8c-7.6,0.3-15.2-4.1-16.8-9.7c-1.6-5.5,3.1-10.2,10.5-10.4
					C477.6,656.2,485,660.4,486.9,665.8z"/>
			</g>
		</g>
	</g>
</g>
</svg>
