<?xml version="1.0" encoding="utf-8"?>
<!-- Generator: Adobe Illustrator 23.0.5, SVG Export Plug-In . SVG Version: 6.00 Build 0)  -->
<svg version="1.1" id="Capa_1" xmlns="http://www.w3.org/2000/svg" xmlns:xlink="http://www.w3.org/1999/xlink" x="0px" y="0px"
	 viewBox="0 0 100 100" style="enable-background:new 0 0 100 100;" xml:space="preserve">
<g>
	<path d="M89.6,0H23.3C18,0,13.6,3.7,13,8.5h64.9c7.4,0,13.4,5.6,13.4,12.5v66.5c4.9-0.8,8.7-4.8,8.7-9.6V9.7C100,4.4,95.3,0,89.6,0
		z"/>
	<path d="M76.7,12.4H10.4C4.7,12.4,0,16.7,0,22.1v68.2c0,5.3,4.7,9.7,10.4,9.7h66.3c5.7,0,10.4-4.4,10.4-9.7V22.1
		C87.1,16.7,82.4,12.4,76.7,12.4z M67.9,19.4c1.3-0.9,3-1.4,5.1-1.4c2,0,3.8,0.4,5.3,1.2l0.7,0.4l-1.8,2.9l-0.6-0.3
		c-1.2-0.5-2.4-0.8-3.6-0.8c-1,0-1.8,0.2-2.4,0.5c-0.7,0.4-0.7,0.8-0.7,1.1c0,1.1,1.8,1.9,3.3,2.3c2.2,0.6,3.8,1.3,4.7,2.2
		c1,0.9,1.5,2.1,1.5,3.5c0,1.7-0.8,3-2.3,4c-1.4,1-3.3,1.5-5.4,1.5c-2.2,0-4.3-0.5-6.3-1.6l-0.6-0.3l1.8-3.3l0.7,0.5
		c1.4,0.9,2.9,1.4,4.5,1.4c1.1,0,2-0.2,2.7-0.6c0.5-0.4,0.8-0.8,0.8-1.4c0-1-1.1-1.8-3.3-2.5c-4.1-1.1-6.2-3-6.2-5.4
		C65.8,21.6,66.5,20.3,67.9,19.4z M27.4,18.3h11.9h0.9h3.4l3.2,11.3L51,18.3h3.5l4.1,11.3l3.2-11.3h4.4l-5.7,17.8H57l-4.3-11.9
		l-4.3,11.9H45l-4.8-14.9v0.4h-8.8v3.5h7.9v3.3h-7.9v4.4h8.8v3.3H27.4V18.3z M8.4,18.3h3.7l8.7,11.4V18.3h4v17.8h-3.6l-8.8-11.8
		v11.8h-4V18.3z M75.2,91.2h-64c-2.4,0-4.4-1.8-4.4-4.1c0-2.2,2-4.1,4.4-4.1h64c2.4,0,4.4,1.8,4.4,4.1
		C79.5,89.3,77.6,91.2,75.2,91.2z M75.2,77h-64c-2.4,0-4.4-1.8-4.4-4.1c0-2.2,2-4.1,4.4-4.1h64c2.4,0,4.4,1.8,4.4,4.1
		C79.5,75.2,77.6,77,75.2,77z M75.2,62.9h-64c-2.4,0-4.4-1.8-4.4-4.1c0-2.2,2-4.1,4.4-4.1h64c2.4,0,4.4,1.8,4.4,4.1
		C79.5,61.1,77.6,62.9,75.2,62.9z M75.2,48.8h-64c-2.4,0-4.4-1.8-4.4-4.1c0-2.2,2-4.1,4.4-4.1h64c2.4,0,4.4,1.8,4.4,4.1
		C79.5,46.9,77.6,48.8,75.2,48.8z"/>
</g>
</svg>
