<?xml version="1.0" encoding="utf-8"?>
<!-- Generator: Adobe Illustrator 23.0.5, SVG Export Plug-In . SVG Version: 6.00 Build 0)  -->
<svg version="1.1" id="Capa_1" xmlns="http://www.w3.org/2000/svg" xmlns:xlink="http://www.w3.org/1999/xlink" x="0px" y="0px"
	 viewBox="0 0 100 100" style="enable-background:new 0 0 100 100;" xml:space="preserve">
<style type="text/css">
	.st0{fill-rule:evenodd;clip-rule:evenodd;}
</style>
<g>
	<path class="st0" d="M34,43.4c0.1,0.1,0.2,0.1,0.3,0.2l3.9,4.2c1.6,1.7,3.2,3.4,5.3,4.7c2,1.2,4.4,2,7.6,2c3.4,0,6-0.8,8-2.1
		c2.1-1.3,3.8-3.2,5.5-5l2.2-2.4c0.3-0.3,0.4-0.4,0.5-0.5c0.3-0.3,0.6-0.6,0.9-0.9c0.1-0.1,0.2-0.2,0.3-0.2c0.4-1,0.6-2.2,0.8-3.3
		c0.6-3.8,0.6-6.7-1.2-10.1c-1.6-3-3.8-4.5-6.3-5.6c2.6,2.7,4.8,5.3,4.3,7.5c-3.2-3.2-6.6-6.1-10-8.4c-7.2-3.4-11.4-8-13.3-13.6
		C31.8,19.5,30,31,34,43.4L34,43.4z M76.6,68.3c-1.9-3.5-4.1-6.6-6.6-9.5c-0.7-0.6-2-1.7-3.4-2.8c-1.5-1.2-3.2-2.6-4.4-3.7
		c-0.5,0.4-1,0.8-1.6,1.1c-2.4,1.5-5.4,2.5-9.5,2.5c-3.8,0-6.7-1-9-2.4c-1.1-0.7-2-1.4-2.9-2.2c-1.4,1.1-3.1,2.5-4.8,3.8
		c-2.1,1.6-4,3-4.4,3.5c0,0.1-0.1,0.1-0.1,0.1c-2.5,2.9-4.8,6.1-6.7,9.5l8.1-0.2l3.4,5.2H11.8c-1.9,0-3.5,1.7-3.2,3.7l3.3,22.8
		c-2.4,0-4.7,0-6.9,0.1c-4.8,0.1-5.3,0.4-4.8-5.8c6.4-27.8,4.5-29,29.6-38c0.9-0.7,2-1.6,3.3-2.5c1.7-1.3,3.5-2.6,4.7-3.7
		c-0.4-0.4-0.9-0.9-1.3-1.4L33,45l-2.5,0.1l-4.8,0.1c-4.1-4.3-3.8-13.6-3.4-19c1.9-10.8,6.5-18.5,13.9-23c5-3.1,8-3.2,13.9-3.2
		c5.1,0,8.3-0.1,12.6,2.5C76.8,11.1,81.2,31.3,74.3,45h-5c-0.1,0.1-0.2,0.2-0.3,0.3l-0.4,0.5l-2.2,2.4c-0.9,0.9-1.7,1.9-2.7,2.8
		c1.2,1.1,2.8,2.4,4.3,3.5c0.7,0.6,1.4,1.1,2,1.6c22.2,8.1,27.1,12.8,29.8,39.1c0.5,4.8,0.5,4.6-4.6,4.7c-2.3,0-4.6,0.1-7,0.1
		l3.3-23c0.3-2-1.3-3.7-3.2-3.7H65.1l3.4-5.2L76.6,68.3L76.6,68.3z M49.6,87.2c2.7,0,4.9,2,4.9,4.4c0,2.5-2.2,4.4-4.9,4.4
		c-2.7,0-4.9-2-4.9-4.4C44.8,89.1,47,87.2,49.6,87.2L49.6,87.2z M44.4,73.3l2.9-9.2l-1.8-1.8c-0.8-1.1-1-2-0.5-2.9
		c1-1.8,3-1.4,4.9-1.4c2,0,4.4-0.3,5.1,1.9c0.2,0.8-0.1,1.6-0.6,2.4l-1.8,1.8l2.9,9.2L44.4,73.3L44.4,73.3z"/>
</g>
</svg>
